<?xml version="1.0" encoding="UTF-8"?>
<svg id="Layer_1" xmlns="http://www.w3.org/2000/svg" version="1.1" viewBox="0 0 147.4 16.6">
  <!-- Generator: Adobe Illustrator 29.6.1, SVG Export Plug-In . SVG Version: 2.1.1 Build 9)  -->
  <defs>
    <style>
      .st0 {
        fill: #000e23;
      }
    </style>
  </defs>
  <g>
    <path class="st0" d="M42.3,3.7h3.8c2.2,0,3.6,1.3,3.6,3.2h0c0,2.2-1.7,3.3-3.8,3.3h-1.6v2.8h-2.1V3.7ZM46,8.4c1,0,1.6-.6,1.6-1.4h0c0-.9-.6-1.4-1.7-1.4h-1.6v2.8h1.6Z"/>
    <path class="st0" d="M54.8,3.6h1.9l4,9.4h-2.1l-.9-2.1h-3.9l-.9,2.1h-2.1l4-9.4ZM57,9.1l-1.2-3-1.2,3h2.5Z"/>
    <path class="st0" d="M63.5,3.7h1.9l4.4,5.7V3.7h2v9.3h-1.7l-4.5-5.9v5.9h-2V3.7Z"/>
    <path class="st0" d="M74.9,8.4h0c0-2.7,2.1-4.8,5-4.8s4.9,2.1,4.9,4.8h0c0,2.7-2.1,4.8-5,4.8s-4.9-2.1-4.9-4.8ZM82.7,8.4h0c0-1.6-1.2-3-2.8-3s-2.8,1.3-2.8,2.9h0c0,1.6,1.2,3,2.8,3s2.8-1.3,2.8-2.9Z"/>
    <path class="st0" d="M88,3.7h4.3c1.2,0,2.1.3,2.7.9.5.5.8,1.3.8,2.1h0c0,1.5-.8,2.5-2,2.9l2.3,3.3h-2.4l-2-3h-1.6v3h-2V3.7ZM92.1,8.2c1,0,1.6-.5,1.6-1.3h0c0-.9-.6-1.4-1.6-1.4h-2v2.7h2.1Z"/>
    <path class="st0" d="M102.1,3.6h1.9l4,9.4h-2.1l-.9-2.1h-3.9l-.9,2.1h-2.1l4-9.4ZM104.3,9.1l-1.2-3-1.2,3h2.5Z"/>
    <path class="st0" d="M110.8,3.7h2.2l2.4,3.9,2.4-3.9h2.2v9.3h-2v-6.1l-2.6,4h0l-2.6-3.9v6h-2V3.7Z"/>
    <path class="st0" d="M126.8,3.6h1.9l4,9.4h-2.1l-.9-2.1h-3.9l-.9,2.1h-2.1l4-9.4ZM129,9.1l-1.2-3-1.2,3h2.5Z"/>
  </g>
  <path class="st0" d="M32.5.8c-4.2,0-7.6,3.4-7.6,7.6s3.4,7.6,7.6,7.6,7.6-3.4,7.6-7.6-3.4-7.6-7.6-7.6ZM35.7,6.2l-3.7,3.7,1.7-2.9-2.6-2.6-4.9,4.9c0-.3,0-.6,0-.9,0-3.5,2.8-6.3,6.3-6.3s6.3,2.8,6.3,6.3,0,.6,0,.9l-3.1-3.1Z"/>
</svg>