<?xml version="1.0" encoding="UTF-8"?>
<svg id="Layer_1" xmlns="http://www.w3.org/2000/svg" version="1.1" viewBox="0 0 147.4 16.6">
  <!-- Generator: Adobe Illustrator 29.6.1, SVG Export Plug-In . SVG Version: 2.1.1 Build 9)  -->
  <defs>
    <style>
      .st0, .st1 {
        fill: #a0adc0;
      }

      .st1 {
        fill-opacity: 1;
      }
    </style>
  </defs>
  <path class="st1" d="M40.1,5.4l5.7,5.7-2.9,5,6.9-6.9,6.6,6.6c0-.6.1-1.2.1-1.9,0-7.4-6.1-13.5-13.5-13.5s-13.5,6.1-13.5,13.5,0,1.3.1,1.9l10.5-10.5Z"/>
  <g>
    <g>
      <path class="st0" d="M61.1,2.8h1.5l1.7,2.7,1.7-2.7h1.5v6.5h-1.4v-4.2l-1.8,2.8h0l-1.8-2.7v4.2h-1.4V2.8Z"/>
      <path class="st0" d="M69.3,6.1h0c0-1.9,1.5-3.4,3.5-3.4s3.4,1.5,3.4,3.3h0c0,1.9-1.5,3.4-3.5,3.4s-3.4-1.5-3.4-3.3ZM74.7,6.1h0c0-1.1-.8-2.1-2-2.1s-1.9.9-1.9,2h0c0,1.1.8,2.1,2,2.1s1.9-.9,1.9-2Z"/>
      <path class="st0" d="M77.8,6.6v-3.7h1.4v3.7c0,1.1.5,1.6,1.4,1.6s1.4-.5,1.4-1.6v-3.7h1.4v3.7c0,2-1.1,2.9-2.8,2.9s-2.8-1-2.8-2.9Z"/>
      <path class="st0" d="M85.4,2.8h1.3l3,4v-4h1.4v6.5h-1.2l-3.1-4.1v4.1h-1.4V2.8Z"/>
      <path class="st0" d="M94.7,4.2h-2v-1.3h5.4v1.3h-2v5.2h-1.4v-5.2Z"/>
      <path class="st0" d="M99.7,2.8h1.4v6.5h-1.4V2.8Z"/>
      <path class="st0" d="M105.4,2.8h1.3l2.8,6.5h-1.5l-.6-1.5h-2.7l-.6,1.5h-1.5l2.8-6.5ZM106.9,6.6l-.9-2.1-.9,2.1h1.7Z"/>
      <path class="st0" d="M111,2.8h1.3l3,4v-4h1.4v6.5h-1.2l-3.1-4.1v4.1h-1.4V2.8Z"/>
    </g>
    <g>
      <path class="st0" d="M61.1,14h0c0-1,.8-1.9,1.9-1.9s1.1.2,1.4.6l-.4.5c-.3-.3-.6-.4-1-.4-.7,0-1.2.6-1.2,1.3h0c0,.7.5,1.3,1.2,1.3s.7-.2,1-.5l.4.4c-.4.4-.8.6-1.5.6-1.1,0-1.8-.8-1.8-1.9Z"/>
      <path class="st0" d="M66.4,12.2h.6v3h1.9v.6h-2.5v-3.6Z"/>
      <path class="st0" d="M70.9,12.2h.6v3.6h-.6v-3.6Z"/>
      <path class="st0" d="M73.8,12.2h.7l1.1,1.7,1.1-1.7h.7v3.6h-.6v-2.6l-1.1,1.7h0l-1.1-1.7v2.6h-.6v-3.6Z"/>
      <path class="st0" d="M79.5,12.2h1.6c.4,0,.7.1.9.3.2.2.2.4.2.6h0c0,.4-.2.7-.5.8.4.1.7.4.7.9h0c0,.7-.5,1-1.3,1h-1.7v-3.6ZM81,13.7c.4,0,.7-.2.7-.5h0c0-.3-.2-.5-.6-.5h-.9v1h.9ZM81.2,15.3c.4,0,.7-.2.7-.5h0c0-.3-.2-.5-.7-.5h-1v1h1.1Z"/>
      <path class="st0" d="M84.6,12.2h2.7v.6h-2v.9h1.8v.6h-1.8v1h2.1v.6h-2.7v-3.6Z"/>
      <path class="st0" d="M89.3,12.2h1.6c.5,0,.8.1,1,.4.2.2.3.5.3.8h0c0,.6-.4,1-.9,1.1l1,1.4h-.7l-.9-1.3h-.8v1.3h-.6v-3.6ZM90.9,14c.5,0,.7-.2.7-.6h0c0-.4-.3-.6-.7-.6h-.9v1.2h.9Z"/>
    </g>
  </g>
</svg>