<?xml version="1.0" encoding="UTF-8"?>
<svg id="Layer_1" xmlns="http://www.w3.org/2000/svg" version="1.1" viewBox="0 0 87.1 16.6">
  <!-- Generator: Adobe Illustrator 29.6.1, SVG Export Plug-In . SVG Version: 2.1.1 Build 9)  -->
  <defs>
    <style>
      .st0 {
        fill: #a0adc0;
      }
    </style>
  </defs>
  <g>
    <path class="st0" d="M14.3.5h-6.6v15.9h6.6c4.9,0,7.9-3.7,7.9-8h0c0-4.4-3-7.8-7.9-7.8ZM15.3,11.5c-1.7,0-3.1-1.4-3.1-3.1s1.4-3.1,3.1-3.1,3.1,1.4,3.1,3.1-1.4,3.1-3.1,3.1Z"/>
    <path class="st0" d="M29.1,5.2c-1.7,0-3.1,1.4-3.1,3.1s1.4,3.1,3.1,3.1,3.1-1.4,3.1-3.1-1.4-3.1-3.1-3.1Z"/>
  </g>
  <g>
    <path class="st0" d="M36.8,5.1h2.6c2.1,0,3.6,1.5,3.6,3.3h0c0,1.9-1.5,3.4-3.6,3.4h-2.6v-6.7ZM39.5,10.5c1.2,0,2-.8,2-2h0c0-1.2-.8-2-2-2h-1.1v4.1h1.1Z"/>
    <path class="st0" d="M48.9,8.4h0c0-1.9,1.5-3.5,3.6-3.5s3.6,1.5,3.6,3.5h0c0,1.9-1.5,3.5-3.6,3.5s-3.6-1.5-3.6-3.5ZM54.5,8.4h0c0-1.2-.8-2.1-2-2.1s-2,.9-2,2.1h0c0,1.2.8,2.1,2,2.1s2-.9,2-2.1Z"/>
    <path class="st0" d="M63.5,6.4h-2v-1.4h5.6v1.4h-2v5.4h-1.5v-5.4Z"/>
    <path class="st0" d="M72.3,10.8l.9-1c.6.5,1.2.8,2,.8s1-.2,1-.6h0c0-.4-.2-.6-1.4-.9-1.4-.3-2.2-.7-2.2-2.1h0c0-1.2,1-2,2.4-2s1.8.3,2.5.9l-.8,1.1c-.6-.4-1.2-.7-1.8-.7s-.9.3-.9.6h0c0,.5.3.6,1.5.9,1.4.4,2.1.8,2.1,2h0c0,1.4-1,2.1-2.5,2.1s-2.1-.4-2.9-1.1Z"/>
  </g>
</svg>