<?xml version="1.0" encoding="UTF-8"?>
<svg id="Layer_1" xmlns="http://www.w3.org/2000/svg" version="1.1" viewBox="0 0 107.3 16.6">
  <!-- Generator: Adobe Illustrator 29.6.1, SVG Export Plug-In . SVG Version: 2.1.1 Build 9)  -->
  <defs>
    <style>
      .st0 {
        fill: #a0adc0;
      }
    </style>
  </defs>
  <g>
    <path class="st0" d="M34,3.5c-.7,2.5-4.6,6.2-6.6,6.5-.5,0-1-.3-1-.9s.5-1.1.9-1.4l1.3-1.2c.1-.1.7-.7.9-.7s.3.1.2.4h0c1.7-1.5,2.8-3.1,2.8-3.6s-.2-.4-.5-.4c-.3,0-2.3.2-6.3,4.8-1.2,1.5-2.2,3.4-2.2,4.8s.6,2,1.9,2c2.2,0,6.2-2.9,7.8-4.4,0,.9-.2,1.2-.9,1.8-3.5,3.3-6.4,4.4-8.1,4.4s-.1,0-.2,0c1,.5,2.2.7,3.4.7,4.5,0,8.1-3.6,8.1-8.1s-.6-3.5-1.6-4.8Z"/>
    <path class="st0" d="M25,5.2c1.3-1.2,4.2-3.5,6.3-4.1-1.1-.6-2.4-.9-3.7-.9-4.5,0-8.1,3.6-8.1,8.1s.6,3.4,1.5,4.7c0-.2,0-.4,0-.7,0-2.6,2.2-5.4,4-7.2Z"/>
  </g>
  <g>
    <g>
      <path class="st0" d="M39.1,6.1h0c0-1.5,1.1-2.7,2.7-2.7s1.6.3,2,.8l-.7.8c-.4-.4-.8-.6-1.3-.6-.9,0-1.5.7-1.5,1.6h0c0,.9.6,1.6,1.5,1.6s1-.2,1.4-.6l.7.7c-.5.6-1.1.9-2.1.9-1.5,0-2.6-1.2-2.6-2.7Z"/>
      <path class="st0" d="M46.2,3.5h1.1v2h2.1v-2h1.1v5.2h-1.1v-2.1h-2.1v2.1h-1.1V3.5Z"/>
      <path class="st0" d="M53.3,3.5h2.4c.7,0,1.2.2,1.5.5s.4.7.4,1.2h0c0,.8-.4,1.4-1.1,1.6l1.3,1.8h-1.3l-1.1-1.7h-.9v1.7h-1.1V3.5ZM55.6,6c.6,0,.9-.3.9-.7h0c0-.5-.3-.8-.9-.8h-1.1v1.5h1.2Z"/>
      <path class="st0" d="M60.1,3.5h1.1v5.2h-1.1V3.5Z"/>
      <path class="st0" d="M63.7,7.9l.7-.8c.5.4,1,.6,1.5.6s.7-.2.7-.5h0c0-.3-.2-.4-1-.7-1-.3-1.7-.6-1.7-1.6h0c0-1,.8-1.6,1.8-1.6s1.4.2,1.9.7l-.6.9c-.5-.3-.9-.5-1.3-.5s-.7.2-.7.5h0c0,.4.2.5,1.1.7,1,.3,1.6.6,1.6,1.5h0c0,1-.8,1.6-1.9,1.6s-1.6-.3-2.2-.8Z"/>
      <path class="st0" d="M71.3,4.6h-1.6v-1h4.3v1h-1.6v4.1h-1.1v-4.1Z"/>
      <path class="st0" d="M76.4,3.5h1.1v5.2h-1.1V3.5Z"/>
      <path class="st0" d="M80.3,3.5h1l2.4,3.2v-3.2h1.1v5.2h-1l-2.5-3.3v3.3h-1.1V3.5Z"/>
      <path class="st0" d="M87.6,3.5h3.9v1h-2.8v1h2.4v1h-2.4v1.1h2.8v1h-3.9V3.5Z"/>
    </g>
    <g>
      <path class="st0" d="M46.8,11.3h1c.6,0,1,.3,1,.9h0c0,.6-.5.9-1,.9h-.5v.8h-.5v-2.6ZM47.8,12.6c.3,0,.6-.2.6-.5h0c0-.3-.2-.5-.6-.5h-.5v.9h.5Z"/>
      <path class="st0" d="M50,11.3h.5v1.1h1.2v-1.1h.5v2.6h-.5v-1.1h-1.2v1.1h-.5v-2.6Z"/>
      <path class="st0" d="M53.4,12.6h0c0-.7.6-1.3,1.4-1.3s1.3.6,1.3,1.3h0c0,.7-.6,1.3-1.4,1.3s-1.3-.6-1.3-1.3ZM55.7,12.6h0c0-.5-.4-.9-.9-.9s-.9.4-.9.9h0c0,.5.4.9.9.9s.9-.4.9-.9Z"/>
      <path class="st0" d="M57.9,11.7h-.8v-.4h2.1v.4h-.8v2.2h-.5v-2.2Z"/>
      <path class="st0" d="M60.2,12.6h0c0-.7.6-1.3,1.4-1.3s1.3.6,1.3,1.3h0c0,.7-.6,1.3-1.4,1.3s-1.3-.6-1.3-1.3ZM62.4,12.6h0c0-.5-.4-.9-.9-.9s-.9.4-.9.9h0c0,.5.4.9.9.9s.9-.4.9-.9Z"/>
      <path class="st0" d="M64,12.6h0c0-.7.6-1.3,1.3-1.3s.7.1,1,.3l-.3.3c-.2-.2-.4-.3-.7-.3-.5,0-.8.4-.8.9h0c0,.5.3.9.9.9s.5,0,.6-.2v-.5h-.7v-.4h1.1v1.1c-.3.2-.6.4-1.1.4-.8,0-1.3-.6-1.3-1.3Z"/>
      <path class="st0" d="M67.8,11.3h1.1c.3,0,.6,0,.7.3.1.1.2.3.2.6h0c0,.4-.3.7-.6.8l.7,1h-.5l-.6-.9h-.6v.9h-.5v-2.6ZM68.9,12.6c.3,0,.5-.2.5-.4h0c0-.3-.2-.4-.5-.4h-.7v.9h.7Z"/>
      <path class="st0" d="M72.1,11.3h.4l1.1,2.6h-.5l-.3-.6h-1.2l-.3.6h-.5l1.1-2.6ZM72.7,12.8l-.4-1-.4,1h.9Z"/>
      <path class="st0" d="M74.8,11.3h1c.6,0,1,.3,1,.9h0c0,.6-.5.9-1,.9h-.5v.8h-.5v-2.6ZM75.8,12.6c.3,0,.6-.2.6-.5h0c0-.3-.2-.5-.6-.5h-.5v.9h.5Z"/>
      <path class="st0" d="M78,11.3h.5v1.1h1.2v-1.1h.5v2.6h-.5v-1.1h-1.2v1.1h-.5v-2.6Z"/>
      <path class="st0" d="M82.3,12.8l-1-1.6h.5l.7,1.1.7-1.1h.5l-1,1.6v1h-.5v-1Z"/>
    </g>
  </g>
</svg>