<?xml version="1.0" encoding="utf-8"?>
<!-- Generator: Adobe Illustrator 26.3.1, SVG Export Plug-In . SVG Version: 6.00 Build 0)  -->
<svg version="1.1" id="Layer_1" xmlns="http://www.w3.org/2000/svg" xmlns:xlink="http://www.w3.org/1999/xlink" x="0px" y="0px"
	 viewBox="0 0 115.8 16.6" style="enable-background:new 0 0 115.8 16.6;" xml:space="preserve">
<style type="text/css">
	.st0{fill:#A0ADC0;fill-opacity:0.98;}
</style>
<g>
	<path class="st0" d="M24.5,5.6C23.8,5.1,23,4.9,22,4.9c-1.2,0-2.1,0.3-2.8,0.8c-0.7,0.5-1.3,1.2-1.6,2.1c-0.3,0.9-0.5,1.9-0.5,3
		c0,0.7,0.1,1.4,0.2,2.1c0.2,0.7,0.4,1.3,0.8,1.8c0.4,0.5,0.9,1,1.5,1.3c0.6,0.3,1.4,0.5,2.4,0.5c0.8,0,1.6-0.1,2.3-0.3
		c0.8-0.2,1.4-0.5,2-0.9c-0.1-0.3-0.2-0.7-0.3-1.1s-0.4-0.7-0.6-0.9c-0.4,0.2-0.9,0.3-1.4,0.5c-0.5,0.1-1,0.2-1.5,0.2
		c-0.6,0-1-0.1-1.3-0.4c-0.3-0.3-0.5-0.6-0.6-1c0-0.2-0.1-0.4-0.1-0.6h5.7c0.1-0.4,0.2-0.7,0.2-1c0.1-0.3,0.1-0.7,0.1-1.2
		c0-0.9-0.2-1.7-0.5-2.4C25.7,6.5,25.1,6,24.5,5.6z M23.4,9.5h-2.9c0-0.6,0.1-1.1,0.3-1.5c0.2-0.4,0.6-0.7,1.1-0.7
		c0.4,0,0.6,0.1,0.8,0.3C23,7.8,23.2,8,23.3,8.3c0.1,0.3,0.1,0.6,0.1,0.9V9.5z"/>
	<path class="st0" d="M15.5,5.2c-0.4,0-0.7-0.1-0.9-0.1c-0.2,0-0.4,0-0.7,0c-0.2,0-0.4,0.1-0.6,0.1l-1,4.8c-0.1,0.7-0.2,1.3-0.3,1.9
		c-0.1,0.6-0.2,1.2-0.3,1.7c-0.1,0-0.1-0.1-0.2-0.2l-1.2-8.1c-0.3-0.1-0.6-0.1-1-0.1c-0.4,0-0.8,0-1,0c-0.2,0-0.5,0-0.9,0
		c-0.4,0-0.8,0.1-1,0.1L5,13.7c-0.1,0-0.2-0.1-0.2-0.2c0-0.4-0.1-0.9-0.2-1.5c-0.1-0.6-0.2-1.3-0.4-2L3.6,6.5
		C3.5,6.1,3.3,5.7,3.1,5.5C2.9,5.2,2.5,5.1,2,5.1c-0.3,0-0.6,0-0.9,0.1C0.7,5.2,0.4,5.3,0,5.5l2.1,9.3c0.1,0.7,0.4,1.1,0.7,1.3
		c0.3,0.2,0.8,0.3,1.5,0.3c0.4,0,0.9,0,1.3,0c0.5,0,0.9-0.1,1.3-0.1l0.6-3.8c0.1-0.4,0.1-0.8,0.2-1.2c0.1-0.4,0.1-0.9,0.2-1.4
		c0.1-0.5,0.1-1,0.2-1.5h0.1c0.1,0.5,0.1,1,0.2,1.5c0.1,0.5,0.1,1,0.2,1.4c0.1,0.4,0.1,0.9,0.2,1.2l0.4,2.4c0.1,0.7,0.3,1.1,0.7,1.3
		c0.3,0.2,0.8,0.3,1.5,0.3c0.4,0,0.8,0,1.3,0c0.5,0,0.9,0,1.2-0.1l2.6-10.6l-0.1-0.2C16.1,5.3,15.8,5.2,15.5,5.2z"/>
	<path class="st0" d="M40.2,13.7h-0.6c-0.6,0-1-0.3-1-1V2.1c0-0.8-0.1-1.3-0.4-1.6c-0.3-0.3-0.8-0.5-1.4-0.5h-1.3l-0.2,0.2v13.1
		c0,1,0.2,1.8,0.6,2.3c0.4,0.5,1.1,0.7,2.1,0.7c0.4,0,0.8,0,1.3-0.1c0.4,0,0.8-0.1,1.1-0.1c0-0.1,0.1-0.2,0.1-0.4c0-0.1,0-0.3,0-0.4
		c0-0.3,0-0.6-0.1-0.8C40.3,14.2,40.3,14,40.2,13.7z"/>
	<path class="st0" d="M46.2,7.5c0.4,0,0.7,0.1,0.8,0.3c0.2,0.2,0.3,0.5,0.4,0.9c0.1,0.4,0.1,0.9,0.1,1.4c0.2,0,0.4,0.1,0.6,0.1
		c0.2,0,0.5,0,0.8,0c0.5,0,0.9-0.1,1.2-0.4c0.3-0.3,0.5-0.7,0.5-1.3c0-0.5-0.1-1-0.3-1.5C50,6.7,49.7,6.3,49.3,6
		C49,5.6,48.5,5.4,48,5.2c-0.5-0.2-1.1-0.3-1.7-0.3c-0.6,0-1.2,0.1-1.8,0.3c-0.6,0.2-1.1,0.6-1.6,1c-0.5,0.5-0.9,1.1-1.1,1.8
		c-0.3,0.7-0.4,1.6-0.4,2.7c0,0.9,0.1,1.7,0.3,2.4c0.2,0.7,0.5,1.3,0.9,1.8c0.4,0.5,0.9,0.9,1.5,1.2c0.6,0.3,1.3,0.4,2.1,0.4
		c0.8,0,1.6-0.2,2.4-0.5c0.8-0.3,1.4-0.7,1.9-1.2c-0.1-0.3-0.2-0.7-0.5-1.1c-0.3-0.4-0.5-0.7-0.8-0.8c-0.3,0.2-0.7,0.5-1.1,0.6
		c-0.4,0.2-0.8,0.3-1.3,0.3c-0.6,0-1.1-0.2-1.4-0.7c-0.3-0.5-0.5-1.3-0.5-2.4c0-1.2,0.1-2,0.3-2.5C45.3,7.8,45.7,7.5,46.2,7.5z"/>
	<path class="st0" d="M33.5,13.7h-0.6c-0.6,0-1-0.3-1-1V2.1c0-0.8-0.1-1.3-0.4-1.6c-0.3-0.3-0.8-0.5-1.4-0.5h-1.3l-0.2,0.2v13.1
		c0,1,0.2,1.8,0.6,2.3c0.4,0.5,1.1,0.7,2.1,0.7c0.4,0,0.8,0,1.3-0.1c0.4,0,0.8-0.1,1.1-0.1c0-0.1,0.1-0.2,0.1-0.4c0-0.1,0-0.3,0-0.4
		c0-0.3,0-0.6-0.1-0.8C33.7,14.2,33.6,14,33.5,13.7z"/>
	<path class="st0" d="M59.5,5.7c-0.8-0.5-1.7-0.7-2.8-0.7c-1.1,0-2,0.2-2.8,0.7c-0.8,0.5-1.3,1.2-1.7,2c-0.4,0.9-0.6,1.9-0.6,3.1
		c0,1.2,0.2,2.2,0.6,3.1c0.4,0.9,0.9,1.6,1.7,2s1.7,0.7,2.8,0.7c1.1,0,2-0.2,2.8-0.7c0.8-0.5,1.3-1.2,1.7-2c0.4-0.9,0.6-1.9,0.6-3.1
		c0-1.2-0.2-2.2-0.6-3.1C60.8,6.8,60.2,6.2,59.5,5.7z M58.1,12.4c-0.1,0.5-0.2,0.9-0.4,1.2c-0.2,0.3-0.6,0.4-1,0.4
		c-0.4,0-0.8-0.1-1-0.4c-0.2-0.3-0.4-0.7-0.4-1.2c-0.1-0.5-0.1-1-0.1-1.6c0-0.6,0-1.2,0.1-1.6c0.1-0.5,0.2-0.9,0.4-1.2
		c0.2-0.3,0.6-0.4,1-0.4c0.5,0,0.8,0.1,1,0.4c0.2,0.3,0.4,0.7,0.4,1.2c0.1,0.5,0.1,1,0.1,1.6C58.2,11.4,58.2,11.9,58.1,12.4z"/>
	<path class="st0" d="M102.9,7.5c0.4,0,0.7,0.1,0.8,0.3c0.2,0.2,0.3,0.5,0.4,0.9c0.1,0.4,0.1,0.9,0.1,1.4c0.2,0,0.4,0.1,0.6,0.1
		c0.2,0,0.5,0,0.8,0c0.5,0,0.9-0.1,1.2-0.4c0.3-0.3,0.5-0.7,0.5-1.3c0-0.5-0.1-1-0.3-1.5c-0.2-0.4-0.5-0.8-0.9-1.2
		c-0.4-0.3-0.8-0.6-1.4-0.7c-0.5-0.2-1.1-0.3-1.7-0.3c-0.6,0-1.2,0.1-1.8,0.3c-0.6,0.2-1.1,0.6-1.6,1c-0.5,0.5-0.9,1.1-1.1,1.8
		c-0.3,0.7-0.4,1.6-0.4,2.7c0,0.9,0.1,1.7,0.3,2.4c0.2,0.7,0.5,1.3,0.9,1.8c0.4,0.5,0.9,0.9,1.5,1.2c0.6,0.3,1.3,0.4,2.1,0.4
		c0.8,0,1.6-0.2,2.4-0.5c0.8-0.3,1.4-0.7,1.9-1.2c-0.1-0.3-0.2-0.7-0.5-1.1c-0.3-0.4-0.5-0.7-0.8-0.8c-0.3,0.2-0.7,0.5-1.1,0.6
		c-0.4,0.2-0.8,0.3-1.3,0.3c-0.6,0-1.1-0.2-1.4-0.7c-0.3-0.5-0.5-1.3-0.5-2.4c0-1.2,0.1-2,0.3-2.5C102.1,7.8,102.4,7.5,102.9,7.5z"
		/>
	<path class="st0" d="M115.6,7.7c0.1-0.4,0.2-0.8,0.2-1.2c0-0.4-0.1-0.8-0.2-1.2l-2.6,0V2.1L112.8,2h-1.3c-0.7,0-1.2,0.2-1.4,0.5
		c-0.3,0.3-0.4,0.8-0.4,1.6v1.2l-1.7,0c-0.1,0.4-0.1,0.8-0.1,1.2c0,0.4,0,0.9,0.1,1.2l1.7,0v5.6c0,1,0.2,1.8,0.7,2.3
		c0.5,0.5,1.2,0.7,2.2,0.7c0.4,0,0.9,0,1.5-0.1c0.5,0,1-0.1,1.4-0.1c0-0.1,0.1-0.2,0.1-0.4c0-0.1,0-0.3,0-0.4c0-0.5-0.1-1.1-0.3-1.6
		H114c-0.4,0-0.6-0.1-0.8-0.3c-0.1-0.2-0.2-0.4-0.2-0.8V7.6L115.6,7.7z"/>
	<path class="st0" d="M85.2,13.5V9c0-0.8-0.1-1.4-0.4-2c-0.2-0.6-0.6-1-1-1.4c-0.5-0.3-1-0.5-1.7-0.5c-0.8,0-1.5,0.2-2.1,0.6
		c-0.4,0.2-0.7,0.5-1,0.8C79,6.2,78.9,6,78.7,5.8c-0.3-0.5-0.8-0.7-1.5-0.7h-1.3l-0.2,0.2v11c0.3,0,0.5,0.1,0.8,0.1
		c0.3,0,0.6,0,0.9,0c0.3,0,0.6,0,0.9,0c0.3,0,0.6-0.1,0.8-0.1V8.9c0.3-0.3,0.6-0.4,0.8-0.6c0.3-0.1,0.6-0.2,0.8-0.2
		c0.4,0,0.6,0.1,0.7,0.4c0.1,0.2,0.2,0.6,0.2,1.1v4.7c0,0.7,0.1,1.2,0.4,1.6s0.8,0.5,1.4,0.5c0.4,0,0.8-0.1,1.2-0.2
		c0.4-0.1,0.7-0.3,0.9-0.5c-0.2-0.3-0.3-0.6-0.4-1C85.3,14.3,85.2,13.9,85.2,13.5z"/>
	<path class="st0" d="M94.6,5.6c-0.7-0.4-1.5-0.6-2.5-0.6c-1.2,0-2.1,0.3-2.8,0.8C88.5,6.2,88,7,87.7,7.8c-0.3,0.9-0.5,1.9-0.5,3
		c0,0.7,0.1,1.4,0.2,2.1c0.2,0.7,0.4,1.3,0.8,1.8c0.4,0.5,0.9,1,1.5,1.3c0.6,0.3,1.4,0.5,2.4,0.5c0.8,0,1.6-0.1,2.3-0.3
		c0.8-0.2,1.4-0.5,2-0.9c-0.1-0.3-0.2-0.7-0.3-1.1s-0.4-0.7-0.6-0.9c-0.4,0.2-0.9,0.3-1.4,0.5c-0.5,0.1-1,0.2-1.5,0.2
		c-0.6,0-1-0.1-1.3-0.4c-0.3-0.3-0.5-0.6-0.6-1c0-0.2-0.1-0.4-0.1-0.6h5.7c0.1-0.4,0.2-0.7,0.2-1c0.1-0.3,0.1-0.7,0.1-1.2
		c0-0.9-0.2-1.7-0.5-2.4C95.8,6.5,95.2,6,94.6,5.6z M93.5,9.5h-2.9c0-0.6,0.1-1.1,0.3-1.5c0.2-0.4,0.6-0.7,1.1-0.7
		c0.4,0,0.6,0.1,0.8,0.3c0.2,0.2,0.4,0.4,0.5,0.7c0.1,0.3,0.1,0.6,0.1,0.9V9.5z"/>
	<path class="st0" d="M73.2,13.5V9c0-0.8-0.1-1.4-0.4-2c-0.2-0.6-0.6-1-1-1.4c-0.5-0.3-1-0.5-1.7-0.5c-0.8,0-1.5,0.2-2.1,0.6
		c-0.4,0.2-0.7,0.5-1,0.8c-0.1-0.2-0.2-0.5-0.3-0.7c-0.3-0.5-0.8-0.7-1.5-0.7h-1.3l-0.2,0.2v11c0.3,0,0.5,0.1,0.8,0.1
		c0.3,0,0.6,0,0.9,0c0.3,0,0.6,0,0.9,0c0.3,0,0.6-0.1,0.8-0.1V8.9c0.3-0.3,0.6-0.4,0.8-0.6c0.3-0.1,0.6-0.2,0.8-0.2
		c0.4,0,0.6,0.1,0.7,0.4c0.1,0.2,0.2,0.6,0.2,1.1v4.7c0,0.7,0.1,1.2,0.4,1.6c0.3,0.4,0.8,0.5,1.4,0.5c0.4,0,0.8-0.1,1.2-0.2
		c0.4-0.1,0.7-0.3,0.9-0.5c-0.2-0.3-0.3-0.6-0.4-1C73.3,14.3,73.2,13.9,73.2,13.5z"/>
</g>
</svg>
