<?xml version="1.0" encoding="utf-8"?>
<!-- Generator: Adobe Illustrator 26.3.1, SVG Export Plug-In . SVG Version: 6.00 Build 0)  -->
<svg version="1.1" id="Layer_1" xmlns="http://www.w3.org/2000/svg" xmlns:xlink="http://www.w3.org/1999/xlink" x="0px" y="0px"
	 viewBox="0 0 147.4 16.6" style="enable-background:new 0 0 147.4 16.6;" xml:space="preserve">
<style type="text/css">
	.st0{fill:#000E23;fill-opacity:0.98;}
</style>
<g>
	<path class="st0" d="M23.3,1.5c0-0.7-0.6-1.3-1.3-1.3H0l2.6,2.6H22C22.8,2.8,23.3,2.2,23.3,1.5z"/>
	<path class="st0" d="M26.4,6.3H6l2.6,2.6h17.7c0.7,0,1.3-0.6,1.3-1.3S27.1,6.3,26.4,6.3z"/>
	<path class="st0" d="M26.4,12.3H12.1l2.6,2.6h11.7c0.7,0,1.3-0.6,1.3-1.3S27.1,12.3,26.4,12.3z"/>
	<path class="st0" d="M47.5,6.3h-5L38.4,1c-0.4-0.5-1-0.8-1.7-0.8H25.9c-0.7,0-1.3,0.6-1.3,1.3s0.6,1.3,1.3,1.3h10.6L40.6,8
		c0.4,0.5,1,0.8,1.7,0.8h4.8v3.5h-8.6c-0.7,0-1.3,0.6-1.3,1.3s0.6,1.3,1.3,1.3h9.1c1.2,0,2.2-1,2.2-2.2V8.4
		C49.7,7.2,48.7,6.3,47.5,6.3z"/>
	<circle class="st0" cx="32.4" cy="13.6" r="3"/>
	<path class="st0" d="M146.7,7.3c-0.4-0.8-0.9-1.4-1.6-1.9c-0.7-0.4-1.6-0.7-2.6-0.7c-0.9,0-1.8,0.2-2.5,0.6s-1.2,1-1.6,1.7
		c-0.4,0.7-0.6,1.6-0.7,2.6c0,0.2,0,0.4,0,0.7s0,0.5,0,0.7c0.1,1.5,0.5,2.7,1.4,3.6c0.8,0.9,2,1.3,3.4,1.3c0.7,0,1.4-0.1,1.9-0.3
		c0.6-0.2,1-0.4,1.4-0.7s0.7-0.6,0.9-0.9c0.2-0.3,0.3-0.6,0.3-0.8c0-0.1,0-0.2-0.1-0.3s-0.2-0.1-0.3-0.1h-1c-0.2,0-0.3,0-0.3,0.1
		c-0.1,0-0.2,0.1-0.3,0.3c-0.1,0.1-0.2,0.2-0.4,0.4s-0.5,0.3-0.8,0.5s-0.7,0.2-1.2,0.2c-0.6,0-1.1-0.2-1.5-0.5s-0.7-0.7-1-1.2
		c-0.2-0.5-0.3-1-0.4-1.6v-0.1v-0.1h7.2c0.1,0,0.2,0,0.3-0.1s0.1-0.2,0.1-0.4V9.9C147.3,9.1,147.1,8.1,146.7,7.3z M145.3,9.6h-5.7
		V9.5c0-0.6,0.1-1.2,0.3-1.7s0.5-0.9,1-1.1c0.4-0.3,0.9-0.4,1.5-0.4s1.1,0.1,1.5,0.4s0.8,0.7,1,1.1C145.2,8.4,145.3,8.9,145.3,9.6
		L145.3,9.6z"/>
	<path class="st0" d="M134.3,10.4c-0.5-0.3-1.2-0.5-2.2-0.7c-0.8-0.2-1.5-0.4-1.9-0.5c-0.4-0.2-0.7-0.4-0.9-0.6
		c-0.2-0.2-0.2-0.4-0.2-0.7c0-0.4,0.2-0.8,0.5-1.1c0.3-0.3,0.9-0.4,1.6-0.4c0.5,0,0.9,0.1,1.2,0.2s0.5,0.3,0.7,0.4
		c0.2,0.2,0.4,0.4,0.5,0.5s0.1,0.1,0.2,0.1c0.1,0,0.2,0.1,0.2,0.1h0.9c0.1,0,0.2,0,0.3-0.1s0.1-0.2,0.1-0.4c0-0.2-0.1-0.4-0.3-0.7
		c-0.2-0.3-0.4-0.5-0.7-0.8C134,5.5,133.5,5.2,133,5s-1.1-0.3-1.8-0.3c-0.9,0-1.6,0.2-2.2,0.5c-0.6,0.3-1,0.7-1.3,1.2
		s-0.5,1-0.5,1.5s0.1,0.9,0.3,1.3c0.2,0.4,0.6,0.7,1,1c0.5,0.3,1.1,0.5,2,0.7c0.8,0.2,1.5,0.4,1.9,0.5c0.5,0.2,0.8,0.4,1,0.6
		c0.2,0.2,0.3,0.5,0.3,0.8c0,0.5-0.2,0.9-0.7,1.2s-1,0.4-1.7,0.4c-0.5,0-0.9-0.1-1.2-0.2c-0.3-0.1-0.6-0.3-0.8-0.5s-0.4-0.4-0.6-0.6
		c-0.1-0.1-0.2-0.2-0.2-0.2s-0.1,0-0.2,0h-0.9c-0.1,0-0.2,0-0.3,0.1c-0.1,0.1-0.2,0.2-0.1,0.4c0,0.2,0.1,0.4,0.3,0.7
		c0.2,0.3,0.4,0.6,0.8,0.8c0.3,0.3,0.8,0.5,1.3,0.7s1.2,0.3,2,0.3c1,0,1.8-0.1,2.4-0.4c0.7-0.3,1.2-0.7,1.5-1.2s0.5-1,0.5-1.6
		c0-0.5-0.1-1-0.3-1.4C135.2,11,134.8,10.7,134.3,10.4z"/>
	<path class="st0" d="M62.4,1.3h-10c-0.1,0-0.3,0-0.4,0.1c-0.1,0.1-0.1,0.2-0.1,0.4v0.9c0,0.1,0,0.3,0.1,0.4
		c0.1,0.1,0.2,0.1,0.4,0.1h4v12.2c0,0.1,0,0.3,0.1,0.4c0.1,0.1,0.2,0.1,0.4,0.1H58c0.2,0,0.3,0,0.4-0.1c0.1-0.1,0.1-0.2,0.1-0.4V3.1
		h4c0.2,0,0.3,0,0.4-0.1C63,2.9,63,2.8,63,2.6V1.8c0-0.2,0-0.3-0.1-0.4C62.7,1.3,62.6,1.3,62.4,1.3z"/>
	<path class="st0" d="M86,7.2c0.5-0.5,1.2-0.8,2-0.8c0.6,0,1.2,0.1,1.6,0.4s0.8,0.8,1,1.4c0.1,0.2,0.1,0.3,0.2,0.3
		c0.1,0.1,0.2,0.1,0.3,0.1h1c0.1,0,0.3,0,0.4-0.1s0.1-0.2,0.1-0.3c0-0.4-0.1-0.7-0.3-1.1c-0.2-0.4-0.5-0.8-0.8-1.1
		c-0.4-0.3-0.9-0.6-1.4-0.9c-0.6-0.2-1.3-0.3-2.1-0.3c-1,0-1.8,0.2-2.6,0.6c-0.7,0.4-1.3,0.9-1.6,1.6c-0.4,0.7-0.6,1.6-0.6,2.6
		c0,0.2,0,0.5,0,0.8s0,0.6,0,0.8c0,1,0.2,1.9,0.6,2.6s0.9,1.3,1.6,1.6C86.2,15.8,87,16,88,16c0.6,0,1.2-0.1,1.7-0.2
		c0.5-0.2,0.9-0.3,1.3-0.6c0.4-0.2,0.7-0.5,0.9-0.8c0.2-0.3,0.4-0.6,0.5-0.9c0.1-0.3,0.2-0.6,0.2-0.9c0-0.1,0-0.2-0.1-0.3
		s-0.2-0.1-0.4-0.1h-1c-0.1,0-0.2,0-0.3,0.1c-0.1,0.1-0.1,0.2-0.2,0.3c-0.2,0.7-0.6,1.2-1,1.4c-0.4,0.3-1,0.4-1.6,0.4
		c-0.8,0-1.5-0.2-2-0.7s-0.8-1.3-0.8-2.5c0-0.5,0-1,0-1.5C85.2,8.5,85.5,7.7,86,7.2z"/>
	<path class="st0" d="M119.7,5h-0.9c-0.2,0-0.3,0-0.4,0.1s-0.1,0.2-0.1,0.2l-2.3,7.8l-2.5-7.7c0-0.1-0.1-0.2-0.2-0.3
		S113.1,5,112.9,5h-0.7c-0.2,0-0.3,0-0.4,0.1s-0.1,0.2-0.2,0.3l-2.5,7.7l-2.3-7.8c0-0.1-0.1-0.1-0.2-0.2c0-0.1-0.1-0.1-0.3-0.1h-0.9
		c-0.1,0-0.2,0-0.3,0.1C105,5.2,105,5.3,105,5.4s0,0.1,0,0.2l2.9,9.6c0.1,0.2,0.2,0.3,0.2,0.4c0.1,0.1,0.2,0.1,0.4,0.1h0.8
		c0.2,0,0.3,0,0.5-0.1c0.1-0.1,0.2-0.2,0.2-0.4l2.4-7.4l2.4,7.4c0,0.2,0.1,0.3,0.2,0.4c0.1,0.1,0.3,0.1,0.5,0.1h0.8
		c0.2,0,0.3,0,0.4-0.1s0.2-0.2,0.2-0.4l2.9-9.6c0-0.1,0-0.1,0-0.2s0-0.2-0.1-0.3C119.9,5,119.8,5,119.7,5z"/>
	<path class="st0" d="M98.4,9.8l4.8-4c0.1-0.1,0.2-0.1,0.2-0.2s0.1-0.1,0.1-0.2s0-0.2-0.1-0.3S103.2,5,103.1,5H102
		c-0.2,0-0.4,0-0.5,0.1c-0.1,0-0.2,0.1-0.4,0.3L97,8.7V1.5c0-0.1,0-0.2-0.1-0.3C96.8,1.1,96.7,1,96.6,1h-1c-0.1,0-0.3,0-0.4,0.1
		s-0.1,0.2-0.1,0.3v13.8c0,0.1,0,0.3,0.1,0.4c0.1,0.1,0.2,0.1,0.4,0.1h1c0.1,0,0.2,0,0.3-0.1c0.1-0.1,0.1-0.2,0.1-0.4V11l4.6,4.4
		c0.2,0.1,0.3,0.2,0.4,0.3c0.1,0,0.2,0.1,0.5,0.1h1.1c0.1,0,0.2,0,0.3-0.1s0.1-0.2,0.1-0.3s-0.1-0.2-0.2-0.4L98.4,9.8z"/>
	<path class="st0" d="M123.9,5h-1c-0.1,0-0.3,0-0.4,0.1s-0.1,0.2-0.1,0.3v9.8c0,0.1,0,0.3,0.1,0.4c0.1,0.1,0.2,0.1,0.4,0.1h1
		c0.1,0,0.2,0,0.3-0.1c0.1-0.1,0.1-0.2,0.1-0.4V5.5c0-0.1,0-0.2-0.1-0.3C124.1,5,124,5,123.9,5z"/>
	<path class="st0" d="M68.9,5h-0.8c-0.7,0-1.3,0.1-1.7,0.4c-0.5,0.2-0.9,0.6-1.1,1.1v-1c0-0.1,0-0.3-0.1-0.4C65,5,64.9,5,64.7,5h-1
		c-0.1,0-0.3,0-0.4,0.1c-0.1,0.1-0.1,0.2-0.1,0.4v9.8c0,0.1,0,0.3,0.1,0.4c0.1,0.1,0.2,0.1,0.4,0.1h1c0.1,0,0.3,0,0.4-0.1
		s0.1-0.2,0.1-0.4V9.2c0-0.7,0.2-1.3,0.6-1.8c0.4-0.4,1-0.7,1.8-0.7h1.2c0.1,0,0.2,0,0.3-0.1c0.1-0.1,0.1-0.2,0.1-0.3V5.5
		c0-0.1,0-0.2-0.1-0.3C69.2,5,69.1,5,68.9,5z"/>
	<path class="st0" d="M124,0.9h-1.3c-0.1,0-0.3,0-0.4,0.1s-0.1,0.2-0.1,0.3v1.1c0,0.1,0,0.3,0.1,0.4c0.1,0.1,0.2,0.1,0.4,0.1h1.3
		c0.1,0,0.2,0,0.3-0.1c0.1-0.1,0.1-0.2,0.1-0.4v-1c0-0.1,0-0.2-0.1-0.3C124.3,0.9,124.2,0.9,124,0.9z"/>
	<path class="st0" d="M80.1,5h-1c-0.1,0-0.3,0-0.4,0.1s-0.1,0.2-0.1,0.3v5.7c0,1-0.3,1.7-0.8,2.3c-0.5,0.5-1.2,0.8-2.1,0.8
		c-1.8,0-2.7-1-2.7-3.1V5.5c0-0.1,0-0.2-0.1-0.3C72.8,5,72.7,5,72.6,5h-1c-0.1,0-0.3,0-0.4,0.1s-0.1,0.2-0.1,0.3v5.8
		c0,0.9,0.2,1.7,0.5,2.4s0.8,1.3,1.4,1.7s1.4,0.6,2.3,0.6s1.6-0.1,2.1-0.4c0.5-0.3,1-0.7,1.4-1.2v0.9c0,0.1,0,0.3,0.1,0.4
		c0.1,0.1,0.2,0.1,0.4,0.1h1c0.2,0,0.3,0,0.4-0.1s0.1-0.2,0.1-0.4V5.5c0-0.1,0-0.2-0.1-0.3C80.4,5,80.2,5,80.1,5z"/>
</g>
</svg>
