<?xml version="1.0" encoding="utf-8"?>
<!-- Generator: Adobe Illustrator 26.3.1, SVG Export Plug-In . SVG Version: 6.00 Build 0)  -->
<svg version="1.1" id="Layer_1" xmlns="http://www.w3.org/2000/svg" xmlns:xlink="http://www.w3.org/1999/xlink" x="0px" y="0px"
	 viewBox="0 0 137 30" style="enable-background:new 0 0 137 30;" xml:space="preserve">
<style type="text/css">
	.st0{clip-path:url(#SVGID_00000068644699574425392250000012436870617661196698_);}
	.st1{fill:#FFFFFF;filter:url(#Adobe_OpacityMaskFilter);}
	.st2{mask:url(#mask0_6959_10235_00000043454802245116894780000001284838707311069116_);}
	.st3{fill:#FFFFFF;filter:url(#Adobe_OpacityMaskFilter_00000075859405866790659940000009484104247387728020_);}
	.st4{mask:url(#mask1_6959_10235_00000065042492056137276490000011931125682055806349_);}
	.st5{fill:#000E23;}
</style>
<g>
	<g>
		<g>
			<defs>
				<rect id="SVGID_1_" width="137.1" height="30"/>
			</defs>
			<clipPath id="SVGID_00000090290050027253385750000008083680326309808545_">
				<use xlink:href="#SVGID_1_"  style="overflow:visible;"/>
			</clipPath>
			<g style="clip-path:url(#SVGID_00000090290050027253385750000008083680326309808545_);">
				<defs>
					<filter id="Adobe_OpacityMaskFilter" filterUnits="userSpaceOnUse" x="0" y="2.9" width="131.8" height="25.8">
						<feColorMatrix  type="matrix" values="1 0 0 0 0  0 1 0 0 0  0 0 1 0 0  0 0 0 1 0"/>
					</filter>
				</defs>
				
					<mask maskUnits="userSpaceOnUse" x="0" y="2.9" width="131.8" height="25.8" id="mask0_6959_10235_00000043454802245116894780000001284838707311069116_">
					<path class="st1" d="M137.1,0H0v30h137.1V0z"/>
				</mask>
				<g class="st2">
					<defs>
						
							<filter id="Adobe_OpacityMaskFilter_00000109710432245754397360000017623571800488437940_" filterUnits="userSpaceOnUse" x="26.4" y="2.9" width="105.4" height="25.8">
							<feColorMatrix  type="matrix" values="1 0 0 0 0  0 1 0 0 0  0 0 1 0 0  0 0 0 1 0"/>
						</filter>
					</defs>
					
						<mask maskUnits="userSpaceOnUse" x="26.4" y="2.9" width="105.4" height="25.8" id="mask1_6959_10235_00000065042492056137276490000011931125682055806349_">
						<path style="fill:#FFFFFF;filter:url(#Adobe_OpacityMaskFilter_00000109710432245754397360000017623571800488437940_);" d="
							M131.8,0H0v28.6h131.8V0z"/>
					</mask>
					<g class="st4">
						<path class="st5" d="M30.6,10.8c0.4-0.6,1-1.1,1.7-1.5c0.7-0.4,1.6-0.6,2.6-0.6C36,8.7,37,9,37.9,9.6c0.9,0.6,1.7,1.4,2.2,2.4
							c0.5,1,0.8,2.3,0.8,3.7c0,1.4-0.3,2.6-0.8,3.7c-0.5,1-1.3,1.9-2.2,2.4c-0.9,0.6-2,0.8-3.1,0.8c-1,0-1.8-0.2-2.6-0.6
							c-0.7-0.4-1.3-0.9-1.7-1.5v8.1h-4.2V8.9h4.2V10.8z M36.6,15.7c0-1-0.3-1.8-0.9-2.4c-0.6-0.6-1.3-0.9-2.2-0.9
							c-0.8,0-1.6,0.3-2.2,0.9c-0.6,0.6-0.9,1.4-0.9,2.4c0,1,0.3,1.8,0.9,2.4c0.6,0.6,1.3,0.9,2.2,0.9s1.6-0.3,2.2-0.9
							C36.3,17.5,36.6,16.7,36.6,15.7z"/>
						<path class="st5" d="M47.4,8.9v13.5h-4.2V8.9H47.4z"/>
						<path class="st5" d="M58.6,22.4L56,18.7l-2.2,3.8h-4.6l4.6-6.9l-4.7-6.6h4.8l2.6,3.7l2.2-3.7h4.6l-4.6,6.8l4.8,6.7H58.6z"/>
						<path class="st5" d="M79.1,8.9l-9.1,19.7h-4.6l3.6-6.7l-5.6-13h4.7l3.2,8.4l3.2-8.4H79.1z"/>
						<path class="st5" d="M84.9,3.1v19.4h-4.2V3.1H84.9z"/>
						<path class="st5" d="M101,15.5c0,0.4,0,0.8-0.1,1.2h-9.6c0.1,0.8,0.3,1.5,0.8,1.9c0.5,0.4,1.1,0.7,1.8,0.7
							c1.1,0,1.8-0.4,2.2-1.3h4.5c-0.2,0.9-0.7,1.7-1.3,2.4c-0.6,0.7-1.3,1.3-2.3,1.7c-0.9,0.4-1.9,0.6-3,0.6
							c-1.4,0-2.6-0.3-3.6-0.8c-1.1-0.6-1.9-1.4-2.5-2.4c-0.6-1-0.9-2.3-0.9-3.7s0.3-2.6,0.9-3.7c0.6-1,1.4-1.9,2.5-2.4
							c1.1-0.6,2.3-0.8,3.6-0.8c1.3,0,2.5,0.3,3.6,0.8c1,0.5,1.8,1.3,2.4,2.3C100.7,12.9,101,14.1,101,15.5z M96.7,14.4
							c0-0.7-0.2-1.3-0.7-1.7c-0.5-0.4-1.1-0.6-1.9-0.6c-0.7,0-1.3,0.2-1.8,0.6c-0.5,0.4-0.8,1-0.9,1.7H96.7z"/>
						<path class="st5" d="M109.4,15.7c0-1.4,0.3-2.6,0.8-3.7c0.5-1,1.3-1.9,2.2-2.4c0.9-0.6,2-0.8,3.1-0.8c1,0,1.8,0.2,2.6,0.6
							c0.7,0.4,1.3,0.9,1.7,1.5V8.9h4.2v13.5h-4.2v-1.9c-0.4,0.6-1,1.1-1.7,1.5c-0.7,0.4-1.6,0.6-2.6,0.6c-1.1,0-2.1-0.3-3.1-0.8
							c-0.9-0.6-1.7-1.4-2.2-2.4C109.6,18.3,109.4,17,109.4,15.7z M119.7,15.7c0-1-0.3-1.8-0.9-2.4c-0.6-0.6-1.3-0.9-2.1-0.9
							s-1.6,0.3-2.2,0.9c-0.6,0.6-0.9,1.4-0.9,2.4s0.3,1.9,0.9,2.5c0.6,0.6,1.3,0.9,2.2,0.9s1.6-0.3,2.1-0.9
							C119.4,17.5,119.7,16.7,119.7,15.7z"/>
						<path class="st5" d="M131.3,8.9v13.5H127V8.9H131.3z"/>
						<path class="st5" d="M45.3,7.9c1.4,0,2.6-1.1,2.6-2.5c0-1.4-1.2-2.5-2.6-2.5c-1.4,0-2.6,1.1-2.6,2.5
							C42.7,6.8,43.8,7.9,45.3,7.9z"/>
						<path class="st5" d="M105.3,22.5c1.4,0,2.6-1.1,2.6-2.5c0-1.4-1.2-2.5-2.6-2.5c-1.4,0-2.6,1.1-2.6,2.5
							C102.7,21.4,103.9,22.5,105.3,22.5z"/>
						<path class="st5" d="M129.2,7.9c1.4,0,2.6-1.1,2.6-2.5c0-1.4-1.2-2.5-2.6-2.5c-1.4,0-2.6,1.1-2.6,2.5
							C126.6,6.8,127.8,7.9,129.2,7.9z"/>
					</g>
					<path class="st5" d="M21.3,15.9c0,5.8-4.8,10.5-10.7,10.5C4.8,26.4,0,21.7,0,15.9C0,10.1,4.8,5.5,10.7,5.5
						C16.5,5.5,21.3,10.1,21.3,15.9z M2.7,15.9c0,4.3,3.6,7.9,8,7.9c4.4,0,8-3.5,8-7.9c0-4.3-3.6-7.9-8-7.9
						C6.2,8.1,2.7,11.6,2.7,15.9z"/>
					<path class="st5" d="M7,14.9c1.5,0,2.6-1.2,2.6-2.6c0-0.5-0.2-1-0.4-1.4c0.5-0.1,0.9-0.2,1.4-0.2c2.9,0,5.3,2.3,5.3,5.2
						c0,2.9-2.4,5.2-5.3,5.2c-2.9,0-5.3-2.3-5.3-5.2c0-0.5,0.1-1,0.2-1.4C6,14.8,6.5,14.9,7,14.9z"/>
				</g>
			</g>
		</g>
	</g>
</g>
</svg>
