<svg xmlns="http://www.w3.org/2000/svg" width="107.8" height="15.251" viewBox="0 0 107.8 15.251">
  <g id="logo-truckwise-dark" transform="translate(-8828 -2436.398)">
    <rect id="Rectangle_13" data-name="Rectangle 13" width="107.8" height="15.2" transform="translate(8828 2436.449)" fill="#fff" opacity="0"/>
    <g id="Group_14" data-name="Group 14" transform="translate(8828 2436.449)">
      <g id="Group_15" data-name="Group 15" transform="translate(0.576 -0.051)">
        <path id="Path_54" data-name="Path 54" d="M10.862,7.831A3.354,3.354,0,1,1,7.508,4.477V.323a7.508,7.508,0,1,0,7.508,7.508Z" transform="translate(0 -0.268)" fill="#3266b1"/>
        <path id="Path_55" data-name="Path 55" d="M47.591,0A7.516,7.516,0,0,0,39.947,7.37l4.153.076a3.358,3.358,0,0,1,3.353-3.293h.062a3.354,3.354,0,1,1-.123,6.707l-.076,4.153h.14A7.508,7.508,0,0,0,47.591,0" transform="translate(-33.135 0)" fill="#bb1521"/>
      </g>
      <path id="Path_56" data-name="Path 56" d="M5.22-1.791a.323.323,0,0,1,.114.021.31.31,0,0,1,.109.074l.637.67A2.642,2.642,0,0,1,5.033-.2,3.665,3.665,0,0,1,3.544.076,3.547,3.547,0,0,1,2.13-.192,3.058,3.058,0,0,1,1.071-.933,3.263,3.263,0,0,1,.4-2.054,4.139,4.139,0,0,1,.171-3.463,3.713,3.713,0,0,1,.437-4.885,3.318,3.318,0,0,1,1.18-6a3.353,3.353,0,0,1,1.142-.732A3.981,3.981,0,0,1,3.791-7a3.739,3.739,0,0,1,.734.069,3.587,3.587,0,0,1,.644.19,3.028,3.028,0,0,1,.551.29,2.656,2.656,0,0,1,.447.373l-.542.727a.689.689,0,0,1-.123.121.321.321,0,0,1-.2.055.356.356,0,0,1-.161-.038A1.785,1.785,0,0,1,4.978-5.3L4.79-5.422a1.44,1.44,0,0,0-.242-.119,2,2,0,0,0-.328-.093,2.237,2.237,0,0,0-.439-.038,2.009,2.009,0,0,0-.8.154,1.75,1.75,0,0,0-.62.442,2.049,2.049,0,0,0-.4.7,2.73,2.73,0,0,0-.145.917,2.85,2.85,0,0,0,.145.945,2.076,2.076,0,0,0,.394.7,1.673,1.673,0,0,0,.582.43,1.74,1.74,0,0,0,.712.147,3.411,3.411,0,0,0,.4-.021,1.647,1.647,0,0,0,.335-.074,1.549,1.549,0,0,0,.295-.135,1.966,1.966,0,0,0,.283-.207.562.562,0,0,1,.124-.078A.324.324,0,0,1,5.22-1.791Zm8.887-1.672a3.719,3.719,0,0,1-.259,1.4,3.366,3.366,0,0,1-.729,1.123,3.344,3.344,0,0,1-1.133.748,3.853,3.853,0,0,1-1.47.271A3.871,3.871,0,0,1,9.044-.195,3.364,3.364,0,0,1,7.906-.943a3.348,3.348,0,0,1-.732-1.123,3.719,3.719,0,0,1-.259-1.4,3.719,3.719,0,0,1,.259-1.4A3.322,3.322,0,0,1,7.906-5.98a3.382,3.382,0,0,1,1.138-.746A3.871,3.871,0,0,1,10.517-7a3.823,3.823,0,0,1,1.47.273,3.391,3.391,0,0,1,1.133.748,3.34,3.34,0,0,1,.729,1.121A3.707,3.707,0,0,1,14.108-3.463Zm-1.644,0a2.992,2.992,0,0,0-.133-.924,1.957,1.957,0,0,0-.382-.7,1.649,1.649,0,0,0-.61-.437,2.1,2.1,0,0,0-.822-.152,2.132,2.132,0,0,0-.829.152,1.645,1.645,0,0,0-.613.437,1.957,1.957,0,0,0-.382.7,2.992,2.992,0,0,0-.133.924,3.009,3.009,0,0,0,.133.929,1.957,1.957,0,0,0,.382.7,1.622,1.622,0,0,0,.613.435,2.161,2.161,0,0,0,.829.15,2.13,2.13,0,0,0,.822-.15,1.626,1.626,0,0,0,.61-.435,1.957,1.957,0,0,0,.382-.7A3.009,3.009,0,0,0,12.464-3.463Zm6.745-2.052a.6.6,0,0,1-.15.171.335.335,0,0,1-.2.057.494.494,0,0,1-.235-.069l-.285-.154a2.365,2.365,0,0,0-.363-.154,1.454,1.454,0,0,0-.465-.069,1,1,0,0,0-.672.192.655.655,0,0,0-.221.52.479.479,0,0,0,.133.347,1.147,1.147,0,0,0,.349.238,3.742,3.742,0,0,0,.494.183q.278.083.568.185a5.076,5.076,0,0,1,.568.24,1.893,1.893,0,0,1,.494.352,1.641,1.641,0,0,1,.349.52,1.849,1.849,0,0,1,.133.739,2.407,2.407,0,0,1-.166.9,2.1,2.1,0,0,1-.482.729,2.238,2.238,0,0,1-.779.489,2.914,2.914,0,0,1-1.052.178A3.372,3.372,0,0,1,16.566.01a3.907,3.907,0,0,1-.648-.188,3.76,3.76,0,0,1-.589-.287,2.5,2.5,0,0,1-.48-.371l.475-.75a.387.387,0,0,1,.147-.138.417.417,0,0,1,.2-.052.541.541,0,0,1,.287.09q.145.09.328.2a2.667,2.667,0,0,0,.42.2,1.576,1.576,0,0,0,.561.09,1.067,1.067,0,0,0,.679-.192A.732.732,0,0,0,18.192-2a.577.577,0,0,0-.133-.394,1.028,1.028,0,0,0-.349-.252,3.217,3.217,0,0,0-.492-.176q-.276-.076-.565-.169a4.136,4.136,0,0,1-.565-.228,1.784,1.784,0,0,1-.492-.356,1.667,1.667,0,0,1-.349-.551,2.188,2.188,0,0,1-.133-.815,1.933,1.933,0,0,1,.157-.76,1.962,1.962,0,0,1,.461-.66,2.266,2.266,0,0,1,.746-.463A2.754,2.754,0,0,1,17.49-7a3.794,3.794,0,0,1,.62.05,3.259,3.259,0,0,1,.572.147,3.143,3.143,0,0,1,.506.233,2.333,2.333,0,0,1,.42.306Zm5.306,2.35q.1.181.183.376t.169.4q.081-.209.171-.407t.185-.383L27-6.678a.581.581,0,0,1,.1-.14.319.319,0,0,1,.112-.074.388.388,0,0,1,.14-.024h1.408V0H27.341V-3.981q0-.29.028-.627L25.536-1.05a.6.6,0,0,1-.23.252.637.637,0,0,1-.33.086h-.219a.637.637,0,0,1-.33-.086.6.6,0,0,1-.23-.252L22.353-4.612q.019.166.028.33t.01.3V0H20.976V-6.916h1.408a.388.388,0,0,1,.14.024.319.319,0,0,1,.112.074.581.581,0,0,1,.1.14ZM32.129,0H30.514V-6.921h1.615Zm6.408-1.791a.323.323,0,0,1,.114.021.31.31,0,0,1,.109.074l.637.67A2.642,2.642,0,0,1,38.349-.2,3.665,3.665,0,0,1,36.86.076a3.547,3.547,0,0,1-1.413-.268,3.058,3.058,0,0,1-1.059-.741,3.263,3.263,0,0,1-.667-1.121,4.139,4.139,0,0,1-.233-1.408,3.713,3.713,0,0,1,.266-1.423A3.318,3.318,0,0,1,34.5-6a3.353,3.353,0,0,1,1.142-.732A3.981,3.981,0,0,1,37.107-7a3.739,3.739,0,0,1,.734.069,3.587,3.587,0,0,1,.644.19,3.028,3.028,0,0,1,.551.29,2.656,2.656,0,0,1,.446.373l-.542.727a.689.689,0,0,1-.124.121.321.321,0,0,1-.2.055.356.356,0,0,1-.161-.038,1.785,1.785,0,0,1-.161-.093l-.188-.119a1.44,1.44,0,0,0-.242-.119,2,2,0,0,0-.328-.093,2.237,2.237,0,0,0-.439-.038,2.009,2.009,0,0,0-.8.154,1.75,1.75,0,0,0-.62.442,2.049,2.049,0,0,0-.4.7,2.73,2.73,0,0,0-.145.917,2.85,2.85,0,0,0,.145.945,2.076,2.076,0,0,0,.394.7,1.673,1.673,0,0,0,.582.43,1.74,1.74,0,0,0,.712.147,3.411,3.411,0,0,0,.4-.021A1.647,1.647,0,0,0,37.7-1.34a1.549,1.549,0,0,0,.295-.135,1.966,1.966,0,0,0,.283-.207A.562.562,0,0,1,38.4-1.76.324.324,0,0,1,38.537-1.791Zm8.222-3.724a.6.6,0,0,1-.15.171.335.335,0,0,1-.2.057.494.494,0,0,1-.235-.069l-.285-.154a2.365,2.365,0,0,0-.363-.154,1.454,1.454,0,0,0-.465-.069,1,1,0,0,0-.672.192.655.655,0,0,0-.221.52.479.479,0,0,0,.133.347,1.147,1.147,0,0,0,.349.238,3.742,3.742,0,0,0,.494.183q.278.083.568.185a5.076,5.076,0,0,1,.568.24,1.893,1.893,0,0,1,.494.352,1.641,1.641,0,0,1,.349.52,1.849,1.849,0,0,1,.133.739,2.407,2.407,0,0,1-.166.9,2.1,2.1,0,0,1-.482.729,2.238,2.238,0,0,1-.779.489,2.914,2.914,0,0,1-1.052.178A3.372,3.372,0,0,1,44.116.01a3.907,3.907,0,0,1-.648-.188,3.76,3.76,0,0,1-.589-.287,2.5,2.5,0,0,1-.48-.371l.475-.75a.387.387,0,0,1,.147-.138.417.417,0,0,1,.2-.052.541.541,0,0,1,.287.09q.145.09.328.2a2.667,2.667,0,0,0,.42.2,1.576,1.576,0,0,0,.56.09,1.067,1.067,0,0,0,.679-.192A.732.732,0,0,0,45.743-2a.577.577,0,0,0-.133-.394,1.027,1.027,0,0,0-.349-.252,3.217,3.217,0,0,0-.492-.176Q44.493-2.9,44.2-2.99a4.135,4.135,0,0,1-.565-.228,1.784,1.784,0,0,1-.492-.356,1.667,1.667,0,0,1-.349-.551,2.188,2.188,0,0,1-.133-.815,1.933,1.933,0,0,1,.157-.76,1.962,1.962,0,0,1,.461-.66,2.266,2.266,0,0,1,.746-.463A2.754,2.754,0,0,1,45.04-7a3.794,3.794,0,0,1,.62.05,3.259,3.259,0,0,1,.572.147,3.143,3.143,0,0,1,.506.233,2.332,2.332,0,0,1,.42.306Zm3.372,3.2V0H48.526V-6.921h2.442a4.026,4.026,0,0,1,1.256.173,2.411,2.411,0,0,1,.864.477,1.861,1.861,0,0,1,.5.717,2.432,2.432,0,0,1,.161.893,2.626,2.626,0,0,1-.166.95,1.906,1.906,0,0,1-.508.741,2.4,2.4,0,0,1-.867.482,3.973,3.973,0,0,1-1.242.173Zm0-1.211h.836a1.178,1.178,0,0,0,.9-.3,1.188,1.188,0,0,0,.275-.836,1.25,1.25,0,0,0-.071-.432.88.88,0,0,0-.216-.335.972.972,0,0,0-.366-.216,1.618,1.618,0,0,0-.525-.076h-.836Zm11.761.062a3.719,3.719,0,0,1-.259,1.4A3.366,3.366,0,0,1,60.9-.943a3.344,3.344,0,0,1-1.133.748A3.853,3.853,0,0,1,58.3.076a3.871,3.871,0,0,1-1.472-.271,3.364,3.364,0,0,1-1.138-.748,3.348,3.348,0,0,1-.731-1.123,3.719,3.719,0,0,1-.259-1.4,3.719,3.719,0,0,1,.259-1.4,3.322,3.322,0,0,1,.731-1.121,3.382,3.382,0,0,1,1.138-.746A3.871,3.871,0,0,1,58.3-7a3.823,3.823,0,0,1,1.47.273,3.391,3.391,0,0,1,1.133.748,3.34,3.34,0,0,1,.729,1.121A3.707,3.707,0,0,1,61.893-3.463Zm-1.644,0a2.992,2.992,0,0,0-.133-.924,1.957,1.957,0,0,0-.382-.7,1.649,1.649,0,0,0-.61-.437,2.1,2.1,0,0,0-.822-.152,2.132,2.132,0,0,0-.829.152,1.645,1.645,0,0,0-.613.437,1.957,1.957,0,0,0-.382.7,2.992,2.992,0,0,0-.133.924,3.009,3.009,0,0,0,.133.929,1.957,1.957,0,0,0,.382.7,1.622,1.622,0,0,0,.613.435,2.161,2.161,0,0,0,.829.15,2.13,2.13,0,0,0,.822-.15,1.626,1.626,0,0,0,.61-.435,1.957,1.957,0,0,0,.382-.7A3.009,3.009,0,0,0,60.249-3.463Zm4.493.9V0H63.137V-6.921h2.252a4.62,4.62,0,0,1,1.28.154,2.4,2.4,0,0,1,.865.43,1.627,1.627,0,0,1,.487.651,2.156,2.156,0,0,1,.152.817,2.193,2.193,0,0,1-.09.637,1.927,1.927,0,0,1-.268.553,2.077,2.077,0,0,1-.437.454,2.321,2.321,0,0,1-.6.328,1.509,1.509,0,0,1,.3.2,1.187,1.187,0,0,1,.245.29L68.8,0H67.346a.617.617,0,0,1-.58-.3L65.617-2.313a.484.484,0,0,0-.178-.19.6.6,0,0,0-.287-.057Zm0-1.107h.646a1.652,1.652,0,0,0,.558-.083,1.008,1.008,0,0,0,.378-.23.877.877,0,0,0,.214-.344A1.322,1.322,0,0,0,66.6-4.75a.892.892,0,0,0-.3-.713,1.382,1.382,0,0,0-.919-.256h-.646Zm9.633-3.254v1.273H72.428V0H70.823V-5.648H68.875V-6.921Zm5,1.406a.6.6,0,0,1-.15.171.335.335,0,0,1-.2.057.494.494,0,0,1-.235-.069L78.5-5.51a2.365,2.365,0,0,0-.363-.154,1.454,1.454,0,0,0-.465-.069A1,1,0,0,0,77-5.541a.654.654,0,0,0-.221.52.479.479,0,0,0,.133.347,1.147,1.147,0,0,0,.349.238,3.742,3.742,0,0,0,.494.183q.278.083.568.185a5.076,5.076,0,0,1,.568.24,1.893,1.893,0,0,1,.494.352,1.641,1.641,0,0,1,.349.52,1.849,1.849,0,0,1,.133.739,2.407,2.407,0,0,1-.166.9,2.1,2.1,0,0,1-.482.729,2.238,2.238,0,0,1-.779.489,2.914,2.914,0,0,1-1.052.178A3.372,3.372,0,0,1,76.729.01a3.907,3.907,0,0,1-.648-.188,3.759,3.759,0,0,1-.589-.287,2.5,2.5,0,0,1-.48-.371l.475-.75a.387.387,0,0,1,.147-.138.417.417,0,0,1,.2-.052.541.541,0,0,1,.287.09q.145.09.328.2a2.667,2.667,0,0,0,.42.2,1.576,1.576,0,0,0,.561.09,1.067,1.067,0,0,0,.679-.192A.732.732,0,0,0,78.356-2a.577.577,0,0,0-.133-.394,1.027,1.027,0,0,0-.349-.252,3.217,3.217,0,0,0-.492-.176q-.276-.076-.565-.169a4.135,4.135,0,0,1-.565-.228,1.784,1.784,0,0,1-.492-.356,1.667,1.667,0,0,1-.349-.551,2.188,2.188,0,0,1-.133-.815,1.933,1.933,0,0,1,.157-.76,1.962,1.962,0,0,1,.461-.66,2.266,2.266,0,0,1,.746-.463A2.754,2.754,0,0,1,77.653-7a3.794,3.794,0,0,1,.62.05,3.259,3.259,0,0,1,.572.147,3.143,3.143,0,0,1,.506.233,2.333,2.333,0,0,1,.42.306Z" transform="translate(25 11.551)"/>
    </g>
  </g>
</svg>
