<?xml version="1.0" encoding="utf-8"?>
<!-- Generator: Adobe Illustrator 26.3.1, SVG Export Plug-In . SVG Version: 6.00 Build 0)  -->
<svg version="1.1" id="Layer_1" xmlns="http://www.w3.org/2000/svg" xmlns:xlink="http://www.w3.org/1999/xlink" x="0px" y="0px"
	 viewBox="0 0 107.3 16.6" style="enable-background:new 0 0 107.3 16.6;" xml:space="preserve">
<style type="text/css">
	.st0{fill:#A0ADC0;fill-opacity:0.98;}
</style>
<g>
	<path class="st0" d="M13.4,0H2C0.9,0,0,0.9,0,2v11.4c0,1.1,0.9,2,2,2h11.4c1.1,0,2-0.9,2-2V2C15.4,0.9,14.5,0,13.4,0z M10.6,8.8
		l-3.7,2.7c-0.9,0.6-2.1,0-2.1-1.1V5c0-1.1,1.2-1.7,2.1-1.1l3.7,2.7C11.3,7.2,11.3,8.2,10.6,8.8z"/>
	<path class="st0" d="M44.4,1h-0.9c-0.2,0-0.5,0.1-0.6,0.3c-0.2,0.2-0.3,0.4-0.3,0.6v0.3c0,0.2,0.1,0.5,0.3,0.6
		c0.2,0.2,0.4,0.3,0.6,0.3h0.9c0.2,0,0.5-0.1,0.6-0.3c0.2-0.2,0.3-0.4,0.3-0.6V1.9c0-0.2-0.1-0.5-0.3-0.6C44.9,1.1,44.7,1,44.4,1z"
		/>
	<path class="st0" d="M49.8,1h-0.9c-0.2,0-0.5,0.1-0.6,0.3c-0.2,0.2-0.3,0.4-0.3,0.6v10.2c0,0.2,0.1,0.5,0.3,0.6
		c0.2,0.2,0.4,0.3,0.6,0.3h0.9c0.2,0,0.5-0.1,0.6-0.3c0.2-0.2,0.3-0.4,0.3-0.6V1.9c0-0.2-0.1-0.5-0.3-0.6C50.2,1.1,50,1,49.8,1z"/>
	<path class="st0" d="M37.7,8.8c-0.1-0.1-0.1-0.1,0-0.2l2.7-3.2c0.1-0.1,0.1-0.3,0-0.4c-0.1-0.2-0.2-0.2-0.4-0.2H39
		c-0.6,0-1.1,0.2-1.5,0.7l-2,2.4l0,0c0,0,0,0,0,0V1.9c0-0.2-0.1-0.5-0.3-0.6C35,1.1,34.8,1,34.5,1h-0.8c-0.2,0-0.5,0.1-0.6,0.3
		c-0.2,0.2-0.3,0.4-0.3,0.6v10.2c0,0.2,0.1,0.5,0.3,0.6c0.2,0.2,0.4,0.3,0.6,0.3h0.8c0.2,0,0.5-0.1,0.6-0.3c0.2-0.2,0.3-0.4,0.3-0.6
		V9.7c0,0,0,0,0,0s0,0,0,0l2,2.6c0.4,0.5,0.9,0.7,1.5,0.7h1.2c0.2,0,0.3-0.1,0.4-0.2c0.1-0.2,0.1-0.3,0-0.5L37.7,8.8z"/>
	<path class="st0" d="M26.9,5.8c-0.9-0.3-1.3-0.7-1.3-1.4c0-0.8,0.5-1.2,1.5-1.2c0.8,0,1.6,0.2,2.5,0.5c0.2,0.1,0.4,0.1,0.6-0.1
		c0.2-0.1,0.3-0.3,0.3-0.5V2.7c0-0.3-0.1-0.5-0.2-0.8c-0.1-0.2-0.4-0.4-0.6-0.5C28.9,1.3,28,1.2,27,1.2c-1.3,0-2.3,0.3-3,0.9
		c-0.7,0.6-1,1.4-1,2.4c0,0.9,0.3,1.7,0.9,2.3c0.6,0.6,1.6,1.2,2.9,1.6c0.5,0.2,0.9,0.4,1.1,0.6c0.2,0.2,0.3,0.5,0.3,0.9
		c0,0.4-0.1,0.7-0.4,0.9c-0.3,0.2-0.7,0.3-1.3,0.3c-0.8,0-1.6-0.2-2.4-0.6c-0.2-0.1-0.3-0.1-0.5,0c-0.2,0.1-0.3,0.2-0.3,0.4v0.5
		c0,0.3,0.1,0.6,0.2,0.8c0.1,0.2,0.4,0.4,0.6,0.5c0.7,0.3,1.6,0.4,2.5,0.4c2.9,0,4.4-1.2,4.4-3.5c0-1-0.3-1.8-0.9-2.4
		C29.5,6.8,28.4,6.3,26.9,5.8z"/>
	<path class="st0" d="M44.4,4.7h-0.9c-0.2,0-0.5,0.1-0.6,0.3c-0.2,0.2-0.3,0.4-0.3,0.6v6.5c0,0.2,0.1,0.5,0.3,0.6
		c0.2,0.2,0.4,0.3,0.6,0.3h0.9c0.2,0,0.5-0.1,0.6-0.3c0.2-0.2,0.3-0.4,0.3-0.6V5.6c0-0.2-0.1-0.5-0.3-0.6
		C44.9,4.8,44.7,4.7,44.4,4.7z"/>
	<path class="st0" d="M95.9,4.5c-1,0-1.8,0.4-2.5,1.2l0,0c0,0,0,0,0,0l0-0.1c0-0.3-0.1-0.5-0.3-0.6c-0.2-0.2-0.4-0.3-0.6-0.3h-0.7
		c-0.2,0-0.5,0.1-0.6,0.3c-0.2,0.2-0.3,0.4-0.3,0.6v6.5c0,0.2,0.1,0.5,0.3,0.6c0.2,0.2,0.4,0.3,0.6,0.3h0.8c0.2,0,0.5-0.1,0.6-0.3
		c0.2-0.2,0.3-0.4,0.3-0.6V8c0-0.4,0.2-0.7,0.5-1c0.3-0.3,0.7-0.5,1-0.5c0.4,0,0.8,0.1,0.9,0.4c0.2,0.2,0.3,0.7,0.3,1.3v3.9
		c0,0.2,0.1,0.5,0.3,0.6c0.2,0.2,0.4,0.3,0.6,0.3h0.7c0.2,0,0.5-0.1,0.6-0.3c0.2-0.2,0.3-0.4,0.3-0.6v-4c0-1.3-0.2-2.3-0.6-2.8
		C97.5,4.8,96.8,4.5,95.9,4.5z"/>
	<path class="st0" d="M87.4,1h-0.9c-0.2,0-0.5,0.1-0.6,0.3c-0.2,0.2-0.3,0.4-0.3,0.6v0.3c0,0.2,0.1,0.5,0.3,0.6
		C86,3,86.2,3.1,86.5,3.1h0.9c0.2,0,0.5-0.1,0.6-0.3c0.2-0.2,0.3-0.4,0.3-0.6V1.9c0-0.2-0.1-0.5-0.3-0.6C87.8,1.1,87.6,1,87.4,1z"/>
	<path class="st0" d="M87.4,4.7h-0.9c-0.2,0-0.5,0.1-0.6,0.3c-0.2,0.2-0.3,0.4-0.3,0.6v6.5c0,0.2,0.1,0.5,0.3,0.6
		c0.2,0.2,0.4,0.3,0.6,0.3h0.9c0.2,0,0.5-0.1,0.6-0.3c0.2-0.2,0.3-0.4,0.3-0.6V5.6c0-0.2-0.1-0.5-0.3-0.6
		C87.8,4.8,87.6,4.7,87.4,4.7z"/>
	<path class="st0" d="M105.8,11.3c-0.1,0-0.3,0-0.5,0c-0.4,0-0.7-0.1-0.8-0.3c-0.1-0.2-0.2-0.6-0.2-1.3V7c0-0.1,0-0.1,0.1-0.1h1.6
		c0.2,0,0.5-0.1,0.6-0.3c0.2-0.2,0.3-0.4,0.3-0.6c0-0.2-0.1-0.5-0.3-0.6c-0.2-0.2-0.4-0.3-0.6-0.3h-1.6c-0.1,0-0.1,0-0.1-0.1v-2
		c0-0.2-0.1-0.5-0.3-0.6c-0.2-0.2-0.4-0.3-0.6-0.3h-0.8c-0.2,0-0.5,0.1-0.6,0.3c-0.2,0.2-0.3,0.4-0.3,0.6v2c0,0.1,0,0.1-0.1,0.1
		h-0.6c-0.2,0-0.5,0.1-0.6,0.3c-0.2,0.2-0.3,0.4-0.3,0.6c0,0.2,0.1,0.5,0.3,0.6c0.2,0.2,0.4,0.3,0.6,0.3h0.6c0.1,0,0.1,0,0.1,0.1v3
		c0,1.2,0.2,2.1,0.7,2.5c0.4,0.5,1.2,0.7,2.3,0.7c0.4,0,0.8,0,1.2-0.1c0.3,0,0.5-0.1,0.7-0.4c0.2-0.2,0.3-0.4,0.3-0.7V12
		c0-0.2-0.1-0.4-0.3-0.5C106.2,11.3,106,11.2,105.8,11.3z"/>
	<path class="st0" d="M72.1,4.5c-1,0-1.8,0.4-2.5,1.2l0,0c0,0,0,0,0,0V5.6c0-0.3-0.1-0.5-0.3-0.6c-0.2-0.2-0.4-0.3-0.7-0.3H68
		c-0.2,0-0.5,0.1-0.6,0.3c-0.2,0.2-0.3,0.4-0.3,0.6v10.1c0,0.2,0.1,0.5,0.3,0.6c0.2,0.2,0.4,0.3,0.6,0.3h0.8c0.2,0,0.5-0.1,0.6-0.3
		c0.2-0.2,0.3-0.4,0.3-0.6v-3.4c0,0,0,0,0,0c0,0,0,0,0,0c0.7,0.7,1.5,1,2.4,1c1,0,1.7-0.4,2.3-1.2c0.6-0.8,0.9-1.8,0.9-3.2
		c0-1.4-0.3-2.5-0.9-3.2C73.9,4.9,73.1,4.5,72.1,4.5z M72.4,10.7c-0.3,0.4-0.7,0.6-1.2,0.6c-0.4,0-0.8-0.1-1.1-0.4
		c-0.3-0.3-0.5-0.6-0.5-1v-2c0-0.4,0.2-0.7,0.5-1c0.3-0.3,0.7-0.4,1.1-0.4c1.1,0,1.6,0.8,1.6,2.4C72.8,9.7,72.7,10.3,72.4,10.7z"/>
	<path class="st0" d="M61.9,7.8c-0.6-0.1-1-0.4-1-0.8c0-0.2,0.1-0.4,0.3-0.5c0.2-0.1,0.5-0.2,0.9-0.2c0.6,0,1.2,0.1,1.9,0.2
		c0.2,0,0.4,0,0.6-0.1c0.2-0.1,0.3-0.3,0.3-0.5V5.8c0-0.3-0.1-0.5-0.3-0.7c-0.2-0.2-0.4-0.3-0.6-0.4c-0.7-0.1-1.5-0.2-2.2-0.2
		c-1.2,0-2.1,0.2-2.7,0.7c-0.6,0.4-0.9,1.1-0.9,1.8c0,0.7,0.2,1.3,0.7,1.8c0.5,0.4,1.3,0.8,2.5,1c0.4,0.1,0.7,0.2,0.8,0.3
		c0.1,0.1,0.2,0.3,0.2,0.5c0,0.5-0.4,0.7-1.2,0.7c-0.7,0-1.4-0.1-2.1-0.3c-0.2-0.1-0.4,0-0.6,0.1c-0.2,0.1-0.3,0.3-0.3,0.5v0.1
		c0,0.3,0.1,0.5,0.2,0.8c0.2,0.2,0.4,0.3,0.6,0.4c0.7,0.2,1.5,0.2,2.4,0.2c1.1,0,2-0.2,2.6-0.7c0.6-0.4,0.9-1.1,0.9-1.9
		c0-0.8-0.2-1.5-0.7-1.9C64,8.3,63.1,8,61.9,7.8z"/>
	<path class="st0" d="M82.4,4.7c-1.2,0.1-2.1,0.7-2.8,1.6c0,0,0,0,0,0c0,0,0,0,0,0V5.6c0-0.2-0.1-0.5-0.3-0.6
		c-0.2-0.2-0.4-0.3-0.6-0.3h-0.8c-0.2,0-0.5,0.1-0.6,0.3C77.1,5.2,77,5.4,77,5.6v6.5c0,0.2,0.1,0.5,0.3,0.6c0.2,0.2,0.4,0.3,0.6,0.3
		h0.9c0.2,0,0.5-0.1,0.6-0.3c0.2-0.2,0.3-0.4,0.3-0.6V9.5c0-0.8,0.2-1.4,0.7-1.9c0.5-0.5,1.2-0.8,2-0.9c0.3,0,0.5-0.1,0.6-0.3
		c0.2-0.2,0.3-0.4,0.3-0.6V5.6c0-0.3-0.1-0.5-0.3-0.7C82.9,4.8,82.7,4.7,82.4,4.7z"/>
	<path class="st0" d="M55.1,1h-0.9c-0.2,0-0.5,0.1-0.6,0.3c-0.2,0.2-0.3,0.4-0.3,0.6v10.2c0,0.2,0.1,0.5,0.3,0.6
		c0.2,0.2,0.4,0.3,0.6,0.3h0.9c0.2,0,0.5-0.1,0.6-0.3c0.2-0.2,0.3-0.4,0.3-0.6V1.9c0-0.2-0.1-0.5-0.3-0.6C55.6,1.1,55.3,1,55.1,1z"
		/>
</g>
</svg>
