<?xml version="1.0" encoding="utf-8"?>
<!-- Generator: Adobe Illustrator 26.3.1, SVG Export Plug-In . SVG Version: 6.00 Build 0)  -->
<svg version="1.1" id="Layer_1" xmlns="http://www.w3.org/2000/svg" xmlns:xlink="http://www.w3.org/1999/xlink" x="0px" y="0px"
	 viewBox="0 0 53.1 11.8" style="enable-background:new 0 0 53.1 11.8;" xml:space="preserve">
<style type="text/css">
	.st0{fill:#A0ADC0;}
</style>
<g>
	<path class="st0" d="M7.3,1.7C7.3,1,6.7,0.4,6,0.4H1.3C0.6,0.4,0,1,0,1.7c0,0.5,0.3,1,0.8,1.2l0.1,6c0,1.6,1.2,2.8,2.8,2.8
		s2.8-1.2,2.8-2.8v-6C7,2.8,7.3,2.3,7.3,1.7z M6.2,2H5.8C5.6,2,5.3,2.2,5.3,2.5c0,0.2,0.1,0.3,0.2,0.4V9c0,1-0.8,1.9-1.9,1.9
		S1.7,10.1,1.7,9L1.6,3c0.1-0.1,0.2-0.2,0.2-0.3c0-0.3-0.2-0.5-0.5-0.5H1.2C1,2.1,0.9,1.9,0.9,1.8c0-0.2,0.2-0.4,0.4-0.4H6
		c0.2,0,0.4,0.2,0.4,0.4C6.4,1.8,6.3,1.9,6.2,2z"/>
	<path class="st0" d="M4,3.5C3.8,3.4,3.5,3.3,3.3,3.3C2.9,3.2,2.5,3.2,2.1,3.4H2v5.5c0.1,0.9,0.7,1.6,1.6,1.6s1.6-0.7,1.6-1.6V3.5
		C4.8,3.6,4.4,3.6,4,3.5z M3.3,4.2C3.7,4.2,4,4.5,4,4.9S3.7,5.6,3.3,5.6S2.6,5.3,2.6,4.9S2.9,4.2,3.3,4.2z M2.8,7.9
		c-0.1,0-0.2-0.1-0.2-0.2s0.1-0.2,0.2-0.2C2.9,7.5,3,7.6,3,7.7S2.9,7.9,2.8,7.9z M3.5,9.6c-0.2,0-0.3-0.1-0.3-0.3S3.3,9,3.5,9
		s0.3,0.1,0.3,0.3C3.7,9.4,3.6,9.6,3.5,9.6z M4.2,7.6c-0.3,0-0.5-0.2-0.5-0.5s0.2-0.5,0.5-0.5s0.5,0.2,0.5,0.5S4.5,7.6,4.2,7.6z"/>
	<g>
		<path class="st0" d="M10.2,0.5h1.5c0.6,0,1.1,0.1,1.6,0.4s0.7,0.6,0.9,0.9c0.2,0.4,0.3,0.8,0.3,1.2c0,0.5-0.1,0.9-0.3,1.2
			C14,4.6,13.7,4.8,13.3,5s-0.8,0.3-1.2,0.3h-1.7V0.5H10.2z M11.7,4.5c0.5,0,0.9-0.1,1.2-0.4c0.3-0.3,0.4-0.6,0.4-1.1
			c0-0.4-0.1-0.7-0.3-0.9s-0.4-0.4-0.6-0.5c-0.2-0.1-0.4-0.2-0.6-0.2H11v3.1L11.7,4.5L11.7,4.5z"/>
		<path class="st0" d="M18.7,0.5v0.9h-2.4v1h2.1v0.9h-2.1v1h2.5v0.9h-3.4V0.4L18.7,0.5L18.7,0.5z"/>
		<path class="st0" d="M21.3,1.3c-0.2,0-0.4,0.1-0.5,0.1c-0.1,0.1-0.2,0.2-0.2,0.4c0,0.2,0.1,0.3,0.3,0.4s0.4,0.2,0.7,0.3
			c0.2,0.1,0.4,0.2,0.6,0.3c0.2,0.1,0.3,0.3,0.4,0.5s0.2,0.4,0.2,0.7s-0.1,0.5-0.2,0.7c-0.2,0.2-0.3,0.4-0.6,0.5
			c-0.3,0.1-0.6,0.2-0.9,0.2s-0.6-0.1-0.9-0.2c-0.3-0.1-0.6-0.2-0.8-0.4L19.8,4c0.2,0.1,0.4,0.2,0.6,0.3c0.3,0.2,0.5,0.2,0.6,0.2
			c0.2,0,0.4-0.1,0.5-0.2c0.2-0.1,0.2-0.2,0.2-0.4c0-0.3-0.3-0.5-0.7-0.7c-0.3-0.1-0.5-0.2-0.7-0.3c-0.2-0.1-0.4-0.3-0.5-0.4
			c-0.2-0.2-0.2-0.4-0.2-0.7c0-0.4,0.2-0.8,0.4-1c0.3-0.3,0.6-0.4,1.1-0.4c0.4,0,0.7,0.1,0.9,0.1c0.3,0.1,0.5,0.2,0.7,0.4l-0.4,0.7
			C21.9,1.4,21.6,1.3,21.3,1.3z"/>
		<path class="st0" d="M24.6,0.5v4.9h-1V0.5H24.6z"/>
		<path class="st0" d="M29.4,5.1c-0.2,0.1-0.4,0.2-0.6,0.2s-0.5,0.1-0.6,0.1c-0.5,0-1-0.1-1.3-0.3c-0.4-0.2-0.7-0.5-0.9-0.8
			c-0.2-0.4-0.3-0.8-0.3-1.2c0-0.6,0.1-1,0.4-1.5c0.2-0.4,0.5-0.7,0.9-0.9c0.4-0.2,0.8-0.3,1.2-0.3c0.3,0,0.6,0.1,0.8,0.1
			c0.3,0.1,0.5,0.2,0.7,0.3l-0.3,0.9c-0.1-0.1-0.3-0.2-0.5-0.2c-0.2-0.1-0.4-0.1-0.6-0.1c-0.5,0-0.9,0.2-1.2,0.4
			c-0.3,0.3-0.4,0.7-0.4,1.2c0,0.3,0.1,0.6,0.2,0.8s0.3,0.4,0.6,0.5c0.3,0.1,0.5,0.2,0.8,0.2s0.5-0.1,0.7-0.1V3.7h-1V2.8h1.8v2.1
			C29.8,5,29.6,5,29.4,5.1z"/>
		<path class="st0" d="M35.4,0.5v5.1h-0.1l-3.4-3.1v2.9h-1V0.3H31l3.4,3.2v-3H35.4z"/>
		<path class="st0" d="M12.6,10.8H11l-0.4,1H9.7l2.2-5.1H12l2.2,5.1H13L12.6,10.8z M12.3,10l-0.5-1.2L11.3,10H12.3z"/>
		<path class="st0" d="M15.8,6.9v4h2.3v0.9h-3.3V6.9C14.8,6.9,15.8,6.9,15.8,6.9z"/>
		<path class="st0" d="M22.1,11.7c-0.3,0.1-0.6,0.2-0.9,0.2c-0.5,0-0.9-0.1-1.3-0.3c-0.4-0.2-0.7-0.5-0.9-0.9s-0.3-0.8-0.3-1.2
			c0-0.5,0.1-0.9,0.3-1.3c0.2-0.4,0.5-0.7,0.8-0.9C20.2,7.1,20.6,7,21,7c0.3,0,0.6,0.1,0.8,0.1c0.3,0.1,0.5,0.2,0.7,0.3l-0.4,0.9
			C21.7,8,21.4,7.9,21,7.9c-0.3,0-0.5,0.1-0.7,0.2c-0.2,0.2-0.4,0.3-0.5,0.6s-0.2,0.5-0.2,0.8s0.1,0.6,0.2,0.8
			c0.1,0.3,0.3,0.4,0.5,0.6c0.2,0.2,0.5,0.2,0.8,0.2s0.5-0.1,0.6-0.1c0.2-0.1,0.4-0.2,0.5-0.3l0.4,0.9
			C22.5,11.5,22.3,11.6,22.1,11.7z"/>
		<path class="st0" d="M27.7,11.8h-1v-2h-2.2v2h-1V6.9h1v2h2.2v-2h1V11.8z"/>
		<path class="st0" d="M32.3,6.9v0.9h-2.4v1H32v0.9h-2.1v1h2.5v0.9H29V6.7L32.3,6.9L32.3,6.9z"/>
		<path class="st0" d="M38.5,6.6v5.1h-1V9.4l-1.6,2.3l0,0l-1.6-2.1v2.2h-0.9V6.7l0,0l2.5,3.5L38.5,6.6L38.5,6.6z"/>
		<path class="st0" d="M40.7,6.9v4.9h-1V6.9C39.7,6.9,40.7,6.9,40.7,6.9z"/>
		<path class="st0" d="M43.5,7.7c-0.2,0-0.4,0.1-0.5,0.1c-0.1,0.1-0.2,0.2-0.2,0.4c0,0.2,0.1,0.3,0.3,0.4c0.2,0.1,0.4,0.2,0.7,0.3
			C44,9,44.2,9.1,44.4,9.2c0.2,0.1,0.3,0.3,0.4,0.5c0.1,0.2,0.2,0.4,0.2,0.7s-0.1,0.5-0.2,0.7c-0.2,0.2-0.3,0.4-0.6,0.5
			c-0.2,0.1-0.5,0.2-0.9,0.2c-0.3,0-0.6-0.1-0.9-0.2c-0.3-0.1-0.6-0.2-0.8-0.4l0.4-0.8c0.2,0.1,0.4,0.2,0.6,0.3
			c0.2,0.1,0.4,0.1,0.6,0.1c0.2,0,0.4-0.1,0.5-0.2c0.2-0.1,0.2-0.2,0.2-0.4c0-0.3-0.3-0.5-0.7-0.7c-0.3-0.1-0.5-0.2-0.7-0.3
			S42.1,8.9,42,8.8c-0.2-0.2-0.2-0.4-0.2-0.7c0-0.4,0.2-0.8,0.4-1c0.3-0.3,0.6-0.4,1.1-0.4c0.4,0,0.7,0.1,0.9,0.1
			c0.3,0.1,0.5,0.2,0.7,0.4L44.6,8C44.2,7.8,43.8,7.7,43.5,7.7z"/>
		<path class="st0" d="M48.8,6.9v0.9h-1.2v4h-0.9v-4h-1.1V6.9C45.6,6.9,48.8,6.9,48.8,6.9z"/>
		<path class="st0" d="M51.3,7.7c-0.2,0-0.4,0.1-0.5,0.1c-0.1,0.1-0.2,0.2-0.2,0.4c0,0.2,0.1,0.3,0.3,0.4c0.2,0.1,0.4,0.2,0.7,0.3
			C51.8,9,52,9.1,52.2,9.2c0.2,0.1,0.3,0.3,0.4,0.5c0.1,0.2,0.2,0.4,0.2,0.7s-0.1,0.5-0.2,0.7c-0.2,0.2-0.3,0.4-0.6,0.5
			c-0.2,0.1-0.5,0.2-0.8,0.2s-0.6-0.1-0.9-0.2c-0.3-0.1-0.6-0.2-0.8-0.4l0.4-0.8c0.2,0.1,0.4,0.2,0.6,0.3c0.2,0.1,0.4,0.1,0.6,0.1
			c0.2,0,0.4-0.1,0.5-0.2c0.2-0.1,0.2-0.2,0.2-0.4c0-0.3-0.3-0.5-0.7-0.7c-0.3-0.1-0.5-0.2-0.7-0.3S50,8.9,49.9,8.8
			c-0.2-0.2-0.2-0.4-0.2-0.7c0-0.4,0.2-0.8,0.4-1s0.6-0.4,1.1-0.4c0.4,0,0.7,0.1,0.9,0.1c0.3,0.1,0.5,0.2,0.7,0.4l-0.4,0.7
			C52,7.8,51.6,7.7,51.3,7.7z"/>
	</g>
</g>
</svg>
