<?xml version="1.0" encoding="utf-8"?>
<!-- Generator: Adobe Illustrator 26.3.1, SVG Export Plug-In . SVG Version: 6.00 Build 0)  -->
<svg version="1.1" id="Layer_1" xmlns="http://www.w3.org/2000/svg" xmlns:xlink="http://www.w3.org/1999/xlink" x="0px" y="0px"
	 viewBox="0 0 92.8 16.6" style="enable-background:new 0 0 92.8 16.6;" xml:space="preserve">
<style type="text/css">
	.st0{fill:#A0ADC0;}
</style>
<g>
	<g>
		<path class="st0" d="M24,9.5h-2.3v4.3h-1.6v-11h4c0.5,0,1,0.1,1.5,0.2s0.9,0.4,1.2,0.7c0.4,0.3,0.6,0.6,0.8,1.1
			c0.2,0.4,0.3,0.9,0.3,1.4c0,0.8-0.2,1.4-0.6,2c-0.4,0.5-0.9,0.9-1.6,1.1l2.6,4.5h-1.8L24,9.5z M21.7,8.2h2.4
			c0.6,0,1.2-0.2,1.6-0.5c0.4-0.3,0.6-0.9,0.6-1.5S26,4.9,25.6,4.6c-0.4-0.3-0.9-0.5-1.6-0.5h-2.4V8.2z"/>
		<path class="st0" d="M39.2,10.4c-0.3,1.1-0.8,2-1.6,2.7c-0.8,0.7-1.8,1-3,1c-0.8,0-1.5-0.1-2.1-0.4c-0.6-0.3-1.2-0.6-1.6-1.2
			s-0.8-1.1-1.1-1.8c-0.3-0.7-0.4-1.5-0.4-2.4s0.1-1.7,0.4-2.4s0.6-1.3,1.1-1.8c0.4-0.5,1-0.9,1.7-1.2c0.6-0.3,1.3-0.4,2.1-0.4
			c0.6,0,1.1,0.1,1.6,0.2s0.9,0.4,1.3,0.7c0.4,0.3,0.7,0.6,1,1.1c0.3,0.4,0.4,0.9,0.5,1.4l-1.5,0.4c-0.2-0.8-0.5-1.3-1.1-1.8
			c-0.5-0.4-1.2-0.6-1.9-0.6c-0.5,0-1,0.1-1.4,0.3c-0.4,0.2-0.8,0.5-1.1,0.9c-0.3,0.4-0.5,0.8-0.7,1.4c-0.2,0.5-0.3,1.2-0.3,1.9
			s0.1,1.3,0.3,1.9c0.2,0.5,0.4,1,0.7,1.3c0.3,0.4,0.7,0.6,1.1,0.9c0.4,0.2,0.9,0.3,1.4,0.3c0.9,0,1.5-0.2,2.1-0.7
			c0.5-0.5,0.9-1.1,1.1-1.9L39.2,10.4z"/>
		<path class="st0" d="M44.2,2.8h1.7l4.4,11h-1.6l-1-2.6h-5.3l-1,2.6h-1.7L44.2,2.8z M42.9,9.9h4.3L45,4.5L42.9,9.9z"/>
		<path class="st0" d="M60.5,10.4c-0.3,1.1-0.8,2-1.6,2.7c-0.8,0.7-1.8,1-3,1c-0.8,0-1.5-0.1-2.1-0.4c-0.6-0.3-1.2-0.6-1.6-1.2
			s-0.8-1.1-1.1-1.8c-0.3-0.7-0.4-1.5-0.4-2.4s0.1-1.7,0.4-2.4c0.3-0.7,0.6-1.3,1.1-1.8c0.4-0.5,1-0.9,1.7-1.2s1.3-0.4,2.1-0.4
			c0.6,0,1.1,0.1,1.6,0.2s0.9,0.4,1.3,0.7c0.4,0.3,0.7,0.6,1,1.1c0.3,0.4,0.4,0.9,0.5,1.4L59,6.3c-0.2-0.8-0.5-1.3-1.1-1.8
			c-0.5-0.4-1.2-0.6-1.9-0.6c-0.5,0-1,0.1-1.4,0.3c-0.4,0.2-0.8,0.5-1.1,0.9c-0.3,0.4-0.5,0.8-0.7,1.4c-0.2,0.5-0.3,1.2-0.3,1.9
			s0.1,1.3,0.3,1.9c0.2,0.5,0.4,1,0.7,1.3c0.3,0.4,0.7,0.6,1.1,0.9c0.4,0.2,0.9,0.3,1.4,0.3c0.9,0,1.5-0.2,2.1-0.7
			c0.5-0.5,0.9-1.1,1.1-1.9L60.5,10.4z"/>
		<path class="st0" d="M62.2,2.8h1.5v11h-1.5V2.8z"/>
		<path class="st0" d="M69.5,14.1c-0.5,0-1.1-0.1-1.6-0.3s-0.9-0.5-1.3-0.9c-0.4-0.4-0.7-0.8-0.9-1.3s-0.3-1.1-0.3-1.8
			s0.1-1.3,0.3-1.8s0.5-1,0.9-1.3C67,6.3,67.4,6,67.9,5.8c0.5-0.2,1-0.3,1.6-0.3c0.5,0,1.1,0.1,1.6,0.3C71.6,6,72,6.3,72.4,6.7
			s0.7,0.8,0.9,1.3c0.2,0.5,0.3,1.1,0.3,1.8s-0.1,1.3-0.3,1.8c-0.2,0.5-0.5,1-0.9,1.3c-0.4,0.4-0.8,0.6-1.3,0.9
			C70.6,14,70.1,14.1,69.5,14.1z M70.6,7c-0.3-0.1-0.7-0.2-1-0.2c-0.4,0-0.7,0.1-1,0.2c-0.3,0.1-0.6,0.4-0.8,0.6
			c-0.2,0.3-0.4,0.6-0.5,0.9C67,8.9,67,9.4,67,9.8s0,0.9,0.2,1.3c0.1,0.4,0.3,0.7,0.5,0.9c0.2,0.3,0.5,0.4,0.8,0.6
			c0.3,0.1,0.7,0.2,1,0.2c0.4,0,0.7-0.1,1-0.2c0.3-0.1,0.6-0.4,0.8-0.6c0.2-0.3,0.4-0.6,0.5-0.9c0.1-0.4,0.2-0.8,0.2-1.3
			c0-0.4,0-0.9-0.2-1.3c-0.1-0.4-0.3-0.7-0.5-0.9C71.2,7.3,70.9,7.2,70.6,7z"/>
		<path class="st0" d="M81,12.5c-0.1,0.2-0.2,0.4-0.4,0.5s-0.4,0.4-0.6,0.5c-0.2,0.1-0.4,0.3-0.7,0.4c-0.3,0.1-0.6,0.1-0.9,0.1
			c-0.9,0-1.7-0.3-2.2-0.8c-0.5-0.5-0.8-1.3-0.8-2.4V5.8h1.5v5c0,1.3,0.6,2,1.9,2c0.3,0,0.6,0,0.9-0.2c0.3-0.1,0.5-0.3,0.7-0.5
			s0.4-0.5,0.5-0.9c0.1-0.4,0.2-0.7,0.2-1.2V5.8h1.5v8.1h-1.3L81,12.5z"/>
		<path class="st0" d="M88,14.1c-0.5,0-1-0.1-1.5-0.3c-0.4-0.2-0.9-0.5-1.2-0.9c-0.4-0.4-0.6-0.8-0.8-1.3c-0.2-0.5-0.3-1.1-0.3-1.8
			s0.1-1.2,0.3-1.8c0.2-0.5,0.5-1,0.8-1.3c0.4-0.4,0.8-0.7,1.2-0.9c0.4-0.2,0.9-0.3,1.4-0.3c0.6,0,1.1,0.1,1.6,0.4
			c0.5,0.3,0.8,0.6,1,1V2.8h1.5v11H91l-0.2-1.2c-0.1,0.2-0.3,0.3-0.4,0.5c-0.2,0.2-0.4,0.3-0.6,0.4c-0.2,0.1-0.4,0.3-0.8,0.3
			C88.7,14,88.4,14.1,88,14.1z M89.3,7c-0.3-0.1-0.7-0.2-1-0.2c-0.4,0-0.7,0.1-1,0.2c-0.3,0.1-0.6,0.4-0.8,0.6S86.1,8.2,86,8.6
			c-0.1,0.4-0.2,0.8-0.2,1.2s0,0.8,0.2,1.2c0.1,0.4,0.3,0.7,0.5,0.9c0.2,0.3,0.5,0.5,0.8,0.6c0.3,0.1,0.7,0.2,1,0.2
			c0.4,0,0.7-0.1,1-0.2c0.3-0.1,0.6-0.4,0.8-0.6c0.2-0.3,0.4-0.6,0.5-0.9c0.1-0.4,0.2-0.8,0.2-1.2s0-0.8-0.2-1.2
			c-0.1-0.4-0.3-0.7-0.5-0.9C89.9,7.4,89.7,7.2,89.3,7z"/>
	</g>
	<path class="st0" d="M16.7,7.4c-0.1-0.7-0.8-1.3-1.5-1.3c-0.2,0-0.4-0.1-0.5-0.3c-0.1-0.2,0-0.4,0.1-0.6c0.6-0.5,0.6-1.4,0.2-2
		c-0.4-0.5-0.9-0.9-1.3-1.3c-0.3-0.2-0.6-0.3-0.9-0.3c-0.4,0-0.8,0.2-1.1,0.5c-0.1,0.1-0.3,0.2-0.4,0.2c0,0-0.1,0-0.2,0
		c-0.2-0.1-0.3-0.3-0.3-0.5c0-0.8-0.5-1.5-1.3-1.6C9.1,0,8.7,0,8.4,0C8.1,0,7.8,0,7.5,0C6.7,0.1,6.1,0.8,6.2,1.6
		C6.2,1.8,6,2,5.9,2.1c0,0-0.1,0-0.2,0c-0.2,0-0.3,0-0.4-0.2C5,1.7,4.6,1.5,4.2,1.5c-0.3,0-0.7,0.1-0.9,0.3C2.8,2.2,2.3,2.6,1.9,3.1
		C1.4,3.7,1.5,4.6,2,5.1c0.2,0.1,0.2,0.4,0.1,0.6S1.9,6,1.6,6c0,0,0,0,0,0C0.8,6,0.2,6.6,0.1,7.3C0,8,0,8.6,0.1,9.2
		c0.1,0.7,0.8,1.3,1.5,1.3l0,0l0,0l0,0c0.2,0,0.4,0.1,0.4,0.3c0.1,0.2,0,0.4-0.1,0.6c-0.4,0.6-0.5,1.5,0,2.1
		c0.4,0.5,0.8,0.9,1.3,1.3c0.3,0.2,0.6,0.3,0.9,0.3c0.4,0,0.8-0.2,1.1-0.5l0,0c0,0,0.1,0,0.1,0c0,0,0,0,0.1,0s0.1,0,0.2,0
		c0,0,0.1,0,0.2,0C6,14.6,6.1,14.8,6.1,15c0,0.8,0.5,1.5,1.3,1.6c0.3,0,0.6,0,0.9,0s0.6,0,0.9,0c0.8-0.1,1.3-0.8,1.3-1.5
		c0-0.2,0.1-0.4,0.3-0.5c0,0,0.1,0,0.2,0c0.2,0,0.3,0.1,0.4,0.2c0.3,0.3,0.7,0.5,1.1,0.5c0.3,0,0.6-0.1,0.9-0.3l0,0l0,0
		c0.5-0.4,0.9-0.9,1.3-1.3c0.5-0.6,0.4-1.5-0.2-2c-0.2-0.1-0.2-0.4-0.1-0.6c0.1-0.2,0.3-0.3,0.5-0.3h0c0,0,0,0,0.1,0
		c0.8,0,1.4-0.6,1.5-1.3C16.7,8.7,16.7,8,16.7,7.4z M15.6,9.2c0,0.2-0.2,0.4-0.4,0.4c0,0,0,0,0,0H15c-0.6,0-1.3,0.4-1.5,1
		c-0.3,0.6-0.1,1.3,0.4,1.8c0.2,0.1,0.2,0.4,0,0.5c-0.4,0.4-0.7,0.8-1.2,1.2c-0.1,0-0.2,0.1-0.3,0.1s-0.2,0-0.3-0.1
		c-0.1-0.1-0.1-0.1-0.2-0.2c0,0-0.1-0.1-0.2-0.1c-0.9-0.5-1.9-0.8-3-0.9v-0.6c0-0.3,0.2-0.5,0.5-0.5l0,0c0,0,0.1,0,0.1,0
		c0,0,0.1,0,0.2,0c1.4-0.1,2.5-1.2,2.6-2.6c0.1-1-0.4-2-1.2-2.6c0,0-0.1-0.1-0.1-0.2v0c-0.1-1.4-1.3-2.5-2.7-2.6c0,0-0.1,0-0.1,0
		C6.6,3.8,5.3,5,5.3,6.6l0,0C4.4,7.2,3.9,8.2,4.1,9.3c0.1,1.3,1.2,2.3,2.4,2.5c0,0,0.1,0,0.2,0c0.3,0,0.5-0.2,0.5-0.5
		c0-0.3-0.2-0.5-0.5-0.5c0,0,0,0-0.1,0c-0.8-0.1-1.4-0.7-1.5-1.5C5,8.5,5.4,7.8,5.9,7.5C6.2,7.3,6.4,7,6.4,6.7V6.6
		c0-0.9,0.8-1.7,1.7-1.7c0,0,0,0,0.1,0c0.9,0,1.6,0.7,1.6,1.6v0c0,0.4,0.3,0.8,0.6,1.1c0.5,0.4,0.8,0.9,0.7,1.6
		c-0.1,0.8-0.9,1.5-1.7,1.5l0,0c0,0-0.1,0-0.1,0l0,0c-0.2,0-0.4,0-0.5,0.1V9.5c0-0.3-0.2-0.5-0.5-0.5c-0.3,0-0.5,0.2-0.5,0.5v3.4
		c-1,0.1-1.9,0.3-2.7,0.7c-0.3,0.1-0.5,0.2-0.7,0.4c-0.1,0.1-0.2,0.1-0.3,0.1c-0.1,0-0.2,0-0.3-0.1c-0.4-0.4-0.8-0.7-1.2-1.2
		c-0.1-0.2-0.1-0.4,0-0.5C3.1,12,3.3,11.2,3,10.6C2.9,9.9,2.3,9.5,1.7,9.5h0c-0.2,0-0.4-0.1-0.5-0.4c0-0.5,0-1.1,0-1.7
		c0-0.2,0.2-0.4,0.4-0.4l0,0c0.7,0,1.3-0.4,1.6-1c0.3-0.6,0.1-1.3-0.4-1.8C2.6,4.2,2.6,4,2.8,3.8C3.1,3.3,3.5,3,3.9,2.6
		c0.1,0,0.2-0.1,0.3-0.1s0.2,0,0.3,0.1C4.8,3,5.3,3.2,5.7,3.2c0.2,0,0.4,0,0.6-0.1c0.5-0.2,0.9-0.9,0.9-1.5c0-0.2,0.1-0.4,0.4-0.4
		c0.3,0,0.5,0,0.8,0s0.5,0,0.9,0c0.2,0,0.4,0.2,0.4,0.4C9.6,2.3,10,2.9,10.6,3.2c0.2,0.1,0.4,0.1,0.6,0.1c0.4,0,0.9-0.2,1.2-0.5
		c0.1-0.1,0.2-0.1,0.3-0.1c0.1,0,0.2,0,0.3,0.1c0.4,0.4,0.8,0.7,1.2,1.2c0.1,0.2,0.1,0.4,0,0.5c-0.5,0.4-0.7,1.2-0.4,1.8
		c0.2,0.6,0.9,1,1.5,1c0.2,0,0.4,0.1,0.4,0.4C15.7,8.1,15.7,8.6,15.6,9.2z"/>
</g>
</svg>
