<?xml version="1.0" encoding="utf-8"?>
<!-- Generator: Adobe Illustrator 26.3.1, SVG Export Plug-In . SVG Version: 6.00 Build 0)  -->
<svg version="1.1" id="Layer_1" xmlns="http://www.w3.org/2000/svg" xmlns:xlink="http://www.w3.org/1999/xlink" x="0px" y="0px"
	 viewBox="0 0 107.6 16.6" style="enable-background:new 0 0 107.6 16.6;" xml:space="preserve">
<style type="text/css">
	.st0{fill:#A0ADC0;fill-opacity:0.98;}
</style>
<g>
	<path class="st0" d="M17.3,3h-2.6V1.5c0-0.8-0.7-1.5-1.5-1.5H7.7c-0.8,0-1.5,0.7-1.5,1.5v5.5c0,1.6,1.3,2.9,2.9,2.9H14
		c-0.1,0.3,0,0.6,0.2,0.8c0.1,0.1,0.3,0.2,0.5,0.2c0.2,0,0.4-0.1,0.5-0.2l1-1c0.3-0.3,0.3-0.8,0-1l-1-1c-0.3-0.3-0.8-0.3-1,0
		c-0.2,0.2-0.3,0.6-0.1,0.9H9.2c-0.8,0-1.5-0.7-1.5-1.5V1.5h5.5v2.2c0,0.4,0.3,0.7,0.7,0.7h3.3c0.8,0,1.5,0.7,1.5,1.5v6.3
		c0,0.8-0.7,1.5-1.5,1.5H2.9c-0.8,0-1.5-0.7-1.5-1.5V6c0-0.8,0.7-1.5,1.5-1.5h1.5c0.4,0,0.7-0.3,0.7-0.7S4.8,3,4.4,3H2.9
		C1.3,3,0,4.3,0,6v6.3c0,1.6,1.3,2.9,2.9,2.9h14.4c1.6,0,2.9-1.3,2.9-2.9V6C20.3,4.3,19,3,17.3,3z"/>
	<path class="st0" d="M10,3C9.5,3,9.2,3.4,9.2,3.8S9.5,4.5,10,4.5h1.1c0.4,0,0.7-0.3,0.7-0.7S11.5,3,11.1,3H10z"/>
	<path class="st0" d="M34.7,4.4c-1.2,0-2.2,0.4-3,1.1c-0.9,0.8-1.3,1.9-1.3,3.4c0,1.3,0.3,2.3,1,3.1c0.8,0.9,1.8,1.3,3.3,1.3
		c1.2,0,2.2-0.3,3-1c0.9-0.8,1.3-1.9,1.3-3.4c0-1.3-0.3-2.3-1-3.1C37.2,4.8,36.1,4.4,34.7,4.4z M36.2,10.8c-0.4,0.5-0.9,0.7-1.5,0.7
		c-0.6,0-1-0.2-1.4-0.6c-0.4-0.5-0.6-1.2-0.6-2c0-0.8,0.2-1.4,0.6-1.9c0.4-0.5,0.9-0.7,1.5-0.7c0.6,0,1,0.2,1.4,0.6
		c0.4,0.5,0.6,1.2,0.6,2C36.7,9.7,36.5,10.3,36.2,10.8z"/>
	<path class="st0" d="M26.5,14.2c0,0.5-0.2,0.7-0.6,0.7c-0.2,0-0.3,0-0.4-0.1v1.8c0.5,0.1,0.9,0.1,1.3,0.1c0.7,0,1.2-0.2,1.5-0.5
		c0.3-0.3,0.5-0.8,0.5-1.5V4.6h-2.2V14.2z"/>
	<path class="st0" d="M107.2,11.3C107.2,11.3,107.1,11.3,107.2,11.3c-0.5,0.2-0.8,0.3-1,0.3c-0.3,0-0.5-0.1-0.6-0.2
		c-0.1-0.1-0.2-0.3-0.2-0.6V6h1.5V4.6h-1.5V1.9l-2.2,1.3v1.4H102V6h1.1v5.3c0,1.3,0.7,2,2.2,2c0.7,0,1.5-0.2,2.1-0.5L107.2,11.3z"/>
	<path class="st0" d="M92.5,4.4c-1.2,0-2.2,0.4-3,1.1c-0.9,0.8-1.3,1.9-1.3,3.4c0,1.3,0.3,2.3,1,3.1c0.8,0.9,1.8,1.3,3.3,1.3
		c1.2,0,2.2-0.3,3-1c0.9-0.8,1.3-1.9,1.3-3.4c0-1.3-0.3-2.3-1-3.1C95,4.8,93.9,4.4,92.5,4.4z M93.9,10.8c-0.4,0.5-0.9,0.7-1.5,0.7
		c-0.6,0-1-0.2-1.4-0.6c-0.4-0.5-0.6-1.2-0.6-2c0-0.8,0.2-1.4,0.6-1.9c0.4-0.5,0.9-0.7,1.5-0.7c0.6,0,1,0.2,1.4,0.6
		c0.4,0.5,0.6,1.2,0.6,2C94.5,9.7,94.3,10.3,93.9,10.8z"/>
	<path class="st0" d="M27.6,3.7c0.3,0,0.5-0.1,0.7-0.3c0.2-0.2,0.3-0.5,0.3-0.7s-0.1-0.5-0.3-0.7c-0.2-0.2-0.4-0.3-0.7-0.3
		c-0.3,0-0.5,0.1-0.7,0.3c-0.2,0.2-0.3,0.5-0.3,0.7s0.1,0.5,0.3,0.7C27,3.6,27.3,3.7,27.6,3.7z"/>
	<path class="st0" d="M85.3,3.7c0.3,0,0.5-0.1,0.7-0.3c0.2-0.2,0.3-0.5,0.3-0.7s-0.1-0.5-0.3-0.7c-0.2-0.2-0.4-0.3-0.7-0.3
		c-0.3,0-0.5,0.1-0.7,0.3c-0.2,0.2-0.3,0.5-0.3,0.7s0.1,0.5,0.3,0.7C84.8,3.6,85,3.7,85.3,3.7z"/>
	<path class="st0" d="M78.8,10.8l-1.9-6.3h-2.4l3.2,9v0.2c0,0.3-0.1,0.6-0.4,0.9c-0.3,0.3-0.6,0.4-1,0.4c-0.3,0-0.6,0-1-0.1L75,16.3
		c0.3,0.2,0.8,0.3,1.6,0.3c0.8,0,1.4-0.1,1.8-0.4c0.4-0.3,0.7-0.8,1-1.5l3.5-10.2h-2.3L78.8,10.8z"/>
	<path class="st0" d="M84.3,14.2c0,0.5-0.2,0.7-0.6,0.7c-0.2,0-0.3,0-0.4-0.1v1.8c0.5,0.1,0.9,0.1,1.3,0.1c0.7,0,1.2-0.2,1.5-0.5
		c0.3-0.3,0.5-0.8,0.5-1.5V4.6h-2.2V14.2z"/>
	<path class="st0" d="M72,5c-0.7-0.4-1.4-0.6-2.3-0.6c-1.1,0-2.1,0.4-2.8,1.1c-0.8,0.8-1.2,2-1.2,3.5c0,1.3,0.3,2.3,0.9,3
		c0.7,0.9,1.7,1.3,3,1.3c1,0,1.8-0.2,2.5-0.7c0.7-0.5,1.2-1.2,1.5-2h-2.2c-0.3,0.7-0.8,1-1.7,1c-0.7,0-1.2-0.2-1.5-0.7
		c-0.2-0.3-0.3-0.8-0.3-1.5h5.8c0-0.2,0-0.3,0-0.4c0-0.9-0.1-1.6-0.3-2.2C73.1,6.1,72.7,5.5,72,5z M68,8c0.1-1.3,0.7-1.9,1.7-1.9
		c1,0,1.6,0.6,1.7,1.9H68z"/>
	<path class="st0" d="M55,4.4c-1.3,0-2.1,0.6-2.4,1.8V4.6h-2.2v8.6h2.2V8.6c0-0.8,0.2-1.3,0.5-1.6c0.3-0.3,0.8-0.4,1.5-0.4
		c0.3,0,0.6,0,0.8,0.1l0-2.2C55.3,4.4,55.2,4.4,55,4.4z"/>
	<path class="st0" d="M46,9.8c0,0.5-0.2,0.9-0.5,1.2c-0.3,0.3-0.8,0.5-1.3,0.5c-1,0-1.4-0.5-1.4-1.5V4.6h-2.2v5.8
		c0,0.9,0.2,1.6,0.6,2.1c0.5,0.6,1.3,0.9,2.2,0.9c1.1,0,2-0.5,2.6-1.4v1.2h2.2V4.6H46V9.8z"/>
	<rect x="98.4" y="1.5" class="st0" width="2.2" height="11.6"/>
	<path class="st0" d="M61.3,4.4c-1.1,0-2,0.5-2.6,1.4V4.6h-2.2v8.6h2.2V8c0-0.5,0.2-0.9,0.5-1.2c0.3-0.3,0.8-0.5,1.3-0.5
		c1,0,1.4,0.5,1.4,1.5v5.3h2.2V7.4c0-0.9-0.2-1.6-0.6-2.1C63.1,4.7,62.3,4.4,61.3,4.4z"/>
</g>
</svg>
