<?xml version="1.0" encoding="UTF-8"?>
<svg id="Layer_1" xmlns="http://www.w3.org/2000/svg" version="1.1" viewBox="0 0 87.1 16.6">
  <!-- Generator: Adobe Illustrator 29.6.1, SVG Export Plug-In . SVG Version: 2.1.1 Build 9)  -->
  <defs>
    <style>
      .st0 {
        fill: #000e23;
      }
    </style>
  </defs>
  <path class="st0" d="M6.9,1.6c-3.3,2.5-3.3,7.2-1.2,10.4,2.3,3.3,6.6,4.8,10.2,3.3,3.9-1.5,6-6,4.4-9.9-.8-1.9-2.3-3.3-4.3-4.1-2.7-.8-6.2.2-7.5,2.9-1.4,2.7-.6,6.2,2.3,7.5,2.1,1,4.8.2,6-1.7,1.2-2.3.2-5.2-2.3-6-2.3-.6-4.6,1.2-4.3,3.7.2,1.4,1.5,2.3,2.7,2.3.8-.2,1.7-.4,2.1-1.4.4-1.4-1-2.7-2.3-2.5.8-.8,2.1-.6,2.7.2,1.2,1.5.6,3.5-1,4.4-1.7,1-3.7.4-4.8-1.2-1.2-1.7-1.4-3.7-.2-5.4,1.9-2.7,5.6-2.9,8.1-1,2.7,2.3,2.9,6.2.6,8.9-2.9,3.3-7.9,2.9-10.6-.4-.3-.4-.6-.7-.8-1.1-1.8-2.8-1.2-6.3,0-9.2Z"/>
  <g>
    <g>
      <path class="st0" d="M24.5,3.9h.9l2.2,2.9v-2.9h1v4.7h-.9l-2.3-3v3h-1V3.9Z"/>
      <path class="st0" d="M31.7,3.9h.9l2,4.7h-1.1l-.4-1h-2l-.4,1h-1l2-4.7ZM32.8,6.6l-.6-1.5-.6,1.5h1.2Z"/>
      <path class="st0" d="M36.2,4.8h-1.4v-.9h3.9v.9h-1.4v3.7h-1v-3.7Z"/>
      <path class="st0" d="M39.7,6.6v-2.7h1v2.6c0,.8.4,1.2,1,1.2s1-.4,1-1.1v-2.7h1v2.6c0,1.4-.8,2.1-2.1,2.1s-2-.7-2-2.1Z"/>
      <path class="st0" d="M45.2,3.9h2.1c.6,0,1.1.2,1.4.5.3.3.4.6.4,1.1h0c0,.8-.4,1.2-1,1.5l1.1,1.7h-1.2l-1-1.5h-.8v1.5h-1V3.9ZM47.2,6.2c.5,0,.8-.3.8-.7h0c0-.5-.3-.7-.8-.7h-1v1.3h1Z"/>
      <path class="st0" d="M50.3,3.9h3.5v.9h-2.5v.9h2.2v.9h-2.2v1h2.5v.9h-3.6V3.9Z"/>
      <path class="st0" d="M57.2,7.9l.6-.7c.4.3.9.6,1.4.6s.7-.2.7-.4h0c0-.3-.2-.4-.9-.6-.9-.2-1.6-.5-1.6-1.4h0c0-.9.7-1.4,1.6-1.4s1.3.2,1.7.6l-.5.8c-.4-.3-.8-.5-1.2-.5s-.6.2-.6.4h0c0,.3.2.4,1,.6.9.2,1.5.6,1.5,1.4h0c0,.9-.7,1.5-1.7,1.5s-1.4-.2-2-.7Z"/>
      <path class="st0" d="M61.6,3.9h1.1l1,3.2,1-3.2h.9l1,3.2,1-3.2h1.1l-1.6,4.7h-.9l-1.1-3.1-1.1,3.1h-.9l-1.6-4.7Z"/>
      <path class="st0" d="M69.8,3.9h1v4.7h-1V3.9Z"/>
      <path class="st0" d="M72.3,3.9h2.1c.6,0,1.1.2,1.4.5.3.3.4.6.4,1.1h0c0,.8-.4,1.2-1,1.5l1.1,1.7h-1.2l-1-1.5h-.8v1.5h-1V3.9ZM74.4,6.2c.5,0,.8-.3.8-.7h0c0-.5-.3-.7-.8-.7h-1v1.3h1Z"/>
      <path class="st0" d="M77.5,3.9h1v3.7h2.3v.9h-3.4V3.9Z"/>
    </g>
    <g>
      <path class="st0" d="M24.5,13l.3-.4c.2.2.4.3.7.3s.3,0,.3-.2h0c0-.1,0-.2-.5-.3-.5-.1-.8-.3-.8-.7h0c0-.4.3-.7.8-.7s.6.1.9.3l-.3.4c-.2-.1-.4-.2-.6-.2s-.3,0-.3.2h0c0,.2.1.2.5.3.5.1.7.3.7.7h0c0,.5-.4.7-.9.7s-.7-.1-1-.4Z"/>
      <path class="st0" d="M27.8,11h1c.6,0,.9.3.9.8h0c0,.5-.4.8-.9.8h-.4v.7h-.5v-2.3ZM28.7,12.1c.3,0,.4-.2.4-.4h0c0-.2-.2-.4-.4-.4h-.4v.7h.4Z"/>
      <path class="st0" d="M31.6,10.9h.5l1,2.4h-.5l-.2-.5h-1l-.2.5h-.5l1-2.4ZM32.1,12.3l-.3-.8-.3.8h.6Z"/>
      <path class="st0" d="M37.2,10.9h.5l1,2.4h-.5l-.2-.5h-1l-.2.5h-.5l1-2.4ZM37.8,12.3l-.3-.8-.3.8h.6Z"/>
      <path class="st0" d="M40.1,11h.5l1.1,1.4v-1.4h.5v2.3h-.4l-1.1-1.5v1.5h-.5v-2.3Z"/>
      <path class="st0" d="M43.7,11h.9c.7,0,1.2.5,1.2,1.2h0c0,.7-.5,1.2-1.2,1.2h-.9v-2.3ZM44.6,12.8c.4,0,.7-.3.7-.7h0c0-.4-.3-.7-.7-.7h-.4v1.4h.4Z"/>
      <path class="st0" d="M49.3,11h1.1c.3,0,.5,0,.6.2.1.1.2.2.2.4h0c0,.3-.1.4-.3.5.3.1.4.3.4.6h0c0,.4-.3.6-.9.6h-1.1v-2.3ZM50.3,11.9c.2,0,.4,0,.4-.2h0c0-.2-.1-.2-.3-.2h-.5v.5h.5ZM50.5,12.9c.2,0,.4,0,.4-.3h0c0-.2-.1-.3-.4-.3h-.6v.5h.6Z"/>
      <path class="st0" d="M52.8,11h1.8v.5h-1.3v.5h1.1v.5h-1.1v.5h1.3v.5h-1.8v-2.3Z"/>
      <path class="st0" d="M56.8,10.9h.5l1,2.4h-.5l-.2-.5h-1l-.2.5h-.5l1-2.4ZM57.3,12.3l-.3-.8-.3.8h.6Z"/>
      <path class="st0" d="M59.5,12.3v-1.3h.5v1.3c0,.4.2.6.5.6s.5-.2.5-.6v-1.3h.5v1.3c0,.7-.4,1.1-1,1.1s-1-.4-1-1Z"/>
      <path class="st0" d="M63.6,11.4h-.7v-.5h1.9v.5h-.7v1.9h-.5v-1.9Z"/>
      <path class="st0" d="M66.9,12.4l-.9-1.4h.6l.6.9.6-.9h.6l-.9,1.4v.9h-.5v-.9Z"/>
    </g>
  </g>
</svg>