<?xml version="1.0" encoding="UTF-8"?>
<svg id="Layer_1" xmlns="http://www.w3.org/2000/svg" version="1.1" viewBox="0 0 53.1 11.8">
  <!-- Generator: Adobe Illustrator 29.6.1, SVG Export Plug-In . SVG Version: 2.1.1 Build 9)  -->
  <defs>
    <style>
      .st0 {
        fill: #a0adc0;
      }
    </style>
  </defs>
  <path class="st0" d="M20.1,9L11.2,0,2.2,9h2.8l-2.8,2.7h17.9l-2.8-2.7h2.8ZM4,8.3L11.2,1.2l7.2,7.2h-1.8l-5.4-5.4-5.4,5.4h-1.8ZM4,11.1l2.1-2h8.6l-.7-.7h-7.1l4.3-4.4,7.2,7.1H4Z"/>
  <g>
    <polygon class="st0" points="47.4 5.3 47.3 5.2 47.4 5.3 47.4 5.3"/>
    <path class="st0" d="M23.8,4.3l-1.4,3.2h.7l.3-.8h1.3l.3.8h.7l-1.4-3.2h-.6ZM23.7,6.2l.4-1,.4,1h-.8Z"/>
    <path class="st0" d="M32.2,4.3h-1.2v3.2h.5v-.8h.6c.7,0,1.2-.5,1.2-1.3h0c0-.7-.4-1.1-1.2-1.1ZM32.8,5.4c0,.3-.3.5-.7.5h-.6v-.8h.6c.4,0,.7,0,.7.3h0Z"/>
    <polygon class="st0" points="39.2 6.2 40.8 6.2 40.8 5.6 39.2 5.6 39.2 5.1 40.8 5.1 40.8 4.3 38.4 4.3 38.4 7.5 40.8 7.5 40.8 6.7 39.2 6.7 39.2 6.2"/>
    <polygon class="st0" points="48.8 4.3 48 4.3 47.6 5 48 5.5 48.8 4.3"/>
    <polygon class="st0" points="47.4 5.3 47.3 5.2 46.7 4.3 45.9 4.3 46.9 5.9 45.8 7.5 46.6 7.5 47.4 6.4 48.1 7.5 48.8 7.5 47.4 5.3 47.4 5.3"/>
  </g>
</svg>