<?xml version="1.0" encoding="utf-8"?>
<!-- Generator: Adobe Illustrator 26.3.1, SVG Export Plug-In . SVG Version: 6.00 Build 0)  -->
<svg version="1.1" id="Layer_1" xmlns="http://www.w3.org/2000/svg" xmlns:xlink="http://www.w3.org/1999/xlink" x="0px" y="0px"
	 viewBox="0 0 87.1 16.6" style="enable-background:new 0 0 87.1 16.6;" xml:space="preserve">
<style type="text/css">
	.st0{clip-path:url(#SVGID_00000024706173161989351880000018133054241051030456_);}
	.st1{fill:#A0ADC0;fill-opacity:0.98;}
</style>
<g>
	<defs>
		<rect id="SVGID_1_" y="0" width="86.8" height="16.6"/>
	</defs>
	<clipPath id="SVGID_00000072977846192165773450000004194459043455541393_">
		<use xlink:href="#SVGID_1_"  style="overflow:visible;"/>
	</clipPath>
	<g style="clip-path:url(#SVGID_00000072977846192165773450000004194459043455541393_);">
		<path class="st1" d="M47.5,4.3c-0.4-0.9-0.8-1.6-1.5-2.3c-0.6-0.6-1.4-1.1-2.3-1.5C42.9,0.2,41.9,0,40.9,0c-1.5,0-3,0.4-4.3,1.1
			C35.2,1.8,34,2.8,33.1,4c-1,1.2-1.6,2.6-1.8,4.1l0,0l0,0l0,0c-0.1,0.5-0.1,1-0.1,1.4c0,1,0.2,1.9,0.5,2.8c0.4,0.9,0.9,1.6,1.5,2.3
			c0.6,0.6,1.4,1.1,2.3,1.5c0.9,0.4,1.8,0.5,2.9,0.5c1.5,0,2.9-0.4,4.3-1.1c1.3-0.7,2.5-1.7,3.4-2.9c0.9-1.2,1.6-2.6,1.8-4l0,0l0,0
			l0,0l0,0l0,0C48,8,48,7.5,48,7.1C48,6.1,47.8,5.2,47.5,4.3z M43.7,8.1L43.7,8.1c-0.1,0.8-0.5,1.5-1,2.2c-0.5,0.7-1.2,1.3-1.9,1.7
			c-0.7,0.4-1.5,0.6-2.2,0.6c-1,0-1.7-0.3-2.3-0.9c-0.6-0.6-0.9-1.3-0.9-2.3c0-0.3,0-0.5,0.1-0.7l0,0l0,0l0,0l0,0l0,0
			c0.1-0.8,0.5-1.5,1-2.2c0.5-0.7,1.2-1.3,1.9-1.7c0.7-0.4,1.5-0.6,2.2-0.6c1,0,1.8,0.3,2.4,0.9c0.6,0.6,0.9,1.3,0.9,2.3
			C43.8,7.5,43.8,7.8,43.7,8.1z"/>
		<path class="st1" d="M29.3,7.4h-8l-0.1,0.4l-0.5,3l-0.1,0.6h2.8c-0.9,0.7-1.9,1.1-3,1.1c-1,0-1.8-0.3-2.5-0.9
			C17.2,11,17,10.3,17,9.4c0-0.3,0-0.6,0.1-0.8l0,0c0.2-0.8,0.5-1.6,1-2.3c0.5-0.7,1.2-1.2,1.9-1.6c0.8-0.4,1.6-0.6,2.4-0.6
			c0.7,0,1.3,0.1,1.8,0.5c0.5,0.3,0.8,0.6,0.9,1.2l0.2,0.6l0.1,0.3h4.2L29.6,6l-0.2-1.1c-0.3-1.5-1.1-2.7-2.4-3.6
			C25.7,0.5,24.2,0,22.5,0c-1.1,0-2.2,0.2-3.3,0.6c-1.1,0.4-2,1-2.9,1.7c-0.8,0.7-1.6,1.6-2.2,2.5c-0.6,1-1,2-1.2,3.2
			c-0.1,0.5-0.1,1-0.1,1.5c0,1.3,0.3,2.5,0.9,3.6c0.6,1.1,1.5,1.9,2.7,2.5c1.1,0.6,2.4,0.9,3.8,0.9c2.4,0,4.5-0.8,6.3-2.5
			c1.5-1.4,2.5-3.1,3-4.9L29.8,8l0.1-0.6H29.3z"/>
		<path class="st1" d="M11.3,8.3H0V6.7h11.6L11.3,8.3z"/>
		<path class="st1" d="M12.4,4.7H6.6l0.5-1.5h6.3L12.4,4.7z"/>
		<path class="st1" d="M11.6,12.1H6.4L6,10.5h5.2L11.6,12.1z"/>
		<path class="st1" d="M55,16.5c-0.9,0-1.7-0.1-2.4-0.4c-0.7-0.3-1.3-0.7-1.8-1.2c-0.5-0.5-0.9-1.1-1.1-1.7c-0.2-0.6-0.4-1.3-0.5-2
			l0-0.5L53,9.8l0,0.7c0,0.8,0.2,1.4,0.6,1.8c0.3,0.4,0.9,0.6,1.6,0.6c0.3,0,0.7-0.1,0.9-0.2c0.3-0.1,0.5-0.3,0.7-0.5
			c0.2-0.2,0.4-0.5,0.5-0.7c0.1-0.3,0.2-0.6,0.2-1c0-0.7-0.2-1.2-0.5-1.5c-0.3-0.3-0.8-0.5-1.4-0.5c-0.2,0-0.5,0-0.7,0.1
			c-0.2,0.1-0.4,0.1-0.6,0.2l-0.5,0.2l-1.6-2.6l3.7-3.1h-5l0.5-3.4h10.6l-0.5,3l-3.2,2.6c0.1,0.1,0.3,0.1,0.4,0.2
			c0.5,0.3,0.9,0.6,1.2,1c0.4,0.4,0.7,0.9,0.9,1.5c0.2,0.6,0.4,1.2,0.4,1.9c0,0.9-0.1,1.7-0.4,2.4c-0.3,0.8-0.7,1.4-1.3,2
			c-0.6,0.6-1.2,1-2,1.3C56.9,16.4,56,16.5,55,16.5z"/>
		<path class="st1" d="M61.7,16.2l2.5-16.1h5.7c0.8,0,1.5,0.1,2.1,0.3c0.7,0.2,1.2,0.5,1.7,0.9c0.5,0.4,0.9,0.9,1.2,1.6
			c0.3,0.6,0.4,1.3,0.4,2.1c0,1-0.2,1.8-0.5,2.6C74.5,8.3,74,9,73.4,9.5c-0.6,0.5-1.3,0.9-2.1,1.1c-0.8,0.3-1.7,0.4-2.6,0.4h-2.2
			l-0.8,5.2H61.7z M68.9,7.4c0.4,0,0.7-0.1,1-0.2c0.3-0.1,0.6-0.2,0.8-0.4c0.2-0.2,0.4-0.4,0.5-0.7c0.1-0.3,0.2-0.6,0.2-0.9
			c0-0.5-0.1-0.9-0.4-1.2c-0.3-0.3-0.8-0.4-1.4-0.4h-2L67,7.4H68.9z"/>
		<path class="st1" d="M75.1,16.2l2.5-16.1h3.9l-2,12.5h7.3l-0.5,3.6H75.1z"/>
	</g>
</g>
</svg>
