<?xml version="1.0" encoding="UTF-8"?>
<svg id="Layer_1" xmlns="http://www.w3.org/2000/svg" version="1.1" viewBox="0 0 92.8 16.6">
  <!-- Generator: Adobe Illustrator 29.6.1, SVG Export Plug-In . SVG Version: 2.1.1 Build 9)  -->
  <defs>
    <style>
      .st0 {
        fill: #a0adc0;
      }
    </style>
  </defs>
  <g>
    <path class="st0" d="M16.9,13.4l-5.2-5.2L19.9,0l5.2,5.2-8.2,8.2ZM13.2,8.2l3.8,3.8,6.8-6.8-3.8-3.8-6.8,6.8Z"/>
    <path class="st0" d="M17,16.6l-5.2-5.2L20,3.2l5.2,5.2-8.2,8.2ZM13.2,11.4l3.8,3.8,6.8-6.8-3.8-3.8-6.8,6.8Z"/>
  </g>
  <g>
    <path class="st0" d="M28.6,4.4h1.7v6.3h3.9v1.6h-5.6v-7.9Z"/>
    <path class="st0" d="M41.6,4.3h1.6l3.4,7.9h-1.8l-.7-1.8h-3.3l-.7,1.8h-1.8l3.4-7.9ZM43.4,9l-1-2.5-1,2.5h2.1Z"/>
    <path class="st0" d="M52.1,9.2l-3-4.8h2l1.9,3.2,1.9-3.2h2l-3,4.7v3.1h-1.7v-3.1Z"/>
    <path class="st0" d="M61.3,4.4h5.9v1.5h-4.2v1.6h3.7v1.5h-3.7v1.6h4.3v1.5h-6v-7.9Z"/>
    <path class="st0" d="M72.2,4.4h3.6c1,0,1.8.3,2.3.8.4.4.7,1.1.7,1.8h0c0,1.3-.7,2.1-1.7,2.5l1.9,2.8h-2l-1.7-2.5h-1.4v2.5h-1.7v-7.9ZM75.6,8.2c.8,0,1.3-.4,1.3-1.1h0c0-.8-.5-1.1-1.4-1.1h-1.7v2.3h1.8Z"/>
  </g>
</svg>