<?xml version="1.0" encoding="UTF-8"?>
<svg id="Layer_1" xmlns="http://www.w3.org/2000/svg" version="1.1" viewBox="0 0 88 16.6">
  <!-- Generator: Adobe Illustrator 29.6.1, SVG Export Plug-In . SVG Version: 2.1.1 Build 9)  -->
  <defs>
    <style>
      .st0 {
        fill-opacity: 1;
      }

      .st0, .st1, .st2 {
        fill: #a0adc0;
      }

      .st1 {
        font-family: ClashDisplay-Semibold, 'Clash Display';
        font-weight: 600;
      }

      .st1, .st2 {
        font-size: 13.7px;
        isolation: isolate;
      }

      .st2 {
        font-family: ClashDisplay-Regular, 'Clash Display';
      }
    </style>
  </defs>
  <g>
    <path class="st0" d="M15,9.9c-1.2-1.2-3.2-1.2-4.4,0l-.7.7c-1.2,1.2-1.2,3.2,0,4.4l.7.7c1.2,1.2,3.2,1.2,4.4,0l.7-.7c1.2-1.2,1.2-3.2,0-4.4l-.7-.7Z"/>
    <path class="st0" d="M1.6,6.8c1.2,1.2,3.2,1.2,4.4,0l.7-.7c1.3-1.3,1.3-3.2,0-4.4l-.7-.7C4.8-.3,2.8-.3,1.6,1l-.7.7C-.3,2.9-.3,4.9.9,6.1l.7.7Z"/>
    <path class="st0" d="M13,7.5c.2,0,.4,0,.6,0h0c.6-.2,1.2-.5,1.6-.9,1.4-1.4,1.4-3.7,0-5.1C13.8,0,11.5,0,10.1,1.4c-.5.5-.8,1-.9,1.6h0c0,.2,0,.4,0,.6-.6,2.8-2.8,5-5.6,5.6-.9.1-1.7.4-2.3,1.1C-.1,11.7-.1,14,1.3,15.4c1.4,1.4,3.7,1.4,5.1,0s.8-1,.9-1.6h0c0-.2,0-.4,0-.6.6-2.9,2.8-5.1,5.6-5.7Z"/>
  </g>
  <g id="Group_4">
    <g id="HORIZON">
      <g>
        <text class="st1" transform="translate(22.3 13.1)"><tspan x="0" y="0">HORI</tspan></text>
        <text class="st2" transform="translate(55.5 13.1)"><tspan x="0" y="0">ZON</tspan></text>
      </g>
    </g>
  </g>
</svg>