<?xml version="1.0" encoding="UTF-8"?>
<svg id="Layer_1" xmlns="http://www.w3.org/2000/svg" version="1.1" viewBox="0 0 137 30">
  <!-- Generator: Adobe Illustrator 29.6.1, SVG Export Plug-In . SVG Version: 2.1.1 Build 9)  -->
  <defs>
    <style>
      .st0 {
        fill: #000e23;
      }
    </style>
  </defs>
  <g>
    <path class="st0" d="M38.9,20l1.5-1.8c1,.8,2.1,1.4,3.4,1.4s1.6-.4,1.6-1.1h0c0-.7-.4-1-2.3-1.5-2.3-.6-3.7-1.2-3.7-3.5h0c0-2.1,1.6-3.4,4-3.4s3.1.5,4.2,1.4l-1.3,1.9c-1-.7-2-1.1-2.9-1.1s-1.5.4-1.5,1h0c0,.8.5,1,2.4,1.5,2.3.6,3.6,1.4,3.6,3.4h0c0,2.3-1.7,3.5-4.1,3.5s-3.4-.6-4.8-1.8Z"/>
    <path class="st0" d="M53.6,10.4h2.7l2.3,7.7,2.5-7.7h2.1l2.5,7.7,2.3-7.7h2.6l-3.9,11.4h-2.2l-2.5-7.4-2.6,7.4h-2.2l-3.9-11.4Z"/>
    <path class="st0" d="M77.5,10.4h2.5v11.3h-2.5v-11.3Z"/>
    <path class="st0" d="M90.3,12.7h-3.4v-2.3h9.4v2.3h-3.4v9h-2.5v-9Z"/>
    <path class="st0" d="M102,16.1h0c0-3.2,2.4-5.9,5.9-5.9s3.4.7,4.5,1.7l-1.6,1.8c-.9-.8-1.8-1.3-2.9-1.3-1.9,0-3.3,1.6-3.3,3.5h0c0,2,1.3,3.6,3.3,3.6s2.1-.5,3-1.3l1.6,1.6c-1.2,1.2-2.5,2-4.6,2-3.3,0-5.8-2.6-5.8-5.8Z"/>
    <path class="st0" d="M119.2,10.4h2.5v4.5h4.6v-4.5h2.5v11.3h-2.5v-4.5h-4.6v4.5h-2.5v-11.3Z"/>
  </g>
  <g>
    <path class="st0" d="M17.9,22c-3.3,0-6.1-2.6-6.2-6h-4.2c0,1.3.3,2.6.8,3.8.5,1.2,1.3,2.4,2.2,3.3,1,1,2.1,1.7,3.3,2.2,1.3.5,2.6.8,4.1.8s2.8-.3,4.1-.8c1.2-.5,2.4-1.3,3.3-2.2,1-1,1.7-2.1,2.2-3.3.5-1.2.8-2.5.8-3.8h-4.2c-.1,3.3-2.8,6-6.2,6Z"/>
    <path class="st0" d="M22.1,10.1c3.3,0,6.1,2.6,6.2,6h4.2c0-1.3-.3-2.6-.8-3.8-.5-1.2-1.3-2.4-2.2-3.3-1-1-2.1-1.7-3.3-2.2-1.3-.5-2.6-.8-4.1-.8s-2.8.3-4.1.8c-1.2.5-2.4,1.3-3.3,2.2-1,1-1.7,2.1-2.2,3.3-.5,1.2-.8,2.5-.8,3.8h4.2c.1-3.3,2.8-6,6.2-6Z"/>
  </g>
</svg>