<svg xmlns="http://www.w3.org/2000/svg" width="76.55" height="14.85" viewBox="0 0 76.55 14.85">
  <g id="Group_12" data-name="Group 12" transform="translate(-8854 -2371)">
    <rect id="Rectangle_12" data-name="Rectangle 12" width="76.55" height="14.85" transform="translate(8854 2371)" fill="#fff" opacity="0"/>
    <g id="Group_11" data-name="Group 11">
      <g id="Group_10" data-name="Group 10" transform="translate(0 1.155)">
        <rect id="Rectangle_9" data-name="Rectangle 9" width="4.382" height="4.382" transform="translate(8858.382 2372.844)"/>
        <rect id="Rectangle_10" data-name="Rectangle 10" width="4.382" height="4.382" transform="translate(8854 2377.227)"/>
      </g>
      <path id="Path_53" data-name="Path 53" d="M.16,1.973,1.4-6.767H7.715L7.18-4.729H3.727L3.511-3.251h3.2L6.441-1.3h-3.2L2.772,1.973Zm8.9,0,.9-6.51h2.51l-.917,6.51Zm1.019-7.351L10.339-7.2h2.51l-.255,1.822Zm3.058,7.351.917-6.51h1.9l.115.943a3.52,3.52,0,0,1,.363-.395,2.5,2.5,0,0,1,.733-.465,2.99,2.99,0,0,1,1.21-.21,1.838,1.838,0,0,1,1.376.471,1.614,1.614,0,0,1,.459,1.172,3.276,3.276,0,0,1-.025.35q-.025.223-.07.592t-.127.917Q19.906-.614,19.8.163t-.261,1.809H17.014Q17.167.915,17.269.2l.166-1.172q.064-.452.1-.713t.045-.395q.013-.134.013-.223a.565.565,0,0,0-.147-.408.564.564,0,0,0-.427-.153.714.714,0,0,0-.382.1.735.735,0,0,0-.261.274,1.236,1.236,0,0,0-.134.389l-.573,4.077ZM23.308,2.1a1.978,1.978,0,0,1-1.567-.637A2.887,2.887,0,0,1,21.18-.486a6.748,6.748,0,0,1,.172-1.522,4.542,4.542,0,0,1,.535-1.344,2.862,2.862,0,0,1,.93-.955,2.52,2.52,0,0,1,1.37-.357,1.942,1.942,0,0,1,1.045.236,1.351,1.351,0,0,1,.522.567L26.225-7.2h2.522q-.191,1.287-.344,2.28t-.261,1.745q-.108.752-.191,1.287t-.134.9q-.051.369-.076.605T27.7,0q-.013.14-.013.229a.392.392,0,0,0,.076.242.3.3,0,0,0,.255.1A.634.634,0,0,0,28.27.52a1.568,1.568,0,0,0,.223-.115l-.2,1.4a2.44,2.44,0,0,1-.631.217,3.264,3.264,0,0,1-.669.076,3.825,3.825,0,0,1-.739-.07,1.444,1.444,0,0,1-.624-.28,1.107,1.107,0,0,1-.369-.643,2.988,2.988,0,0,1-.8.707A2.167,2.167,0,0,1,23.308,2.1ZM24.352.558a.832.832,0,0,0,.465-.121.92.92,0,0,0,.3-.325,1.322,1.322,0,0,0,.153-.446q.14-1.045.2-1.484t.064-.516a.688.688,0,0,0-.217-.554.76.76,0,0,0-.51-.185.879.879,0,0,0-.42.1.811.811,0,0,0-.312.3,1.206,1.206,0,0,0-.159.465q-.127.854-.185,1.376t-.057.662a.728.728,0,0,0,.191.529A.645.645,0,0,0,24.352.558Zm5.172,1.414.917-6.51h1.885l.14.943a1.429,1.429,0,0,1,.191-.248,3.1,3.1,0,0,1,.395-.363,2.322,2.322,0,0,1,.573-.325,1.887,1.887,0,0,1,.713-.134,1.6,1.6,0,0,1,1.159.382,1.369,1.369,0,0,1,.395,1.032,3.945,3.945,0,0,1-.064.707,5.744,5.744,0,0,1-.153.643H33.614a1.409,1.409,0,0,0,.032-.223q.006-.108.006-.185a.724.724,0,0,0-.057-.318.355.355,0,0,0-.159-.166.506.506,0,0,0-.229-.051.589.589,0,0,0-.242.051.572.572,0,0,0-.191.134.718.718,0,0,0-.127.2,1.118,1.118,0,0,0-.076.255l-.586,4.179Z" transform="translate(8866.049 2381.2)"/>
    </g>
    <rect id="Rectangle_11" data-name="Rectangle 11" width="46.649" height="14.85" transform="translate(8854 2371)" fill="none"/>
  </g>
</svg>
