<?xml version="1.0" encoding="UTF-8"?>
<svg id="Layer_1" xmlns="http://www.w3.org/2000/svg" version="1.1" viewBox="0 0 107.6 16.6">
  <!-- Generator: Adobe Illustrator 29.6.1, SVG Export Plug-In . SVG Version: 2.1.1 Build 9)  -->
  <defs>
    <style>
      .st0 {
        fill: #a0adc0;
      }
    </style>
  </defs>
  <g>
    <g>
      <path class="st0" d="M29.5,1.5h1.7l1.9,3.1,1.9-3.1h1.7v7.2h-1.6V4l-2,3.1h0l-2-3.1v4.7h-1.6V1.5Z"/>
      <path class="st0" d="M41.5,1.4h1.5l3.1,7.3h-1.7l-.7-1.6h-3.1l-.7,1.6h-1.6l3.1-7.3ZM43.2,5.7l-1-2.3-1,2.3h1.9Z"/>
      <path class="st0" d="M46.9,5.1h0c0-2.1,1.6-3.8,3.8-3.8s2.1.4,2.8,1l-1,1.2c-.6-.5-1.1-.7-1.9-.7s-2.1,1-2.1,2.3h0c0,1.3.9,2.3,2.2,2.3s1.1-.1,1.5-.4v-1h-1.6v-1.4h3.1v3.1c-.7.6-1.8,1.1-3.1,1.1-2.3,0-3.8-1.6-3.8-3.7Z"/>
      <path class="st0" d="M55.9,1.5h1.5l3.4,4.5V1.5h1.6v7.2h-1.4l-3.5-4.6v4.6h-1.6V1.5Z"/>
      <path class="st0" d="M64.6,1.5h1.6v7.2h-1.6V1.5Z"/>
      <path class="st0" d="M70.2,2.9h-2.2v-1.5h6v1.5h-2.2v5.8h-1.6V2.9Z"/>
      <path class="st0" d="M75.7,5.6V1.5h1.6v4.1c0,1.2.6,1.8,1.6,1.8s1.6-.6,1.6-1.7V1.5h1.6v4.1c0,2.2-1.2,3.3-3.2,3.3s-3.1-1.1-3.1-3.2Z"/>
      <path class="st0" d="M84.1,1.5h2.8c2.3,0,3.8,1.6,3.8,3.6h0c0,2.1-1.6,3.6-3.8,3.6h-2.8V1.5ZM86.9,7.3c1.3,0,2.2-.9,2.2-2.2h0c0-1.3-.9-2.2-2.2-2.2h-1.2v4.4h1.2Z"/>
      <path class="st0" d="M92.7,1.5h5.5v1.4h-3.9v1.5h3.4v1.4h-3.4v1.5h3.9v1.4h-5.5V1.5Z"/>
    </g>
    <g>
      <path class="st0" d="M28.8,15.1l.5-.6c.3.3.7.4,1.1.4s.5-.1.5-.3h0c0-.2-.1-.3-.7-.5-.7-.2-1.2-.4-1.2-1.1h0c0-.7.5-1.1,1.3-1.1s1,.2,1.3.5l-.4.6c-.3-.2-.6-.4-.9-.4s-.5.1-.5.3h0c0,.2.2.3.8.5.7.2,1.1.5,1.1,1.1h0c0,.7-.5,1.1-1.3,1.1s-1.1-.2-1.5-.6Z"/>
      <path class="st0" d="M35,12h.8v3.6h-.8v-3.6Z"/>
      <path class="st0" d="M39.3,12h.7l1.7,2.2v-2.2h.8v3.6h-.7l-1.8-2.3v2.3h-.8v-3.6Z"/>
      <path class="st0" d="M45.8,13.8h0c0-1,.8-1.9,1.9-1.9s1.1.2,1.4.6l-.5.6c-.3-.3-.6-.4-.9-.4-.6,0-1,.5-1,1.1h0c0,.6.4,1.1,1,1.1s.7-.2,1-.4l.5.5c-.4.4-.8.6-1.5.6-1.1,0-1.9-.8-1.9-1.9Z"/>
      <path class="st0" d="M52.4,12h2.7v.7h-1.9v.7h1.7v.7h-1.7v.8h2v.7h-2.8v-3.6Z"/>
      <path class="st0" d="M63.1,12.8l-.6.2-.2-.7,1-.3h.5v3.6h-.8v-2.8Z"/>
      <path class="st0" d="M67.3,15.2l.4-.6c.3.2.5.3.8.3.4,0,.7-.3.7-.8-.2.1-.4.2-.7.2-.8,0-1.3-.4-1.3-1.2h0c0-.7.6-1.3,1.4-1.3s.8.1,1,.4c.3.3.4.7.4,1.4h0c0,1.2-.6,2-1.6,2s-.9-.2-1.2-.4ZM69.2,13.2h0c0-.3-.2-.6-.6-.6s-.6.2-.6.5h0c0,.3.2.6.6.6s.6-.2.6-.5Z"/>
      <path class="st0" d="M73.1,14.6h0c0-.5.2-.7.6-.9-.3-.2-.5-.4-.5-.8h0c0-.6.5-1,1.3-1s1.3.4,1.3,1h0c0,.4-.2.6-.5.8.4.2.6.4.6.9h0c0,.7-.6,1.1-1.4,1.1s-1.4-.4-1.4-1ZM75.2,14.5h0c0-.3-.3-.5-.6-.5s-.6.2-.6.4h0c0,.3.2.5.6.5s.6-.2.6-.4ZM75.1,13h0c0-.2-.2-.4-.5-.4s-.5.2-.5.4h0c0,.3.2.5.5.5s.5-.2.5-.4Z"/>
      <path class="st0" d="M79,15l1.2-1c.4-.4.6-.6.6-.9s-.2-.5-.5-.5-.5.2-.7.5l-.6-.4c.4-.5.7-.8,1.4-.8s1.2.4,1.2,1.1h0c0,.6-.3.9-1,1.4l-.6.5h1.6v.7h-2.7v-.6Z"/>
    </g>
  </g>
  <g>
    <polygon class="st0" points="24.2 9.6 17.4 16.6 24.2 16.6 24.2 9.6"/>
    <polygon class="st0" points="24.2 .2 7.8 .2 7.8 16.6 14.6 16.6 24.2 6.8 24.2 .2"/>
  </g>
</svg>