<?xml version="1.0" encoding="UTF-8"?>
<svg id="Layer_1" xmlns="http://www.w3.org/2000/svg" version="1.1" viewBox="0 0 115.8 16.6">
  <!-- Generator: Adobe Illustrator 29.6.1, SVG Export Plug-In . SVG Version: 2.1.1 Build 9)  -->
  <defs>
    <style>
      .st0, .st1 {
        fill: #a0adc0;
      }

      .st1 {
        fill-opacity: 1;
      }
    </style>
  </defs>
  <path class="st1" d="M32.6,10.3v.6s.3,0,.6,0c.3,0,.5,0,.7.2.2,0,.4.2.4.4,0,.2.1.4.1.6v.6c0,.2,0,.4,0,.7,0,.3,0,.5-.1.8-.2.2-.4.3-.8.4-.4.1-.8.2-1.2.2s-1.2-.1-1.6-.4c-.5-.3-.9-.6-1.2-1.1-.3-.4-.6-1-.7-1.6-.1-.5-.2-1-.2-1.5l3.7-5.5c.5,0,.9.1,1.2.3.4.2.7.4.9.8.3.3.5.7.6,1.1.2.4.3.9.4,1.2h.6v-3.7h-.7l-.3.5c-.3-.2-.7-.4-1.2-.6-.3-.1-.7-.2-1.1-.2l2.4-3.7-.6-.4-10.7,16.2.6.4,2.8-4.2c.3.6.6,1.2,1.1,1.6.5.5,1,.9,1.7,1.1.6.3,1.3.4,2,.4s1.3,0,2-.2c.7-.2,1.4-.4,2-.7,0-.1,0-.3-.1-.5,0-.2,0-.6,0-1.2v-.8c0-.2.1-.4.2-.5,0-.1.2-.2.4-.3.1,0,.3-.1.5-.1.2,0,.5,0,.5,0v-.6h-4.7Z"/>
  <g>
    <path class="st0" d="M47.4,10.5c0,0-.2,0-.3,0-.1,0-.2,0-.3,0-.1,0-.2.1-.2.2,0,0,0,.2,0,.3v.6c0,.4,0,.7,0,.8,0,.1,0,.3,0,.3-.4.2-.9.4-1.3.5-.4.1-.9.2-1.3.2s-.9,0-1.3-.3c-.4-.2-.8-.4-1.1-.7-.3-.3-.6-.7-.8-1.2-.2-.5-.3-1-.3-1.5s0-1,.3-1.5c.2-.5.4-.9.8-1.2.3-.3.7-.6,1.1-.8.4-.2.9-.3,1.4-.3s.7,0,1,.1c.3,0,.6.2.8.4l.2-.3h.4v2.5s-.4,0-.4,0c0-.3-.2-.5-.3-.8-.1-.3-.2-.5-.4-.7-.2-.2-.4-.4-.6-.5-.2-.1-.5-.2-.8-.2s-.7,0-1,.2c-.3.1-.5.4-.7.6-.2.3-.4.6-.5,1-.1.4-.2.9-.2,1.4s0,.9.2,1.3c.1.4.3.7.5,1,.2.3.5.5.8.7.3.2.7.3,1.1.3s.6,0,.8-.1c.2,0,.4-.2.5-.3,0-.2,0-.3,0-.5,0-.2,0-.3,0-.5v-.4c0-.1,0-.3,0-.4,0-.1-.1-.2-.2-.2-.1,0-.3,0-.4-.1-.2,0-.3,0-.4,0v-.4h3.1v.4Z"/>
    <path class="st0" d="M55.3,12.2c-.2.4-.5.7-.8.9-.3.2-.7.4-1.2.4s-.7,0-1-.2c-.3-.1-.5-.3-.7-.6-.2-.2-.3-.5-.4-.8,0-.3-.1-.7-.1-1s0-.6.2-.9c.1-.3.3-.6.4-.8.2-.2.4-.4.7-.6.3-.1.6-.2.9-.2s.7,0,.9.2c.3.1.5.3.6.5.2.2.3.4.3.7,0,.3.1.5.1.8v.3h-3.3c0,.3,0,.6,0,.9,0,.3.2.5.3.7.1.2.3.3.5.5.2.1.5.2.7.2s.6,0,.8-.2c.2-.1.4-.4.6-.8l.4.2ZM54.2,10.3c0-.2,0-.4,0-.6,0-.2,0-.4-.2-.5,0-.2-.2-.3-.3-.4-.1,0-.3-.1-.5-.1-.4,0-.6.1-.9.4-.2.3-.4.7-.4,1.2h2.3Z"/>
    <path class="st0" d="M63.8,10.8c0,.3,0,.7-.2,1-.1.3-.3.6-.5.9-.2.3-.5.5-.8.6-.3.1-.6.2-1,.2s-.6,0-.9-.2c-.3-.1-.5-.3-.8-.5-.2-.2-.4-.5-.5-.8-.1-.3-.2-.7-.2-1.1,0-.8.2-1.4.7-1.9.4-.5,1-.7,1.8-.7s1.3.2,1.7.7c.4.5.7,1.1.7,1.9ZM62.7,10.8c0-.2,0-.5,0-.8,0-.3-.1-.5-.2-.7-.1-.2-.2-.4-.4-.5-.2-.1-.4-.2-.6-.2s-.5,0-.7.2-.3.3-.4.5c-.1.2-.2.4-.2.7,0,.3,0,.5,0,.8s0,.6,0,.9c0,.3.1.5.2.7.1.2.3.4.4.5.2.1.4.2.6.2.4,0,.7-.2,1-.6.2-.4.4-1,.4-1.7Z"/>
    <path class="st0" d="M71.3,9c0,.2,0,.3-.1.5,0,.1-.2.2-.4.2s-.3,0-.4-.1c0,0-.1-.2-.1-.3s0-.1,0-.2c0,0,0-.1,0-.2-.2,0-.3,0-.6.2-.2.1-.4.3-.5.5v2.9c0,.1,0,.2,0,.3,0,0,.1.1.2.2,0,0,.2,0,.3,0,.1,0,.2,0,.3,0v.3h-2.6v-.3c0,0,.2,0,.2,0,0,0,.2,0,.2,0,0,0,.2,0,.2-.2s0-.2,0-.3v-3c0-.1,0-.2,0-.3,0-.1-.1-.2-.2-.2,0,0-.1,0-.2,0,0,0-.2,0-.3,0v-.3h1.6c0-.1,0,0,0,0v.7h0c.2-.3.4-.5.7-.6.3-.1.5-.2.7-.2s.4,0,.5.2c.1.1.2.3.2.6Z"/>
    <path class="st0" d="M79.1,12.8c.1.1.2.3.3.4,0,.2.1.4.1.6s0,.5-.2.7c-.1.2-.3.4-.5.5-.2.2-.5.3-.8.4-.3,0-.7.1-1.2.1-.7,0-1.3-.1-1.7-.3-.4-.2-.6-.5-.6-1s.1-.6.4-.8c.3-.2.6-.3,1-.3h0c0-.1-.2-.1-.3-.2-.1,0-.2,0-.3-.2,0,0-.2-.2-.2-.2,0,0,0-.2,0-.4s0-.3.2-.5c.1-.1.3-.3.6-.4h0c-.3-.2-.6-.4-.7-.7-.2-.2-.3-.5-.3-.8,0-.5.2-.9.5-1.2.3-.3.8-.5,1.3-.5s.3,0,.4,0c.1,0,.3,0,.5.1h1.7v.5h-1.2c.1.2.2.3.3.5,0,.2,0,.3,0,.5,0,.4-.2.8-.5,1.1-.4.3-.8.5-1.2.5h-.6c0,0-.2,0-.2.1,0,0-.1.2-.1.3s0,.2.1.3c0,0,.2.1.3.1,0,0,.2,0,.3,0,.1,0,.3,0,.4,0,.1,0,.3,0,.6,0,.3,0,.4,0,.5,0,.2,0,.3,0,.5.1.2,0,.3.2.4.3ZM78.7,14c0-.2,0-.3-.1-.5,0-.1-.2-.2-.4-.2,0,0-.3,0-.6,0-.3,0-.6,0-1,0-.4,0-.6.2-.8.4-.2.2-.2.4-.2.6s0,.2,0,.3c0,.1.1.2.3.3.1,0,.3.2.5.2.2,0,.4,0,.7,0,.5,0,.9,0,1.2-.3.3-.2.4-.5.4-.9ZM77.7,9.9c0-.4,0-.7-.2-.9-.2-.2-.4-.3-.7-.3s-.3,0-.4,0c-.1,0-.2.2-.3.3,0,.1-.1.2-.1.4,0,.2,0,.3,0,.5,0,.4,0,.7.2.9.2.2.4.4.6.4s.5-.1.7-.3c.2-.2.2-.5.2-.9Z"/>
    <path class="st0" d="M87.5,12.2c-.2.4-.5.7-.8.9-.3.2-.7.4-1.2.4s-.7,0-1-.2c-.3-.1-.5-.3-.7-.6-.2-.2-.3-.5-.4-.8,0-.3-.1-.7-.1-1s0-.6.2-.9c.1-.3.3-.6.4-.8.2-.2.4-.4.7-.6.3-.1.6-.2.9-.2s.7,0,.9.2c.3.1.5.3.6.5.2.2.3.4.3.7,0,.3.1.5.1.8v.3h-3.3c0,.3,0,.6,0,.9,0,.3.2.5.3.7.1.2.3.3.5.5.2.1.5.2.8.2s.6,0,.8-.2c.2-.1.4-.4.6-.8l.4.2ZM86.4,10.3c0-.2,0-.4,0-.6,0-.2,0-.4-.2-.5,0-.2-.2-.3-.3-.4-.1,0-.3-.1-.5-.1-.4,0-.6.1-.9.4-.2.3-.4.7-.4,1.2h2.3Z"/>
  </g>
</svg>