<svg xmlns="http://www.w3.org/2000/svg" version="1.1" xmlns:xlink="http://www.w3.org/1999/xlink" width="512" height="512"><svg xmlns="http://www.w3.org/2000/svg" width="512" height="512" viewBox="0 0 512 512">
  <g id="SvgjsG1009" data-name="Group 3" transform="translate(-5645 -2376)">
    <rect id="SvgjsRect1008" data-name="Rectangle 7" width="512" height="512" rx="256" transform="translate(5645 2376)" fill="#fff"></rect>
    <g id="SvgjsG1007" transform="translate(5720.631 2446.811)">
      <path id="SvgjsPath1006" data-name="Path 2" d="M233.243,96.594A96.383,96.383,0,0,1,258.5,190.832c-6.26,22.406-21.51,36.8-30.917,57.181-4.788,10.376-10.683,38.518-27.128,31.363-11.744-5.109-6.7-21.719-3.443-30.841,13.572-37.984,48.994-59.775,32.81-105.624C203.041,67.038,89.5,89.129,95.835,172.678c1.547,20.4,14.27,34.354,23.7,51.155a178.409,178.409,0,0,1,18.058,47.583c2.992,12.783.535,23.652,17.231,24.8,11.426.788,23.19-.556,34.544-.627,21.879-.137,43.816-.2,65.693,0,8.3.077,16.941,1.275,25.332.62,6.939-.542,11.064-4.2,11.776-11.256,1.585-15.681-3.558-50.238,4.133-62.66a32.969,32.969,0,0,1,3.232-3.842c9.052-8.2,20.539-3.708,14.388-21.453-1.776-5.125-4.341-10.079-6.034-15.271-6.007-18.427-7.188-37.9-12.681-56.415C263.02,16.834,119.827-7.372,53.9,84.694c-31.928,44.586-33.079,97.738-9.413,146.242C63.068,269.017,75.174,296.47,69.27,340.747c-1.389,10.418-4.846,30.439-19.148,29.091-17.538-1.653-8.508-30.261-7.849-41.117,1.192-19.631-2.7-41.428-10.089-59.571-6.238-15.317-15.768-29.115-21.584-44.632C-25.418,128.435,33.905,20.847,134.876,2.719c78.311-14.06,152.638,27.436,182.329,100.6,13.03,32.108,10.822,64.183,29,95.375,6.306,10.82,24.543,29.182,7.311,39.359-12.744,7.527-30.889-4.4-32.571,18.1-1.166,15.6,1.215,32.778.016,48.383-.745,9.691-4.858,16.975-14.822,19.15-59.06,1.2-118.571,1.2-177.631,0-8.909-1.79-13.784-7.52-15.357-16.312-.7-3.884-.2-8.273-.629-12.039-2.361-20.53-7.164-37.986-16.968-56.159-14-25.96-25.8-35.8-27.357-68.226C63.881,80.971,169.646,33.671,233.243,96.594" transform="translate(0 0)"></path>
      <rect id="SvgjsRect1005" data-name="Rectangle 4" width="115.169" height="28.792" rx="14.396" transform="translate(111.513 341.394)" fill="#0190fe"></rect>
    </g>
  </g>
</svg><style>@media (prefers-color-scheme: light) { :root { filter: none; } }
@media (prefers-color-scheme: dark) { :root { filter: none; } }
</style></svg>
