<?xml version="1.0" encoding="utf-8"?>
<!-- Generator: Adobe Illustrator 26.3.1, SVG Export Plug-In . SVG Version: 6.00 Build 0)  -->
<svg version="1.1" id="Layer_1" xmlns="http://www.w3.org/2000/svg" xmlns:xlink="http://www.w3.org/1999/xlink" x="0px" y="0px"
	 viewBox="0 0 16 16" style="enable-background:new 0 0 16 16;" xml:space="preserve">
<style type="text/css">
	.st0{clip-path:url(#SVGID_00000129185128798105559510000015117375785718861194_);}
	.st1{fill:#5E3B7F;}
</style>
<g>
	<defs>
		<rect id="SVGID_1_" x="1.3" width="13.5" height="16"/>
	</defs>
	<clipPath id="SVGID_00000160155524781806505420000018364704462801145515_">
		<use xlink:href="#SVGID_1_"  style="overflow:visible;"/>
	</clipPath>
	<g style="clip-path:url(#SVGID_00000160155524781806505420000018364704462801145515_);">
		<path class="st1" d="M11.8,7.4c0.3,0.1,0.7,0.2,1,0.4c1.1,0.6,1.7,1.5,1.9,2.7c0.2,0.9,0.1,1.8-0.2,2.6c-0.4,1.2-1.4,2-2.6,2.4
			C11,15.8,10.2,16,9.3,16c-2.6,0-5.2,0-7.8,0c-0.1,0-0.1,0-0.2,0v-0.3c0-5.1,0-10.2,0-15.3C1.3,0.1,1.4,0,1.6,0c2.5,0,5,0,7.5,0
			c1,0,1.9,0.1,2.8,0.5c1.4,0.6,2,1.7,2.1,3.1C14.1,5.4,13.4,6.6,11.8,7.4C11.8,7.3,11.8,7.4,11.8,7.4C11.8,7.4,11.8,7.4,11.8,7.4z
			 M4.2,13.7c0.1,0,0.2,0,0.2,0c1.6,0,3.3,0,4.9,0c1.3,0,2.4-0.7,2.5-2.2c0.1-1.2-0.3-2.2-1.5-2.6C10,8.8,9.6,8.7,9.2,8.7
			c-1.6,0-3.2,0-4.7,0c-0.1,0-0.2,0-0.3,0V13.7z M4.2,6.7C4.2,6.7,4.2,6.7,4.2,6.7c1.7,0,3.3,0.1,4.9,0c1,0,1.8-0.7,2-1.6
			c0.1-0.3,0.1-0.7,0-1.1C11,3.3,10.7,2.7,10,2.5C9.6,2.4,9.2,2.3,8.8,2.3c-1.5,0-2.9,0-4.4,0c-0.1,0-0.2,0-0.3,0L4.2,6.7z"/>
	</g>
</g>
</svg>
