<?xml version="1.0" encoding="utf-8"?>
<!-- Generator: Adobe Illustrator 26.3.1, SVG Export Plug-In . SVG Version: 6.00 Build 0)  -->
<svg version="1.1" id="ehb7iCamBMK1" text-rendering="geometricPrecision" shape-rendering="geometricPrecision"
	 xmlns="http://www.w3.org/2000/svg" xmlns:xlink="http://www.w3.org/1999/xlink" x="0px" y="0px" viewBox="0 0 36 36"
	 style="enable-background:new 0 0 36 36;" xml:space="preserve">
<style type="text/css">
	.st0{fill:#1F90FF;}
	.st1{fill:none;stroke:#1F90FF;}
	.st2{fill:url(#SVGID_1_);}
	.st3{fill:url(#SVGID_00000147920468499061227040000005242137972288606105_);}
	.st4{fill:url(#SVGID_00000067926228119836192490000013486572824416653481_);}
	.st5{fill:url(#SVGID_00000078725634997447027880000000170357384599266735_);}
	.st6{fill:url(#SVGID_00000181778054003281892390000006452207802008063676_);}
	.st7{fill:url(#SVGID_00000095301366105909951290000002399155305768202139_);}
	.st8{fill:url(#SVGID_00000016781973118392693180000015574053439957707936_);}
	.st9{fill:url(#SVGID_00000069376926791063751230000017746509822354273172_);}
	.st10{fill:url(#SVGID_00000136400904968246052440000012081080046849312154_);}
	.st11{fill:url(#SVGID_00000050635862606625996330000006534595766213924531_);}
	.st12{fill:url(#SVGID_00000019657627451157422950000010997440437670569138_);}
	.st13{fill:url(#SVGID_00000042004306654068035260000014508936459884608678_);}
	.st14{fill:url(#SVGID_00000146497545868524183990000017382808433709415856_);}
	.st15{fill:url(#SVGID_00000128446886835816651840000018223651126314538656_);}
	.st16{fill:url(#SVGID_00000044896507001752949410000016505177839477524151_);}
	.st17{fill:url(#SVGID_00000156567795084388829920000003051167664077224343_);}
	.st18{fill:url(#SVGID_00000044895482419109772110000004496393104205454749_);}
	.st19{fill:url(#SVGID_00000016046743062359462410000018286656178983957899_);}
	.st20{fill:url(#SVGID_00000083078213713756224090000000707345059678439103_);}
	.st21{fill:url(#SVGID_00000041268096500429003370000008870090649442247349_);}
	.st22{fill:url(#SVGID_00000060709176889557420700000007235781033578608304_);}
	.st23{fill:url(#SVGID_00000066483511084033871190000008155129750125598628_);}
	.st24{fill:url(#SVGID_00000059993657217433523500000001598486602678843809_);}
	.st25{fill:url(#SVGID_00000147205588248150333760000003527109489856231079_);}
	.st26{fill:url(#SVGID_00000109748892362657464300000008440900501020915848_);}
	.st27{fill:url(#SVGID_00000036217364173017687090000009351458714386146472_);}
	.st28{fill:url(#SVGID_00000142157742591025162300000006538170353814236803_);}
	.st29{fill:url(#SVGID_00000147941836012840577240000015425176567047463838_);}
	.st30{fill:url(#SVGID_00000137846871475038035000000017586675529004692371_);}
	.st31{fill:url(#SVGID_00000072241770715402806050000001930961605491920516_);}
	.st32{fill:url(#SVGID_00000039120338864732806990000000046638726498192794_);}
	.st33{fill:url(#SVGID_00000027568569369336159160000014592335062560794520_);}
	.st34{fill:url(#SVGID_00000165956706671871382900000013199481972999821990_);}
	.st35{fill:url(#SVGID_00000100371669639171073790000011326486351830835373_);}
	.st36{fill:url(#SVGID_00000062914629731750729250000001922326447064990615_);}
	.st37{fill:url(#SVGID_00000118367251239937686620000013729605803360025010_);}
	.st38{fill:url(#SVGID_00000028298464446591852580000013828078258093717152_);}
	.st39{fill:url(#SVGID_00000016038059154836946100000005942673295106556547_);}
	.st40{fill:url(#SVGID_00000038393332466723967800000015282401569628986008_);}
	.st41{fill:url(#SVGID_00000067931719585017868720000010449706747708417455_);}
	.st42{fill:url(#SVGID_00000165942143470929114140000010422012253994798996_);}
	.st43{fill:url(#SVGID_00000136397277945199200300000008665869462599610296_);}
	.st44{fill:url(#SVGID_00000177451374570591862110000016786280786962108295_);}
	.st45{fill:url(#SVGID_00000088107840275940574570000000752265007473459629_);}
	.st46{fill:url(#SVGID_00000180347862501279003030000017426940646443273888_);}
	.st47{fill:url(#SVGID_00000123405668876345904290000017373487786196545666_);}
	.st48{fill:url(#SVGID_00000150782200676801658210000015616625556978293384_);}
	.st49{fill:url(#SVGID_00000123401574422569045510000015987161286439514012_);}
</style>
<g>
	<path class="st0" d="M29.1,1.2c-0.3-0.3-0.7-0.3-0.9,0L17.7,11.7L17,11L27.5,0.5c0.6-0.6,1.7-0.6,2.3,0l5.7,5.7
		c0.7,0.7,0.6,1.7-0.1,2.3L25,19l-0.7-0.7L34.8,7.8c0.3-0.3,0.3-0.6,0.1-0.9L29.1,1.2z"/>
	<path class="st0" d="M7.8,34.8L18.5,24l0.7,0.7L8.5,35.5c-0.6,0.6-1.6,0.7-2.3,0.1l-5.7-5.7c-0.6-0.6-0.6-1.7,0-2.3L11,17l0.7,0.7
		L1.2,28.2c-0.3,0.3-0.3,0.7,0,0.9l5.7,5.7C7.1,35.1,7.5,35.1,7.8,34.8z"/>
	<path class="st1" d="M4.6,10.2C4.6,10.1,4.5,10,4.5,9.9L3,3l6.9,1.5c0.1,0,0.2,0.1,0.2,0.1l20,20l-5.7,5.3L4.6,10.2z M28.1,33.6
		l-1.9-1.9l5.7-5.3l1.8,1.8c1,1,1,2.6,0,3.6l-2,1.9C30.6,34.6,29.1,34.6,28.1,33.6z"/>
	
		<linearGradient id="SVGID_1_" gradientUnits="userSpaceOnUse" x1="15.1267" y1="55.0748" x2="39.6267" y2="30.5748" gradientTransform="matrix(1 0 0 -1 -8.3622 60.8347)">
		<stop  offset="0" style="stop-color:#1F90FF;stop-opacity:0"/>
		<stop  offset="1" style="stop-color:#1F90FF"/>
	</linearGradient>
	<path class="st2" d="M5.7,5.3C6,5.3,6.3,5,6.3,4.7C6.3,4.3,6,4,5.7,4C5.3,4,5,4.3,5,4.7C5,5,5.3,5.3,5.7,5.3z"/>
	
		<linearGradient id="SVGID_00000168814028653804731180000004344512656375203007_" gradientUnits="userSpaceOnUse" x1="16.288" y1="56.2361" x2="40.7879" y2="31.7361" gradientTransform="matrix(1 0 0 -1 -8.3622 60.8347)">
		<stop  offset="0" style="stop-color:#1F90FF;stop-opacity:0"/>
		<stop  offset="1" style="stop-color:#1F90FF"/>
	</linearGradient>
	<path style="fill:url(#SVGID_00000168814028653804731180000004344512656375203007_);" d="M8,5.1c0.3,0,0.5-0.2,0.5-0.5
		c0-0.3-0.2-0.5-0.5-0.5c-0.3,0-0.5,0.2-0.5,0.5C7.5,4.9,7.7,5.1,8,5.1z"/>
	
		<linearGradient id="SVGID_00000111182361222980498000000012315082512762561205_" gradientUnits="userSpaceOnUse" x1="13.9735" y1="53.9216" x2="38.4734" y2="29.4216" gradientTransform="matrix(1 0 0 -1 -8.3622 60.8347)">
		<stop  offset="0" style="stop-color:#1F90FF;stop-opacity:0"/>
		<stop  offset="1" style="stop-color:#1F90FF"/>
	</linearGradient>
	<path style="fill:url(#SVGID_00000111182361222980498000000012315082512762561205_);" d="M5.7,7.6C6,7.6,6.3,7.3,6.3,7
		S6,6.3,5.7,6.3C5.3,6.3,5,6.6,5,7S5.3,7.6,5.7,7.6z"/>
	
		<linearGradient id="SVGID_00000181046516641487481650000010866820405583831480_" gradientUnits="userSpaceOnUse" x1="15.1347" y1="55.0828" x2="39.6347" y2="30.5828" gradientTransform="matrix(1 0 0 -1 -8.3622 60.8347)">
		<stop  offset="0" style="stop-color:#1F90FF;stop-opacity:0"/>
		<stop  offset="1" style="stop-color:#1F90FF"/>
	</linearGradient>
	<path style="fill:url(#SVGID_00000181046516641487481650000010866820405583831480_);" d="M8,7.6c0.4,0,0.7-0.3,0.7-0.7
		S8.4,6.3,8,6.3S7.3,6.6,7.3,7S7.6,7.6,8,7.6z"/>
	
		<linearGradient id="SVGID_00000059304866853947954690000015447989867631913614_" gradientUnits="userSpaceOnUse" x1="16.296" y1="56.2441" x2="40.7959" y2="31.7441" gradientTransform="matrix(1 0 0 -1 -8.3622 60.8347)">
		<stop  offset="0" style="stop-color:#1F90FF;stop-opacity:0"/>
		<stop  offset="1" style="stop-color:#1F90FF"/>
	</linearGradient>
	<path style="fill:url(#SVGID_00000059304866853947954690000015447989867631913614_);" d="M10.3,7.6C10.7,7.6,11,7.3,11,7
		s-0.3-0.7-0.7-0.7C10,6.3,9.7,6.6,9.7,7S10,7.6,10.3,7.6z"/>
	
		<linearGradient id="SVGID_00000125577178507952992570000011662229675848177072_" gradientUnits="userSpaceOnUse" x1="12.8202" y1="52.7683" x2="37.3202" y2="28.2683" gradientTransform="matrix(1 0 0 -1 -8.3622 60.8347)">
		<stop  offset="0" style="stop-color:#1F90FF;stop-opacity:0"/>
		<stop  offset="1" style="stop-color:#1F90FF"/>
	</linearGradient>
	<path style="fill:url(#SVGID_00000125577178507952992570000011662229675848177072_);" d="M5.7,9.9c0.4,0,0.7-0.3,0.7-0.7
		c0-0.4-0.3-0.7-0.7-0.7C5.3,8.6,5,8.9,5,9.3C5,9.7,5.3,9.9,5.7,9.9z"/>
	
		<linearGradient id="SVGID_00000021084802217022616190000015081089517746047422_" gradientUnits="userSpaceOnUse" x1="13.9815" y1="53.9296" x2="38.4814" y2="29.4296" gradientTransform="matrix(1 0 0 -1 -8.3622 60.8347)">
		<stop  offset="0" style="stop-color:#1F90FF;stop-opacity:0"/>
		<stop  offset="1" style="stop-color:#1F90FF"/>
	</linearGradient>
	<path style="fill:url(#SVGID_00000021084802217022616190000015081089517746047422_);" d="M8,9.9c0.4,0,0.7-0.3,0.7-0.7
		c0-0.4-0.3-0.7-0.7-0.7S7.3,8.9,7.3,9.3C7.3,9.7,7.6,9.9,8,9.9z"/>
	
		<linearGradient id="SVGID_00000164484517650601466220000010002419851255697564_" gradientUnits="userSpaceOnUse" x1="15.1427" y1="55.0908" x2="39.6427" y2="30.5908" gradientTransform="matrix(1 0 0 -1 -8.3622 60.8347)">
		<stop  offset="0" style="stop-color:#1F90FF;stop-opacity:0"/>
		<stop  offset="1" style="stop-color:#1F90FF"/>
	</linearGradient>
	<path style="fill:url(#SVGID_00000164484517650601466220000010002419851255697564_);" d="M10.3,9.9c0.4,0,0.7-0.3,0.7-0.7
		c0-0.4-0.3-0.7-0.7-0.7c-0.4,0-0.7,0.3-0.7,0.7C9.7,9.7,10,9.9,10.3,9.9z"/>
	
		<linearGradient id="SVGID_00000176739968760271744890000008421460780207076266_" gradientUnits="userSpaceOnUse" x1="16.3039" y1="56.252" x2="40.8039" y2="31.7521" gradientTransform="matrix(1 0 0 -1 -8.3622 60.8347)">
		<stop  offset="0" style="stop-color:#1F90FF;stop-opacity:0"/>
		<stop  offset="1" style="stop-color:#1F90FF"/>
	</linearGradient>
	<path style="fill:url(#SVGID_00000176739968760271744890000008421460780207076266_);" d="M12.6,9.9c0.4,0,0.7-0.3,0.7-0.7
		c0-0.4-0.3-0.7-0.7-0.7c-0.4,0-0.7,0.3-0.7,0.7C12,9.7,12.3,9.9,12.6,9.9z"/>
	
		<linearGradient id="SVGID_00000016769936979280302790000004189295942673592978_" gradientUnits="userSpaceOnUse" x1="12.8282" y1="52.7763" x2="37.3282" y2="28.2763" gradientTransform="matrix(1 0 0 -1 -8.3622 60.8347)">
		<stop  offset="0" style="stop-color:#1F90FF;stop-opacity:0"/>
		<stop  offset="1" style="stop-color:#1F90FF"/>
	</linearGradient>
	<path style="fill:url(#SVGID_00000016769936979280302790000004189295942673592978_);" d="M8,12.3c0.4,0,0.7-0.3,0.7-0.7
		c0-0.4-0.3-0.7-0.7-0.7s-0.7,0.3-0.7,0.7C7.3,12,7.6,12.3,8,12.3z"/>
	
		<linearGradient id="SVGID_00000074436237076580323820000017278747381915611573_" gradientUnits="userSpaceOnUse" x1="13.9895" y1="53.9376" x2="38.4894" y2="29.4376" gradientTransform="matrix(1 0 0 -1 -8.3622 60.8347)">
		<stop  offset="0" style="stop-color:#1F90FF;stop-opacity:0"/>
		<stop  offset="1" style="stop-color:#1F90FF"/>
	</linearGradient>
	<path style="fill:url(#SVGID_00000074436237076580323820000017278747381915611573_);" d="M10.3,12.3c0.4,0,0.7-0.3,0.7-0.7
		c0-0.4-0.3-0.7-0.7-0.7c-0.4,0-0.7,0.3-0.7,0.7C9.7,12,10,12.3,10.3,12.3z"/>
	
		<linearGradient id="SVGID_00000151505553680328402100000015963323197527741100_" gradientUnits="userSpaceOnUse" x1="15.1507" y1="55.0988" x2="39.6507" y2="30.5988" gradientTransform="matrix(1 0 0 -1 -8.3622 60.8347)">
		<stop  offset="0" style="stop-color:#1F90FF;stop-opacity:0"/>
		<stop  offset="1" style="stop-color:#1F90FF"/>
	</linearGradient>
	<path style="fill:url(#SVGID_00000151505553680328402100000015963323197527741100_);" d="M12.6,12.3c0.4,0,0.7-0.3,0.7-0.7
		c0-0.4-0.3-0.7-0.7-0.7c-0.4,0-0.7,0.3-0.7,0.7C12,12,12.3,12.3,12.6,12.3z"/>
	
		<linearGradient id="SVGID_00000052819596948667319140000013783117182954864278_" gradientUnits="userSpaceOnUse" x1="16.3119" y1="56.2601" x2="40.8119" y2="31.7601" gradientTransform="matrix(1 0 0 -1 -8.3622 60.8347)">
		<stop  offset="0" style="stop-color:#1F90FF;stop-opacity:0"/>
		<stop  offset="1" style="stop-color:#1F90FF"/>
	</linearGradient>
	<path style="fill:url(#SVGID_00000052819596948667319140000013783117182954864278_);" d="M15,12.3c0.4,0,0.7-0.3,0.7-0.7
		c0-0.4-0.3-0.7-0.7-0.7c-0.4,0-0.7,0.3-0.7,0.7C14.3,12,14.6,12.3,15,12.3z"/>
	
		<linearGradient id="SVGID_00000014594871068752000150000012617465825986017923_" gradientUnits="userSpaceOnUse" x1="17.4732" y1="57.4213" x2="41.9732" y2="32.9213" gradientTransform="matrix(1 0 0 -1 -8.3622 60.8347)">
		<stop  offset="0" style="stop-color:#1F90FF;stop-opacity:0"/>
		<stop  offset="1" style="stop-color:#1F90FF"/>
	</linearGradient>
	<path style="fill:url(#SVGID_00000014594871068752000150000012617465825986017923_);" d="M17.3,12.1c0.3,0,0.5-0.2,0.5-0.5
		c0-0.3-0.2-0.5-0.5-0.5c-0.3,0-0.5,0.2-0.5,0.5C16.8,11.8,17,12.1,17.3,12.1z"/>
	
		<linearGradient id="SVGID_00000070837438615098502580000017574030236876632193_" gradientUnits="userSpaceOnUse" x1="12.8362" y1="52.7843" x2="37.3362" y2="28.2843" gradientTransform="matrix(1 0 0 -1 -8.3622 60.8347)">
		<stop  offset="0" style="stop-color:#1F90FF;stop-opacity:0"/>
		<stop  offset="1" style="stop-color:#1F90FF"/>
	</linearGradient>
	<path style="fill:url(#SVGID_00000070837438615098502580000017574030236876632193_);" d="M10.3,14.6c0.4,0,0.7-0.3,0.7-0.7
		s-0.3-0.7-0.7-0.7c-0.4,0-0.7,0.3-0.7,0.7S10,14.6,10.3,14.6z"/>
	
		<linearGradient id="SVGID_00000026873092166655780890000014884457877632764083_" gradientUnits="userSpaceOnUse" x1="13.9974" y1="53.9455" x2="38.4974" y2="29.4456" gradientTransform="matrix(1 0 0 -1 -8.3622 60.8347)">
		<stop  offset="0" style="stop-color:#1F90FF;stop-opacity:0"/>
		<stop  offset="1" style="stop-color:#1F90FF"/>
	</linearGradient>
	<path style="fill:url(#SVGID_00000026873092166655780890000014884457877632764083_);" d="M12.6,14.6c0.4,0,0.7-0.3,0.7-0.7
		s-0.3-0.7-0.7-0.7c-0.4,0-0.7,0.3-0.7,0.7S12.3,14.6,12.6,14.6z"/>
	
		<linearGradient id="SVGID_00000047043488950488293450000003128465414267200430_" gradientUnits="userSpaceOnUse" x1="15.1587" y1="55.1068" x2="39.6587" y2="30.6068" gradientTransform="matrix(1 0 0 -1 -8.3622 60.8347)">
		<stop  offset="0" style="stop-color:#1F90FF;stop-opacity:0"/>
		<stop  offset="1" style="stop-color:#1F90FF"/>
	</linearGradient>
	<path style="fill:url(#SVGID_00000047043488950488293450000003128465414267200430_);" d="M15,14.6c0.4,0,0.7-0.3,0.7-0.7
		s-0.3-0.7-0.7-0.7c-0.4,0-0.7,0.3-0.7,0.7S14.6,14.6,15,14.6z"/>
	
		<linearGradient id="SVGID_00000131366036615461477130000017293202503045594041_" gradientUnits="userSpaceOnUse" x1="16.3199" y1="56.2681" x2="40.8199" y2="31.7681" gradientTransform="matrix(1 0 0 -1 -8.3622 60.8347)">
		<stop  offset="0" style="stop-color:#1F90FF;stop-opacity:0"/>
		<stop  offset="1" style="stop-color:#1F90FF"/>
	</linearGradient>
	<path style="fill:url(#SVGID_00000131366036615461477130000017293202503045594041_);" d="M17.3,14.6c0.4,0,0.7-0.3,0.7-0.7
		s-0.3-0.7-0.7-0.7c-0.4,0-0.7,0.3-0.7,0.7S16.9,14.6,17.3,14.6z"/>
	
		<linearGradient id="SVGID_00000032615292770747808460000016199137103190030751_" gradientUnits="userSpaceOnUse" x1="12.8442" y1="52.7923" x2="37.3442" y2="28.2924" gradientTransform="matrix(1 0 0 -1 -8.3622 60.8347)">
		<stop  offset="0" style="stop-color:#1F90FF;stop-opacity:0"/>
		<stop  offset="1" style="stop-color:#1F90FF"/>
	</linearGradient>
	<path style="fill:url(#SVGID_00000032615292770747808460000016199137103190030751_);" d="M12.6,16.9c0.4,0,0.7-0.3,0.7-0.7
		c0-0.4-0.3-0.7-0.7-0.7c-0.4,0-0.7,0.3-0.7,0.7C12,16.6,12.3,16.9,12.6,16.9z"/>
	
		<linearGradient id="SVGID_00000172441561393431524580000001800379904382385853_" gradientUnits="userSpaceOnUse" x1="14.0055" y1="53.9536" x2="38.5054" y2="29.4536" gradientTransform="matrix(1 0 0 -1 -8.3622 60.8347)">
		<stop  offset="0" style="stop-color:#1F90FF;stop-opacity:0"/>
		<stop  offset="1" style="stop-color:#1F90FF"/>
	</linearGradient>
	<path style="fill:url(#SVGID_00000172441561393431524580000001800379904382385853_);" d="M15,16.9c0.4,0,0.7-0.3,0.7-0.7
		c0-0.4-0.3-0.7-0.7-0.7c-0.4,0-0.7,0.3-0.7,0.7C14.3,16.6,14.6,16.9,15,16.9z"/>
	
		<linearGradient id="SVGID_00000052822496109472133800000013732234246488637863_" gradientUnits="userSpaceOnUse" x1="15.1667" y1="55.1148" x2="39.6667" y2="30.6149" gradientTransform="matrix(1 0 0 -1 -8.3622 60.8347)">
		<stop  offset="0" style="stop-color:#1F90FF;stop-opacity:0"/>
		<stop  offset="1" style="stop-color:#1F90FF"/>
	</linearGradient>
	<path style="fill:url(#SVGID_00000052822496109472133800000013732234246488637863_);" d="M17.3,16.9c0.4,0,0.7-0.3,0.7-0.7
		c0-0.4-0.3-0.7-0.7-0.7c-0.4,0-0.7,0.3-0.7,0.7C16.6,16.6,16.9,16.9,17.3,16.9z"/>
	
		<linearGradient id="SVGID_00000122722757010111165380000017717261081875093923_" gradientUnits="userSpaceOnUse" x1="16.328" y1="56.2761" x2="40.8279" y2="31.7761" gradientTransform="matrix(1 0 0 -1 -8.3622 60.8347)">
		<stop  offset="0" style="stop-color:#1F90FF;stop-opacity:0"/>
		<stop  offset="1" style="stop-color:#1F90FF"/>
	</linearGradient>
	<path style="fill:url(#SVGID_00000122722757010111165380000017717261081875093923_);" d="M19.6,16.9c0.4,0,0.7-0.3,0.7-0.7
		c0-0.4-0.3-0.7-0.7-0.7s-0.7,0.3-0.7,0.7C18.9,16.6,19.2,16.9,19.6,16.9z"/>
	
		<linearGradient id="SVGID_00000093171910263240286750000009446417822345921170_" gradientUnits="userSpaceOnUse" x1="12.8522" y1="52.8003" x2="37.3522" y2="28.3004" gradientTransform="matrix(1 0 0 -1 -8.3622 60.8347)">
		<stop  offset="0" style="stop-color:#1F90FF;stop-opacity:0"/>
		<stop  offset="1" style="stop-color:#1F90FF"/>
	</linearGradient>
	<path style="fill:url(#SVGID_00000093171910263240286750000009446417822345921170_);" d="M15,19.2c0.4,0,0.7-0.3,0.7-0.7
		c0-0.4-0.3-0.7-0.7-0.7c-0.4,0-0.7,0.3-0.7,0.7C14.3,18.9,14.6,19.2,15,19.2z"/>
	
		<linearGradient id="SVGID_00000150781874443709272690000012514417328909740179_" gradientUnits="userSpaceOnUse" x1="14.0135" y1="53.9616" x2="38.5134" y2="29.4616" gradientTransform="matrix(1 0 0 -1 -8.3622 60.8347)">
		<stop  offset="0" style="stop-color:#1F90FF;stop-opacity:0"/>
		<stop  offset="1" style="stop-color:#1F90FF"/>
	</linearGradient>
	<path style="fill:url(#SVGID_00000150781874443709272690000012514417328909740179_);" d="M17.3,19.2c0.4,0,0.7-0.3,0.7-0.7
		c0-0.4-0.3-0.7-0.7-0.7c-0.4,0-0.7,0.3-0.7,0.7C16.6,18.9,16.9,19.2,17.3,19.2z"/>
	
		<linearGradient id="SVGID_00000180360803267841325930000014792034581033484934_" gradientUnits="userSpaceOnUse" x1="15.1747" y1="55.1228" x2="39.6747" y2="30.6228" gradientTransform="matrix(1 0 0 -1 -8.3622 60.8347)">
		<stop  offset="0" style="stop-color:#1F90FF;stop-opacity:0"/>
		<stop  offset="1" style="stop-color:#1F90FF"/>
	</linearGradient>
	<path style="fill:url(#SVGID_00000180360803267841325930000014792034581033484934_);" d="M19.6,19.2c0.4,0,0.7-0.3,0.7-0.7
		c0-0.4-0.3-0.7-0.7-0.7s-0.7,0.3-0.7,0.7C18.9,18.9,19.2,19.2,19.6,19.2z"/>
	
		<linearGradient id="SVGID_00000015356730281170654760000008436424140567338397_" gradientUnits="userSpaceOnUse" x1="16.3359" y1="56.284" x2="40.8359" y2="31.7841" gradientTransform="matrix(1 0 0 -1 -8.3622 60.8347)">
		<stop  offset="0" style="stop-color:#1F90FF;stop-opacity:0"/>
		<stop  offset="1" style="stop-color:#1F90FF"/>
	</linearGradient>
	<path style="fill:url(#SVGID_00000015356730281170654760000008436424140567338397_);" d="M21.9,19.2c0.4,0,0.7-0.3,0.7-0.7
		c0-0.4-0.3-0.7-0.7-0.7s-0.7,0.3-0.7,0.7C21.3,18.9,21.6,19.2,21.9,19.2z"/>
	
		<linearGradient id="SVGID_00000023282290681691870720000016489690286599507640_" gradientUnits="userSpaceOnUse" x1="11.8639" y1="51.812" x2="36.3639" y2="27.3121" gradientTransform="matrix(1 0 0 -1 -8.3622 60.8347)">
		<stop  offset="0" style="stop-color:#1F90FF;stop-opacity:0"/>
		<stop  offset="1" style="stop-color:#1F90FF"/>
	</linearGradient>
	<path style="fill:url(#SVGID_00000023282290681691870720000016489690286599507640_);" d="M15.2,20.9c0.3,0,0.4,0.1,0.4-0.2
		s-0.2-0.5-0.5-0.5s-0.5,0.2-0.5,0.5S15,20.9,15.2,20.9z"/>
	
		<linearGradient id="SVGID_00000132769564582593426080000013050838797389448591_" gradientUnits="userSpaceOnUse" x1="12.8602" y1="52.8083" x2="37.3602" y2="28.3084" gradientTransform="matrix(1 0 0 -1 -8.3622 60.8347)">
		<stop  offset="0" style="stop-color:#1F90FF;stop-opacity:0"/>
		<stop  offset="1" style="stop-color:#1F90FF"/>
	</linearGradient>
	<path style="fill:url(#SVGID_00000132769564582593426080000013050838797389448591_);" d="M17.3,21.5c0.4,0,0.7-0.3,0.7-0.7
		c0-0.4-0.3-0.7-0.7-0.7c-0.4,0-0.7,0.3-0.7,0.7C16.6,21.2,16.9,21.5,17.3,21.5z"/>
	
		<linearGradient id="SVGID_00000009564450661971104040000011207056204796448396_" gradientUnits="userSpaceOnUse" x1="14.0215" y1="53.9696" x2="38.5214" y2="29.4696" gradientTransform="matrix(1 0 0 -1 -8.3622 60.8347)">
		<stop  offset="0" style="stop-color:#1F90FF;stop-opacity:0"/>
		<stop  offset="1" style="stop-color:#1F90FF"/>
	</linearGradient>
	<path style="fill:url(#SVGID_00000009564450661971104040000011207056204796448396_);" d="M19.6,21.5c0.4,0,0.7-0.3,0.7-0.7
		c0-0.4-0.3-0.7-0.7-0.7s-0.7,0.3-0.7,0.7C18.9,21.2,19.2,21.5,19.6,21.5z"/>
	
		<linearGradient id="SVGID_00000173853858705032887120000017414919149751737477_" gradientUnits="userSpaceOnUse" x1="15.1827" y1="55.1308" x2="39.6827" y2="30.6308" gradientTransform="matrix(1 0 0 -1 -8.3622 60.8347)">
		<stop  offset="0" style="stop-color:#1F90FF;stop-opacity:0"/>
		<stop  offset="1" style="stop-color:#1F90FF"/>
	</linearGradient>
	<path style="fill:url(#SVGID_00000173853858705032887120000017414919149751737477_);" d="M21.9,21.5c0.4,0,0.7-0.3,0.7-0.7
		c0-0.4-0.3-0.7-0.7-0.7s-0.7,0.3-0.7,0.7C21.3,21.2,21.6,21.5,21.9,21.5z"/>
	
		<linearGradient id="SVGID_00000183962994244109257750000016355304752025244083_" gradientUnits="userSpaceOnUse" x1="16.3439" y1="56.292" x2="40.8439" y2="31.7921" gradientTransform="matrix(1 0 0 -1 -8.3622 60.8347)">
		<stop  offset="0" style="stop-color:#1F90FF;stop-opacity:0"/>
		<stop  offset="1" style="stop-color:#1F90FF"/>
	</linearGradient>
	<path style="fill:url(#SVGID_00000183962994244109257750000016355304752025244083_);" d="M24.3,21.5c0.4,0,0.7-0.3,0.7-0.7
		c0-0.4-0.3-0.7-0.7-0.7c-0.4,0-0.7,0.3-0.7,0.7C23.6,21.2,23.9,21.5,24.3,21.5z"/>
	
		<linearGradient id="SVGID_00000005975735716989025260000012716420543490632853_" gradientUnits="userSpaceOnUse" x1="12.8682" y1="52.8163" x2="37.3682" y2="28.3164" gradientTransform="matrix(1 0 0 -1 -8.3622 60.8347)">
		<stop  offset="0" style="stop-color:#1F90FF;stop-opacity:0"/>
		<stop  offset="1" style="stop-color:#1F90FF"/>
	</linearGradient>
	<path style="fill:url(#SVGID_00000005975735716989025260000012716420543490632853_);" d="M19.6,23.8c0.4,0,0.7-0.3,0.7-0.7
		c0-0.4-0.3-0.7-0.7-0.7s-0.7,0.3-0.7,0.7C18.9,23.5,19.2,23.8,19.6,23.8z"/>
	
		<linearGradient id="SVGID_00000024713202259772084690000009410468518866194848_" gradientUnits="userSpaceOnUse" x1="14.0295" y1="53.9776" x2="38.5294" y2="29.4776" gradientTransform="matrix(1 0 0 -1 -8.3622 60.8347)">
		<stop  offset="0" style="stop-color:#1F90FF;stop-opacity:0"/>
		<stop  offset="1" style="stop-color:#1F90FF"/>
	</linearGradient>
	<path style="fill:url(#SVGID_00000024713202259772084690000009410468518866194848_);" d="M21.9,23.8c0.4,0,0.7-0.3,0.7-0.7
		c0-0.4-0.3-0.7-0.7-0.7s-0.7,0.3-0.7,0.7C21.3,23.5,21.6,23.8,21.9,23.8z"/>
	
		<linearGradient id="SVGID_00000039855508922892674020000007314686408157583782_" gradientUnits="userSpaceOnUse" x1="15.1907" y1="55.1388" x2="39.6907" y2="30.6388" gradientTransform="matrix(1 0 0 -1 -8.3622 60.8347)">
		<stop  offset="0" style="stop-color:#1F90FF;stop-opacity:0"/>
		<stop  offset="1" style="stop-color:#1F90FF"/>
	</linearGradient>
	<path style="fill:url(#SVGID_00000039855508922892674020000007314686408157583782_);" d="M24.3,23.8c0.4,0,0.7-0.3,0.7-0.7
		c0-0.4-0.3-0.7-0.7-0.7c-0.4,0-0.7,0.3-0.7,0.7C23.6,23.5,23.9,23.8,24.3,23.8z"/>
	
		<linearGradient id="SVGID_00000044163149733232314080000000471172356139786645_" gradientUnits="userSpaceOnUse" x1="16.3519" y1="56.3" x2="40.8519" y2="31.8001" gradientTransform="matrix(1 0 0 -1 -8.3622 60.8347)">
		<stop  offset="0" style="stop-color:#1F90FF;stop-opacity:0"/>
		<stop  offset="1" style="stop-color:#1F90FF"/>
	</linearGradient>
	<path style="fill:url(#SVGID_00000044163149733232314080000000471172356139786645_);" d="M26.6,23.8c0.4,0,0.7-0.3,0.7-0.7
		c0-0.4-0.3-0.7-0.7-0.7c-0.4,0-0.7,0.3-0.7,0.7C25.9,23.5,26.2,23.8,26.6,23.8z"/>
	
		<linearGradient id="SVGID_00000168812240594039336220000002337987096026444990_" gradientUnits="userSpaceOnUse" x1="11.8157" y1="51.7638" x2="36.3157" y2="27.2638" gradientTransform="matrix(1 0 0 -1 -8.3622 60.8347)">
		<stop  offset="0" style="stop-color:#1F90FF;stop-opacity:0"/>
		<stop  offset="1" style="stop-color:#1F90FF"/>
	</linearGradient>
	<path style="fill:url(#SVGID_00000168812240594039336220000002337987096026444990_);" d="M20,25.5C20.3,25.5,20.1,25.7,20,25.5
		c0.1-0.3-0.1-0.5-0.4-0.5s-0.1,0.3-0.1,0.5C19.5,25.8,19.8,25.5,20,25.5z"/>
	
		<linearGradient id="SVGID_00000051353582724573583400000001431625379362856353_" gradientUnits="userSpaceOnUse" x1="12.8762" y1="52.8243" x2="37.3762" y2="28.3243" gradientTransform="matrix(1 0 0 -1 -8.3622 60.8347)">
		<stop  offset="0" style="stop-color:#1F90FF;stop-opacity:0"/>
		<stop  offset="1" style="stop-color:#1F90FF"/>
	</linearGradient>
	<path style="fill:url(#SVGID_00000051353582724573583400000001431625379362856353_);" d="M21.9,26.1c0.4,0,0.7-0.3,0.7-0.7
		c0-0.4-0.3-0.7-0.7-0.7s-0.7,0.3-0.7,0.7C21.3,25.8,21.6,26.1,21.9,26.1z"/>
	
		<linearGradient id="SVGID_00000168092382597991256390000013064476147638755233_" gradientUnits="userSpaceOnUse" x1="14.0375" y1="53.9856" x2="38.5374" y2="29.4856" gradientTransform="matrix(1 0 0 -1 -8.3622 60.8347)">
		<stop  offset="0" style="stop-color:#1F90FF;stop-opacity:0"/>
		<stop  offset="1" style="stop-color:#1F90FF"/>
	</linearGradient>
	<path style="fill:url(#SVGID_00000168092382597991256390000013064476147638755233_);" d="M24.3,26.1c0.4,0,0.7-0.3,0.7-0.7
		c0-0.4-0.3-0.7-0.7-0.7c-0.4,0-0.7,0.3-0.7,0.7C23.6,25.8,23.9,26.1,24.3,26.1z"/>
	
		<linearGradient id="SVGID_00000046318271819238303080000006412198953358460803_" gradientUnits="userSpaceOnUse" x1="15.1987" y1="55.1468" x2="39.6987" y2="30.6468" gradientTransform="matrix(1 0 0 -1 -8.3622 60.8347)">
		<stop  offset="0" style="stop-color:#1F90FF;stop-opacity:0"/>
		<stop  offset="1" style="stop-color:#1F90FF"/>
	</linearGradient>
	<path style="fill:url(#SVGID_00000046318271819238303080000006412198953358460803_);" d="M26.6,26.1c0.4,0,0.7-0.3,0.7-0.7
		c0-0.4-0.3-0.7-0.7-0.7c-0.4,0-0.7,0.3-0.7,0.7C25.9,25.8,26.2,26.1,26.6,26.1z"/>
	
		<linearGradient id="SVGID_00000030453580966095888240000011643050767518586266_" gradientUnits="userSpaceOnUse" x1="16.36" y1="56.3081" x2="40.8599" y2="31.8081" gradientTransform="matrix(1 0 0 -1 -8.3622 60.8347)">
		<stop  offset="0" style="stop-color:#1F90FF;stop-opacity:0"/>
		<stop  offset="1" style="stop-color:#1F90FF"/>
	</linearGradient>
	<path style="fill:url(#SVGID_00000030453580966095888240000011643050767518586266_);" d="M28.9,25.9c0.3,0,0.5-0.2,0.5-0.5
		c0-0.3-0.2-0.5-0.5-0.5c-0.3,0-0.5,0.2-0.5,0.5C28.4,25.7,28.6,25.9,28.9,25.9z"/>
	
		<linearGradient id="SVGID_00000102546702255395113300000005170585760073657257_" gradientUnits="userSpaceOnUse" x1="12.8842" y1="52.8323" x2="37.3842" y2="28.3323" gradientTransform="matrix(1 0 0 -1 -8.3622 60.8347)">
		<stop  offset="0" style="stop-color:#1F90FF;stop-opacity:0"/>
		<stop  offset="1" style="stop-color:#1F90FF"/>
	</linearGradient>
	<path style="fill:url(#SVGID_00000102546702255395113300000005170585760073657257_);" d="M24.3,28.4c0.4,0,0.7-0.3,0.7-0.7
		c0-0.4-0.3-0.7-0.7-0.7c-0.4,0-0.7,0.3-0.7,0.7C23.6,28.1,23.9,28.4,24.3,28.4z"/>
	
		<linearGradient id="SVGID_00000142885471808677444120000003789087070246584760_" gradientUnits="userSpaceOnUse" x1="14.0455" y1="53.9936" x2="38.5454" y2="29.4936" gradientTransform="matrix(1 0 0 -1 -8.3622 60.8347)">
		<stop  offset="0" style="stop-color:#1F90FF;stop-opacity:0"/>
		<stop  offset="1" style="stop-color:#1F90FF"/>
	</linearGradient>
	<path style="fill:url(#SVGID_00000142885471808677444120000003789087070246584760_);" d="M26.6,28.2c0.3,0,0.5-0.2,0.5-0.5
		c0-0.3-0.2-0.5-0.5-0.5c-0.3,0-0.5,0.2-0.5,0.5C26.1,28,26.3,28.2,26.6,28.2z"/>
	
		<linearGradient id="SVGID_00000152259516380288101680000008142818351352596355_" gradientUnits="userSpaceOnUse" x1="16.3679" y1="56.316" x2="40.8679" y2="31.8161" gradientTransform="matrix(1 0 0 -1 -8.3622 60.8347)">
		<stop  offset="0" style="stop-color:#1F90FF;stop-opacity:0"/>
		<stop  offset="1" style="stop-color:#1F90FF"/>
	</linearGradient>
	<path style="fill:url(#SVGID_00000152259516380288101680000008142818351352596355_);" d="M31.2,28.4c0.4,0,0.7-0.3,0.7-0.7
		c0-0.4-0.3-0.7-0.7-0.7c-0.4,0-0.7,0.3-0.7,0.7C30.6,28.1,30.9,28.4,31.2,28.4z"/>
	
		<linearGradient id="SVGID_00000046302064895203131570000016118543065225777325_" gradientUnits="userSpaceOnUse" x1="14.0535" y1="54.0016" x2="38.5534" y2="29.5016" gradientTransform="matrix(1 0 0 -1 -8.3622 60.8347)">
		<stop  offset="0" style="stop-color:#1F90FF;stop-opacity:0"/>
		<stop  offset="1" style="stop-color:#1F90FF"/>
	</linearGradient>
	<path style="fill:url(#SVGID_00000046302064895203131570000016118543065225777325_);" d="M28.9,30.7c0.4,0,0.7-0.3,0.7-0.7
		s-0.3-0.7-0.7-0.7c-0.4,0-0.7,0.3-0.7,0.7S28.5,30.7,28.9,30.7z"/>
	
		<linearGradient id="SVGID_00000087385772318137716060000010996725756953813139_" gradientUnits="userSpaceOnUse" x1="15.2147" y1="55.1628" x2="39.7147" y2="30.6628" gradientTransform="matrix(1 0 0 -1 -8.3622 60.8347)">
		<stop  offset="0" style="stop-color:#1F90FF;stop-opacity:0"/>
		<stop  offset="1" style="stop-color:#1F90FF"/>
	</linearGradient>
	<path style="fill:url(#SVGID_00000087385772318137716060000010996725756953813139_);" d="M31.2,30.7c0.4,0,0.7-0.3,0.7-0.7
		s-0.3-0.7-0.7-0.7c-0.4,0-0.7,0.3-0.7,0.7S30.9,30.7,31.2,30.7z"/>
	
		<linearGradient id="SVGID_00000150784160388039494580000016207257655072140719_" gradientUnits="userSpaceOnUse" x1="16.3759" y1="56.324" x2="40.8759" y2="31.8241" gradientTransform="matrix(1 0 0 -1 -8.3622 60.8347)">
		<stop  offset="0" style="stop-color:#1F90FF;stop-opacity:0"/>
		<stop  offset="1" style="stop-color:#1F90FF"/>
	</linearGradient>
	<path style="fill:url(#SVGID_00000150784160388039494580000016207257655072140719_);" d="M33.5,30.5c0.3,0,0.5-0.2,0.5-0.5
		c0-0.3-0.2-0.5-0.5-0.5c-0.3,0-0.5,0.2-0.5,0.5C33.1,30.3,33.3,30.5,33.5,30.5z"/>
	
		<linearGradient id="SVGID_00000037686538461551801310000012370395109887324297_" gradientUnits="userSpaceOnUse" x1="12.9002" y1="52.8483" x2="37.4002" y2="28.3483" gradientTransform="matrix(1 0 0 -1 -8.3622 60.8347)">
		<stop  offset="0" style="stop-color:#1F90FF;stop-opacity:0"/>
		<stop  offset="1" style="stop-color:#1F90FF"/>
	</linearGradient>
	<path style="fill:url(#SVGID_00000037686538461551801310000012370395109887324297_);" d="M28.9,33c0.4,0,0.7-0.3,0.7-0.7
		c0-0.4-0.3-0.7-0.7-0.7c-0.4,0-0.7,0.3-0.7,0.7C28.2,32.7,28.5,33,28.9,33z"/>
	
		<linearGradient id="SVGID_00000098189278370145815910000017654384441569640109_" gradientUnits="userSpaceOnUse" x1="14.0614" y1="54.0095" x2="38.5614" y2="29.5096" gradientTransform="matrix(1 0 0 -1 -8.3622 60.8347)">
		<stop  offset="0" style="stop-color:#1F90FF;stop-opacity:0"/>
		<stop  offset="1" style="stop-color:#1F90FF"/>
	</linearGradient>
	<path style="fill:url(#SVGID_00000098189278370145815910000017654384441569640109_);" d="M31.2,33c0.4,0,0.7-0.3,0.7-0.7
		c0-0.4-0.3-0.7-0.7-0.7c-0.4,0-0.7,0.3-0.7,0.7C30.6,32.7,30.9,33,31.2,33z"/>
</g>
</svg>
