<?xml version="1.0" encoding="utf-8"?>
<!-- Generator: Adobe Illustrator 26.3.1, SVG Export Plug-In . SVG Version: 6.00 Build 0)  -->
<svg version="1.1" id="Layer_1" xmlns="http://www.w3.org/2000/svg" xmlns:xlink="http://www.w3.org/1999/xlink" x="0px" y="0px"
	 viewBox="0 0 16 16" style="enable-background:new 0 0 16 16;" xml:space="preserve">
<style type="text/css">
	.st0{clip-path:url(#SVGID_00000146474510100397106770000010656768068459843484_);}
	.st1{fill:url(#SVGID_00000160892811643144964160000000362368981499939210_);}
</style>
<g>
	<defs>
		<rect id="SVGID_1_" y="0.1" width="16" height="15.7"/>
	</defs>
	<clipPath id="SVGID_00000024714238275976771890000012538443093913723284_">
		<use xlink:href="#SVGID_1_"  style="overflow:visible;"/>
	</clipPath>
	<g style="clip-path:url(#SVGID_00000024714238275976771890000012538443093913723284_);">
		<g>
			
				<linearGradient id="SVGID_00000123413736761551092500000006313222851377242287_" gradientUnits="userSpaceOnUse" x1="306" y1="-370.1356" x2="306" y2="-385.8643" gradientTransform="matrix(1 0 0 -1 -298 -370)">
				<stop  offset="0" style="stop-color:#F2F3F7"/>
				<stop  offset="1" style="stop-color:#D7D5E2"/>
			</linearGradient>
			<path style="fill:url(#SVGID_00000123413736761551092500000006313222851377242287_);" d="M9.5,11.7c0.5-0.1,1.1-0.2,1.6-0.4
				c1.2-0.5,1.8-1.4,2-2.6c0.1-0.7,0.1-1.4-0.1-2c-0.1-0.4-0.3-0.7-0.6-1c-0.1-0.1-0.1-0.1,0-0.2c0.2-0.7,0.1-1.3-0.1-1.9
				c0,0-0.1-0.1-0.1-0.1c-0.3,0-0.5,0-0.8,0.2c-0.4,0.2-0.8,0.4-1.2,0.6c-0.1,0.1-0.2,0.1-0.3,0C8.6,4,7.4,3.9,6.2,4.3
				c-0.1,0-0.2,0-0.3-0.1c-0.5-0.3-1-0.6-1.6-0.7C3.8,3.4,3.8,3.4,3.7,3.8C3.5,4.4,3.5,5,3.7,5.5c0,0,0,0.1,0,0.1
				C3,6.5,2.8,7.4,2.9,8.4C3,8.9,3.1,9.5,3.4,10c0.4,0.7,1,1.2,1.7,1.4c0.4,0.2,0.9,0.2,1.4,0.3c0,0,0,0,0,0
				c-0.1,0.2-0.2,0.4-0.3,0.6c0,0.1-0.1,0.2-0.1,0.3c0,0.2-0.1,0.2-0.2,0.3c-0.5,0.1-1,0.2-1.5-0.1c-0.3-0.2-0.5-0.4-0.6-0.6
				c-0.2-0.4-0.5-0.7-1-0.8c-0.2,0-0.3,0-0.5,0c-0.1,0-0.2,0.1-0.1,0.2c0.1,0.1,0.1,0.2,0.2,0.2c0.4,0.2,0.7,0.6,0.9,1.1
				c0.1,0.2,0.2,0.5,0.4,0.7C4,13.9,4.4,14,4.9,14c0.4,0,0.8,0,1.2,0c0,0.1,0,0.3,0,0.5c0,0.3,0,0.6,0,0.9c0,0.4-0.2,0.6-0.6,0.4
				c-1-0.3-1.9-0.8-2.6-1.5c-0.9-0.8-1.6-1.7-2.1-2.8C0.2,10.3-0.1,9,0,7.7c0.1-1.6,0.6-3,1.5-4.2C2.6,2,4,1,5.8,0.4
				c1-0.3,2-0.4,3-0.3C10.5,0.3,12,1,13.3,2.1c1.3,1.2,2.2,2.6,2.5,4.3c0.4,2.1,0.2,4.1-1,5.9c-1,1.6-2.4,2.8-4.2,3.4
				c-0.4,0.1-0.6,0-0.6-0.4c0-0.7,0-1.4,0-2.1c0-0.4,0-0.9-0.3-1.2C9.6,12,9.6,11.9,9.5,11.7z"/>
		</g>
	</g>
</g>
</svg>
