<?xml version="1.0" encoding="utf-8"?>
<!-- Generator: Adobe Illustrator 26.3.1, SVG Export Plug-In . SVG Version: 6.00 Build 0)  -->
<svg version="1.1" id="Layer_1" xmlns="http://www.w3.org/2000/svg" xmlns:xlink="http://www.w3.org/1999/xlink" x="0px" y="0px"
	 viewBox="0 0 16 16" style="enable-background:new 0 0 16 16;" xml:space="preserve">
<style type="text/css">
	.st0{clip-path:url(#SVGID_00000066479132563823048600000011408235137996234372_);}
	.st1{fill:#FF9A00;}
</style>
<g>
	<defs>
		<rect id="SVGID_1_" y="1.3" width="16" height="13.4"/>
	</defs>
	<clipPath id="SVGID_00000131330275493357837680000000700612931253519262_">
		<use xlink:href="#SVGID_1_"  style="overflow:visible;"/>
	</clipPath>
	<g style="clip-path:url(#SVGID_00000131330275493357837680000000700612931253519262_);">
		<path class="st1" d="M8,11.6H3.6l-0.9,3c0,0.1-0.1,0.2-0.2,0.2H0.1C0,14.7,0,14.6,0,14.5l3.9-11C3.9,3.4,4,3.2,4,3.1
			C4,2.9,4.1,2.6,4.1,2.4c0-0.1,0-0.1,0.1-0.1c0,0,0,0,0,0h3.1c0.1,0,0.1,0,0.2,0.1l4.4,12.1c0,0.1,0,0.2-0.1,0.2H9.2
			c-0.1,0-0.2,0-0.2-0.1L8,11.6z M4.2,9.5h3.3C7.4,9.3,7.2,8.7,7.1,8.4C7,8.1,6.8,7.8,6.7,7.4C6.6,7.1,6.5,6.7,6.4,6.3
			C6.2,6,6.1,5.6,6,5.3C5.9,5,5.9,4.6,5.8,4.4h0c-0.1,0.5-0.2,1-0.4,1.5C5.2,6.5,5,7.1,4.8,7.7C4.6,8.3,4.4,9,4.2,9.5L4.2,9.5z"/>
		<path class="st1" d="M14.5,4.3c-0.4,0-0.8-0.1-1.1-0.4C13.1,3.6,13,3.2,13,2.8c0-0.4,0.1-0.8,0.4-1.1c0.3-0.3,0.7-0.4,1.1-0.4
			c0.4,0,0.8,0.1,1.1,0.4C15.9,2,16,2.4,16,2.8c0,0.4-0.1,0.8-0.4,1.1C15.3,4.1,14.9,4.3,14.5,4.3z M13.2,14.5V5.8
			c0-0.1,0.1-0.2,0.2-0.2h2.2c0.1,0,0.2,0.1,0.2,0.2v8.8c0,0.1-0.1,0.2-0.2,0.2h-2.2C13.3,14.7,13.2,14.6,13.2,14.5z"/>
	</g>
</g>
</svg>
