<?xml version="1.0" encoding="utf-8"?>
<!-- Generator: Adobe Illustrator 26.3.1, SVG Export Plug-In . SVG Version: 6.00 Build 0)  -->
<svg version="1.1" id="eD246eojXCB1" text-rendering="geometricPrecision" shape-rendering="geometricPrecision"
	 xmlns="http://www.w3.org/2000/svg" xmlns:xlink="http://www.w3.org/1999/xlink" x="0px" y="0px" viewBox="0 0 36 36"
	 style="enable-background:new 0 0 36 36;" xml:space="preserve">
<style type="text/css">
	.st0{opacity:0.4;fill:none;stroke:#1F90FF;enable-background:new    ;}
	.st1{opacity:0.6;fill:none;stroke:#1F90FF;enable-background:new    ;}
	.st2{opacity:0.8;fill:none;stroke:#1F90FF;enable-background:new    ;}
	.st3{fill:url(#SVGID_1_);}
	.st4{fill:url(#SVGID_00000103263261650814317830000002863485110283828918_);}
	.st5{fill:url(#SVGID_00000115507145984425968810000008174258492181422224_);}
	.st6{fill:url(#SVGID_00000149360174105047845990000012298235599883972488_);}
	.st7{fill:url(#SVGID_00000017477160156294735090000006550674121540615344_);}
	.st8{fill:url(#SVGID_00000071543993194205399700000018198212742505642427_);}
	.st9{fill:url(#SVGID_00000078019645263847549100000014848660064582433193_);}
	.st10{fill:url(#SVGID_00000114065029031974873860000008770557635183548586_);}
	.st11{fill:url(#SVGID_00000005227849980264629750000014869790319571525253_);}
	.st12{fill:url(#SVGID_00000053525393919046054500000012917864040513831324_);}
	.st13{fill:url(#SVGID_00000001646285199980341080000016484716717786833828_);}
	.st14{fill:url(#SVGID_00000031184713719891379900000006780123687660673213_);}
	.st15{fill:url(#SVGID_00000016783362956889820120000005630439920821195407_);}
	.st16{fill:url(#SVGID_00000102521170991362901810000009229690950009612940_);}
	.st17{fill:url(#SVGID_00000134235717381554298360000013397270922259323270_);}
	.st18{fill:url(#SVGID_00000139281607643758237310000016699669768126386347_);}
	.st19{fill:url(#SVGID_00000121271205739323999280000007393042296504638096_);}
	.st20{fill:url(#SVGID_00000085248257500368270420000006375480368591863434_);}
	.st21{fill:url(#SVGID_00000124881222500211870420000003338675085093730967_);}
	.st22{fill:url(#SVGID_00000036239631779936962120000003104966271347704487_);}
	.st23{fill:url(#SVGID_00000105394167818260027120000012815135790738934953_);}
	.st24{fill:url(#SVGID_00000178182350419645657530000005548283640505709189_);}
	.st25{fill:url(#SVGID_00000029730371190212514910000013874757352567399330_);}
	.st26{fill:url(#SVGID_00000116946743032735211160000010815856918500750514_);}
	.st27{fill:url(#SVGID_00000119082083587791571360000003316223941401532295_);}
	.st28{fill:url(#SVGID_00000183968832005795743280000002987900364453642635_);}
	.st29{fill:url(#SVGID_00000159448341368712151600000016108200404057921421_);}
	.st30{fill:url(#SVGID_00000160162318991326603920000014811579376950281357_);}
	.st31{fill:url(#SVGID_00000052802500009705132010000005811217944072989375_);}
	.st32{fill:url(#SVGID_00000089540593163562215980000012812328448024890508_);}
	.st33{fill:url(#SVGID_00000162326104881075236460000014612965626369520312_);}
	.st34{fill:url(#SVGID_00000065758744623087344990000001231500863880480660_);}
	.st35{fill:url(#SVGID_00000061446832207311067580000002191136874496167843_);}
	.st36{fill:url(#SVGID_00000137113115084675433090000015362176716679777165_);}
	.st37{fill:url(#SVGID_00000143616990643437259600000006163594773650857616_);}
	.st38{fill:url(#SVGID_00000094601500440634232500000005669819428412065212_);}
	.st39{fill:url(#SVGID_00000051358696185589110260000004627868510331029657_);}
	.st40{fill:url(#SVGID_00000026846776563527395220000015600257635533210244_);}
	.st41{fill:url(#SVGID_00000011726570753575316090000002539283129709420440_);}
	.st42{fill:url(#SVGID_00000104694163651559211750000001708103282066157756_);}
	.st43{fill:url(#SVGID_00000029024013119954565120000001073333198990167742_);}
	.st44{fill:url(#SVGID_00000147215041359152478420000011037258020401914020_);}
	.st45{fill:url(#SVGID_00000138556273425612945000000011311959366011265452_);}
	.st46{fill:url(#SVGID_00000079472184458092190310000006317322509261276559_);}
	.st47{fill:url(#SVGID_00000149382165784531274920000014596977804513145240_);}
	.st48{fill:url(#SVGID_00000014611991059980381780000000949864944560526250_);}
	.st49{fill:url(#SVGID_00000153693840047050458420000000105099105857972891_);}
	.st50{fill:url(#SVGID_00000060752964404417832030000007086435343956293554_);}
	.st51{fill:url(#SVGID_00000063616666907530320190000002983065443192548771_);}
	.st52{fill:none;stroke:#1F90FF;}
</style>
<path class="st0" d="M5.7,33.5l-4.9-7.8h28.9c0.2,0,0.3,0.1,0.4,0.2l4.9,7.8H6.1C6,33.8,5.8,33.7,5.7,33.5z"/>
<path class="st1" d="M5.7,25.5l-4.9-7.8h28.9c0.2,0,0.3,0.1,0.4,0.2l4.9,7.8H6.1C6,25.8,5.8,25.7,5.7,25.5z"/>
<path class="st2" d="M5.7,17.5L0.8,9.8h28.9c0.2,0,0.3,0.1,0.4,0.2l4.9,7.8H6.1C6,17.8,5.8,17.7,5.7,17.5z"/>
<linearGradient id="SVGID_1_" gradientUnits="userSpaceOnUse" x1="10.3089" y1="58.767" x2="42.3089" y2="58.767" gradientTransform="matrix(1 0 0 -1 -8.3622 60.8347)">
	<stop  offset="0" style="stop-color:#1F90FF;stop-opacity:0"/>
	<stop  offset="1" style="stop-color:#1F90FF"/>
</linearGradient>
<path class="st3" d="M2.4,2.6c0.3,0,0.5-0.2,0.5-0.5c0-0.3-0.2-0.5-0.5-0.5S1.9,1.8,1.9,2.1C1.9,2.3,2.2,2.6,2.4,2.6z"/>
<linearGradient id="SVGID_00000148638547039570456080000008951066138897647005_" gradientUnits="userSpaceOnUse" x1="10.3089" y1="58.767" x2="42.3089" y2="58.767" gradientTransform="matrix(1 0 0 -1 -8.3622 60.8347)">
	<stop  offset="0" style="stop-color:#1F90FF;stop-opacity:0"/>
	<stop  offset="1" style="stop-color:#1F90FF"/>
</linearGradient>
<path style="fill:url(#SVGID_00000148638547039570456080000008951066138897647005_);" d="M4.8,2.6c0.3,0,0.5-0.2,0.5-0.5
	c0-0.3-0.2-0.5-0.5-0.5S4.3,1.8,4.3,2.1C4.3,2.3,4.5,2.6,4.8,2.6z"/>
<linearGradient id="SVGID_00000018209780362209883940000010364256169156873662_" gradientUnits="userSpaceOnUse" x1="10.3089" y1="58.767" x2="42.3089" y2="58.767" gradientTransform="matrix(1 0 0 -1 -8.3622 60.8347)">
	<stop  offset="0" style="stop-color:#1F90FF;stop-opacity:0"/>
	<stop  offset="1" style="stop-color:#1F90FF"/>
</linearGradient>
<path style="fill:url(#SVGID_00000018209780362209883940000010364256169156873662_);" d="M7.1,2.6c0.3,0,0.5-0.2,0.5-0.5
	c0-0.3-0.2-0.5-0.5-0.5S6.7,1.8,6.7,2.1C6.7,2.3,6.9,2.6,7.1,2.6z"/>
<linearGradient id="SVGID_00000171715351767330625100000017985446789939552700_" gradientUnits="userSpaceOnUse" x1="10.3089" y1="58.767" x2="42.3089" y2="58.767" gradientTransform="matrix(1 0 0 -1 -8.3622 60.8347)">
	<stop  offset="0" style="stop-color:#1F90FF;stop-opacity:0"/>
	<stop  offset="1" style="stop-color:#1F90FF"/>
</linearGradient>
<path style="fill:url(#SVGID_00000171715351767330625100000017985446789939552700_);" d="M9.5,2.6c0.3,0,0.5-0.2,0.5-0.5
	c0-0.3-0.2-0.5-0.5-0.5C9.2,1.6,9,1.8,9,2.1C9,2.3,9.2,2.6,9.5,2.6z"/>
<linearGradient id="SVGID_00000051354135360107151210000002524822350567699593_" gradientUnits="userSpaceOnUse" x1="10.3089" y1="58.767" x2="42.3089" y2="58.767" gradientTransform="matrix(1 0 0 -1 -8.3622 60.8347)">
	<stop  offset="0" style="stop-color:#1F90FF;stop-opacity:0"/>
	<stop  offset="1" style="stop-color:#1F90FF"/>
</linearGradient>
<path style="fill:url(#SVGID_00000051354135360107151210000002524822350567699593_);" d="M11.9,2.6c0.3,0,0.5-0.2,0.5-0.5
	c0-0.3-0.2-0.5-0.5-0.5c-0.3,0-0.5,0.2-0.5,0.5C11.3,2.4,11.6,2.6,11.9,2.6z"/>
<linearGradient id="SVGID_00000117642809962666300670000005510975607112015291_" gradientUnits="userSpaceOnUse" x1="10.3089" y1="58.767" x2="42.3089" y2="58.767" gradientTransform="matrix(1 0 0 -1 -8.3622 60.8347)">
	<stop  offset="0" style="stop-color:#1F90FF;stop-opacity:0"/>
	<stop  offset="1" style="stop-color:#1F90FF"/>
</linearGradient>
<path style="fill:url(#SVGID_00000117642809962666300670000005510975607112015291_);" d="M14.2,2.6c0.3,0,0.5-0.3,0.5-0.6
	c0-0.3-0.2-0.6-0.5-0.6c-0.3,0-0.5,0.3-0.5,0.6C13.7,2.4,13.9,2.6,14.2,2.6z"/>
<linearGradient id="SVGID_00000111186223110695666350000007955628955447711413_" gradientUnits="userSpaceOnUse" x1="10.3089" y1="58.767" x2="42.3089" y2="58.767" gradientTransform="matrix(1 0 0 -1 -8.3622 60.8347)">
	<stop  offset="0" style="stop-color:#1F90FF;stop-opacity:0"/>
	<stop  offset="1" style="stop-color:#1F90FF"/>
</linearGradient>
<path style="fill:url(#SVGID_00000111186223110695666350000007955628955447711413_);" d="M16.6,2.7c0.3,0,0.6-0.3,0.6-0.6
	c0-0.3-0.3-0.6-0.6-0.6c-0.3,0-0.6,0.3-0.6,0.6C16,2.4,16.2,2.7,16.6,2.7z"/>
<linearGradient id="SVGID_00000033340716463460275710000002148152513251801755_" gradientUnits="userSpaceOnUse" x1="10.3089" y1="58.767" x2="42.3089" y2="58.767" gradientTransform="matrix(1 0 0 -1 -8.3622 60.8347)">
	<stop  offset="0" style="stop-color:#1F90FF;stop-opacity:0"/>
	<stop  offset="1" style="stop-color:#1F90FF"/>
</linearGradient>
<path style="fill:url(#SVGID_00000033340716463460275710000002148152513251801755_);" d="M18.9,2.7c0.3,0,0.6-0.3,0.6-0.6
	c0-0.4-0.3-0.6-0.6-0.6c-0.3,0-0.6,0.3-0.6,0.6C18.3,2.4,18.6,2.7,18.9,2.7z"/>
<linearGradient id="SVGID_00000167372942036015202060000009692950144002923656_" gradientUnits="userSpaceOnUse" x1="10.3089" y1="58.767" x2="42.3089" y2="58.767" gradientTransform="matrix(1 0 0 -1 -8.3622 60.8347)">
	<stop  offset="0" style="stop-color:#1F90FF;stop-opacity:0"/>
	<stop  offset="1" style="stop-color:#1F90FF"/>
</linearGradient>
<path style="fill:url(#SVGID_00000167372942036015202060000009692950144002923656_);" d="M21.3,2.8c0.4,0,0.7-0.3,0.7-0.7
	c0-0.4-0.3-0.7-0.7-0.7s-0.7,0.3-0.7,0.7C20.6,2.4,20.9,2.8,21.3,2.8z"/>
<linearGradient id="SVGID_00000139253159637574159480000006565630627111548067_" gradientUnits="userSpaceOnUse" x1="10.3089" y1="58.767" x2="42.3089" y2="58.767" gradientTransform="matrix(1 0 0 -1 -8.3622 60.8347)">
	<stop  offset="0" style="stop-color:#1F90FF;stop-opacity:0"/>
	<stop  offset="1" style="stop-color:#1F90FF"/>
</linearGradient>
<path style="fill:url(#SVGID_00000139253159637574159480000006565630627111548067_);" d="M23.7,2.8c0.4,0,0.7-0.3,0.7-0.7
	c0-0.4-0.3-0.7-0.7-0.7c-0.4,0-0.7,0.3-0.7,0.7C23,2.5,23.3,2.8,23.7,2.8z"/>
<linearGradient id="SVGID_00000040549562409411563630000018234299572590133409_" gradientUnits="userSpaceOnUse" x1="10.3089" y1="58.767" x2="42.3089" y2="58.767" gradientTransform="matrix(1 0 0 -1 -8.3622 60.8347)">
	<stop  offset="0" style="stop-color:#1F90FF;stop-opacity:0"/>
	<stop  offset="1" style="stop-color:#1F90FF"/>
</linearGradient>
<path style="fill:url(#SVGID_00000040549562409411563630000018234299572590133409_);" d="M26,2.8c0.4,0,0.7-0.3,0.7-0.8
	c0-0.4-0.3-0.8-0.7-0.8c-0.4,0-0.7,0.3-0.7,0.8C25.3,2.5,25.6,2.8,26,2.8z"/>
<linearGradient id="SVGID_00000029046816047022137420000002118174209117909915_" gradientUnits="userSpaceOnUse" x1="10.3089" y1="58.767" x2="42.3089" y2="58.767" gradientTransform="matrix(1 0 0 -1 -8.3622 60.8347)">
	<stop  offset="0" style="stop-color:#1F90FF;stop-opacity:0"/>
	<stop  offset="1" style="stop-color:#1F90FF"/>
</linearGradient>
<path style="fill:url(#SVGID_00000029046816047022137420000002118174209117909915_);" d="M28.4,2.9c0.4,0,0.8-0.4,0.8-0.8
	c0-0.4-0.3-0.8-0.8-0.8c-0.4,0-0.8,0.4-0.8,0.8C27.6,2.5,27.9,2.9,28.4,2.9z"/>
<linearGradient id="SVGID_00000010308725279438821820000003546120377835962034_" gradientUnits="userSpaceOnUse" x1="10.3089" y1="56.3259" x2="42.3089" y2="56.3259" gradientTransform="matrix(1 0 0 -1 -8.3622 60.8347)">
	<stop  offset="0" style="stop-color:#1F90FF;stop-opacity:0"/>
	<stop  offset="1" style="stop-color:#1F90FF"/>
</linearGradient>
<path style="fill:url(#SVGID_00000010308725279438821820000003546120377835962034_);" d="M2.4,5c0.3,0,0.5-0.2,0.5-0.5
	C2.9,4.2,2.7,4,2.4,4S1.9,4.2,1.9,4.5C1.9,4.8,2.2,5,2.4,5z"/>
<linearGradient id="SVGID_00000035503835521041636360000001725078317676926372_" gradientUnits="userSpaceOnUse" x1="10.3089" y1="56.3259" x2="42.3089" y2="56.3259" gradientTransform="matrix(1 0 0 -1 -8.3622 60.8347)">
	<stop  offset="0" style="stop-color:#1F90FF;stop-opacity:0"/>
	<stop  offset="1" style="stop-color:#1F90FF"/>
</linearGradient>
<path style="fill:url(#SVGID_00000035503835521041636360000001725078317676926372_);" d="M4.8,5C5,5,5.2,4.8,5.2,4.5
	C5.2,4.2,5,4,4.8,4S4.3,4.2,4.3,4.5C4.3,4.8,4.5,5,4.8,5z"/>
<linearGradient id="SVGID_00000091730587123416510580000001741493222686056094_" gradientUnits="userSpaceOnUse" x1="10.3089" y1="56.3259" x2="42.3089" y2="56.3259" gradientTransform="matrix(1 0 0 -1 -8.3622 60.8347)">
	<stop  offset="0" style="stop-color:#1F90FF;stop-opacity:0"/>
	<stop  offset="1" style="stop-color:#1F90FF"/>
</linearGradient>
<path style="fill:url(#SVGID_00000091730587123416510580000001741493222686056094_);" d="M7.1,5c0.3,0,0.5-0.2,0.5-0.5
	C7.6,4.2,7.4,4,7.1,4S6.7,4.2,6.7,4.5C6.7,4.8,6.9,5,7.1,5z"/>
<linearGradient id="SVGID_00000176001449680249595490000013858957693836862892_" gradientUnits="userSpaceOnUse" x1="10.3089" y1="56.3259" x2="42.3089" y2="56.3259" gradientTransform="matrix(1 0 0 -1 -8.3622 60.8347)">
	<stop  offset="0" style="stop-color:#1F90FF;stop-opacity:0"/>
	<stop  offset="1" style="stop-color:#1F90FF"/>
</linearGradient>
<path style="fill:url(#SVGID_00000176001449680249595490000013858957693836862892_);" d="M9.5,5C9.8,5,10,4.8,10,4.5
	C10,4.2,9.8,4,9.5,4C9.2,4,9,4.2,9,4.5C9,4.8,9.2,5,9.5,5z"/>
<linearGradient id="SVGID_00000027607034487490478650000003632348714981394560_" gradientUnits="userSpaceOnUse" x1="10.3089" y1="56.3259" x2="42.3089" y2="56.3259" gradientTransform="matrix(1 0 0 -1 -8.3622 60.8347)">
	<stop  offset="0" style="stop-color:#1F90FF;stop-opacity:0"/>
	<stop  offset="1" style="stop-color:#1F90FF"/>
</linearGradient>
<path style="fill:url(#SVGID_00000027607034487490478650000003632348714981394560_);" d="M11.9,5c0.3,0,0.5-0.2,0.5-0.5
	c0-0.3-0.2-0.5-0.5-0.5c-0.3,0-0.5,0.2-0.5,0.5C11.3,4.8,11.6,5,11.9,5z"/>
<linearGradient id="SVGID_00000059307172317728383570000000440382326994402437_" gradientUnits="userSpaceOnUse" x1="10.3089" y1="56.3259" x2="42.3089" y2="56.3259" gradientTransform="matrix(1 0 0 -1 -8.3622 60.8347)">
	<stop  offset="0" style="stop-color:#1F90FF;stop-opacity:0"/>
	<stop  offset="1" style="stop-color:#1F90FF"/>
</linearGradient>
<path style="fill:url(#SVGID_00000059307172317728383570000000440382326994402437_);" d="M14.2,5.1c0.3,0,0.6-0.3,0.6-0.6
	c0-0.3-0.2-0.6-0.6-0.6c-0.3,0-0.6,0.3-0.6,0.6C13.7,4.8,13.9,5.1,14.2,5.1z"/>
<linearGradient id="SVGID_00000036246560164943806560000011762622535043876237_" gradientUnits="userSpaceOnUse" x1="10.3089" y1="56.3259" x2="42.3089" y2="56.3259" gradientTransform="matrix(1 0 0 -1 -8.3622 60.8347)">
	<stop  offset="0" style="stop-color:#1F90FF;stop-opacity:0"/>
	<stop  offset="1" style="stop-color:#1F90FF"/>
</linearGradient>
<path style="fill:url(#SVGID_00000036246560164943806560000011762622535043876237_);" d="M16.6,5.1c0.3,0,0.6-0.3,0.6-0.6
	c0-0.3-0.3-0.6-0.6-0.6c-0.3,0-0.6,0.3-0.6,0.6C16,4.9,16.2,5.1,16.6,5.1z"/>
<linearGradient id="SVGID_00000078005781010392091900000013959421055655433388_" gradientUnits="userSpaceOnUse" x1="10.3089" y1="56.3259" x2="42.3089" y2="56.3259" gradientTransform="matrix(1 0 0 -1 -8.3622 60.8347)">
	<stop  offset="0" style="stop-color:#1F90FF;stop-opacity:0"/>
	<stop  offset="1" style="stop-color:#1F90FF"/>
</linearGradient>
<path style="fill:url(#SVGID_00000078005781010392091900000013959421055655433388_);" d="M18.9,5.2c0.3,0,0.6-0.3,0.6-0.7
	c0-0.4-0.3-0.7-0.6-0.7s-0.6,0.3-0.6,0.7C18.3,4.9,18.6,5.2,18.9,5.2z"/>
<linearGradient id="SVGID_00000034779796513877197440000004634745763222751904_" gradientUnits="userSpaceOnUse" x1="10.3089" y1="56.3259" x2="42.3089" y2="56.3259" gradientTransform="matrix(1 0 0 -1 -8.3622 60.8347)">
	<stop  offset="0" style="stop-color:#1F90FF;stop-opacity:0"/>
	<stop  offset="1" style="stop-color:#1F90FF"/>
</linearGradient>
<path style="fill:url(#SVGID_00000034779796513877197440000004634745763222751904_);" d="M21.3,5.2c0.4,0,0.7-0.3,0.7-0.7
	c0-0.4-0.3-0.7-0.7-0.7c-0.4,0-0.7,0.3-0.7,0.7C20.6,4.9,20.9,5.2,21.3,5.2z"/>
<linearGradient id="SVGID_00000075156663135534702760000002345579340606941871_" gradientUnits="userSpaceOnUse" x1="10.3089" y1="56.3259" x2="42.3089" y2="56.3259" gradientTransform="matrix(1 0 0 -1 -8.3622 60.8347)">
	<stop  offset="0" style="stop-color:#1F90FF;stop-opacity:0"/>
	<stop  offset="1" style="stop-color:#1F90FF"/>
</linearGradient>
<path style="fill:url(#SVGID_00000075156663135534702760000002345579340606941871_);" d="M23.7,5.2c0.4,0,0.7-0.3,0.7-0.7
	c0-0.4-0.3-0.7-0.7-0.7c-0.4,0-0.7,0.3-0.7,0.7C23,4.9,23.3,5.2,23.7,5.2z"/>
<linearGradient id="SVGID_00000111162788222023602300000001743680657829643919_" gradientUnits="userSpaceOnUse" x1="10.3089" y1="56.3259" x2="42.3089" y2="56.3259" gradientTransform="matrix(1 0 0 -1 -8.3622 60.8347)">
	<stop  offset="0" style="stop-color:#1F90FF;stop-opacity:0"/>
	<stop  offset="1" style="stop-color:#1F90FF"/>
</linearGradient>
<path style="fill:url(#SVGID_00000111162788222023602300000001743680657829643919_);" d="M26,5.3c0.4,0,0.7-0.3,0.7-0.8
	c0-0.4-0.3-0.8-0.7-0.8c-0.4,0-0.7,0.3-0.7,0.8C25.3,4.9,25.6,5.3,26,5.3z"/>
<linearGradient id="SVGID_00000134939965338921029690000012341431144704653219_" gradientUnits="userSpaceOnUse" x1="10.3089" y1="56.3259" x2="42.3089" y2="56.3259" gradientTransform="matrix(1 0 0 -1 -8.3622 60.8347)">
	<stop  offset="0" style="stop-color:#1F90FF;stop-opacity:0"/>
	<stop  offset="1" style="stop-color:#1F90FF"/>
</linearGradient>
<path style="fill:url(#SVGID_00000134939965338921029690000012341431144704653219_);" d="M28.4,5.3c0.4,0,0.8-0.4,0.8-0.8
	c0-0.4-0.3-0.8-0.8-0.8c-0.4,0-0.8,0.4-0.8,0.8C27.6,4.9,27.9,5.3,28.4,5.3z"/>
<linearGradient id="SVGID_00000111168834095577494510000011912667179934528169_" gradientUnits="userSpaceOnUse" x1="10.3082" y1="56.3259" x2="42.3082" y2="56.3259" gradientTransform="matrix(1 0 0 -1 -8.3622 60.8347)">
	<stop  offset="0" style="stop-color:#1F90FF;stop-opacity:0"/>
	<stop  offset="1" style="stop-color:#1F90FF"/>
</linearGradient>
<path style="fill:url(#SVGID_00000111168834095577494510000011912667179934528169_);" d="M30.7,5c0.3,0,0.5-0.2,0.5-0.5
	C31.2,4.2,31,4,30.7,4c-0.3,0-0.5,0.2-0.5,0.5C30.3,4.8,30.5,5,30.7,5z"/>
<linearGradient id="SVGID_00000076566588625881147840000014745605945177718950_" gradientUnits="userSpaceOnUse" x1="10.3089" y1="53.8848" x2="42.3089" y2="53.8848" gradientTransform="matrix(1 0 0 -1 -8.3622 60.8347)">
	<stop  offset="0" style="stop-color:#1F90FF;stop-opacity:0"/>
	<stop  offset="1" style="stop-color:#1F90FF"/>
</linearGradient>
<path style="fill:url(#SVGID_00000076566588625881147840000014745605945177718950_);" d="M4.8,7.4c0.3,0,0.5-0.2,0.5-0.5
	c0-0.3-0.2-0.5-0.5-0.5S4.3,6.7,4.3,6.9C4.3,7.2,4.5,7.4,4.8,7.4z"/>
<linearGradient id="SVGID_00000035490202078212242300000009126321524215185311_" gradientUnits="userSpaceOnUse" x1="10.3089" y1="53.8848" x2="42.3089" y2="53.8848" gradientTransform="matrix(1 0 0 -1 -8.3622 60.8347)">
	<stop  offset="0" style="stop-color:#1F90FF;stop-opacity:0"/>
	<stop  offset="1" style="stop-color:#1F90FF"/>
</linearGradient>
<path style="fill:url(#SVGID_00000035490202078212242300000009126321524215185311_);" d="M7.1,7.4c0.3,0,0.5-0.2,0.5-0.5
	c0-0.3-0.2-0.5-0.5-0.5S6.7,6.7,6.7,6.9C6.7,7.2,6.9,7.4,7.1,7.4z"/>
<linearGradient id="SVGID_00000072995336763046710090000007998270731796833448_" gradientUnits="userSpaceOnUse" x1="10.3089" y1="53.8848" x2="42.3089" y2="53.8848" gradientTransform="matrix(1 0 0 -1 -8.3622 60.8347)">
	<stop  offset="0" style="stop-color:#1F90FF;stop-opacity:0"/>
	<stop  offset="1" style="stop-color:#1F90FF"/>
</linearGradient>
<path style="fill:url(#SVGID_00000072995336763046710090000007998270731796833448_);" d="M9.5,7.5c0.3,0,0.5-0.2,0.5-0.5
	c0-0.3-0.2-0.5-0.5-0.5C9.2,6.4,9,6.7,9,6.9C9,7.2,9.2,7.5,9.5,7.5z"/>
<linearGradient id="SVGID_00000178195217390420356920000009023013627111536266_" gradientUnits="userSpaceOnUse" x1="10.3089" y1="53.8848" x2="42.3089" y2="53.8848" gradientTransform="matrix(1 0 0 -1 -8.3622 60.8347)">
	<stop  offset="0" style="stop-color:#1F90FF;stop-opacity:0"/>
	<stop  offset="1" style="stop-color:#1F90FF"/>
</linearGradient>
<path style="fill:url(#SVGID_00000178195217390420356920000009023013627111536266_);" d="M11.9,7.5c0.3,0,0.5-0.2,0.5-0.6
	c0-0.3-0.2-0.6-0.5-0.6c-0.3,0-0.5,0.2-0.5,0.6C11.3,7.3,11.6,7.5,11.9,7.5z"/>
<linearGradient id="SVGID_00000101078354401163821200000016891630846464940165_" gradientUnits="userSpaceOnUse" x1="10.3089" y1="53.8848" x2="42.3089" y2="53.8848" gradientTransform="matrix(1 0 0 -1 -8.3622 60.8347)">
	<stop  offset="0" style="stop-color:#1F90FF;stop-opacity:0"/>
	<stop  offset="1" style="stop-color:#1F90FF"/>
</linearGradient>
<path style="fill:url(#SVGID_00000101078354401163821200000016891630846464940165_);" d="M14.2,7.5c0.3,0,0.6-0.3,0.6-0.6
	c0-0.3-0.3-0.6-0.6-0.6c-0.3,0-0.6,0.3-0.6,0.6C13.6,7.3,13.9,7.5,14.2,7.5z"/>
<linearGradient id="SVGID_00000048496818597231856720000006508769624620994207_" gradientUnits="userSpaceOnUse" x1="10.3089" y1="53.8848" x2="42.3089" y2="53.8848" gradientTransform="matrix(1 0 0 -1 -8.3622 60.8347)">
	<stop  offset="0" style="stop-color:#1F90FF;stop-opacity:0"/>
	<stop  offset="1" style="stop-color:#1F90FF"/>
</linearGradient>
<path style="fill:url(#SVGID_00000048496818597231856720000006508769624620994207_);" d="M16.6,7.6c0.3,0,0.6-0.3,0.6-0.6
	c0-0.3-0.3-0.6-0.6-0.6S16,6.6,16,6.9C16,7.3,16.2,7.6,16.6,7.6z"/>
<linearGradient id="SVGID_00000122702160979687518160000016952772788358396065_" gradientUnits="userSpaceOnUse" x1="10.3089" y1="53.8848" x2="42.3089" y2="53.8848" gradientTransform="matrix(1 0 0 -1 -8.3622 60.8347)">
	<stop  offset="0" style="stop-color:#1F90FF;stop-opacity:0"/>
	<stop  offset="1" style="stop-color:#1F90FF"/>
</linearGradient>
<path style="fill:url(#SVGID_00000122702160979687518160000016952772788358396065_);" d="M18.9,7.6c0.4,0,0.6-0.3,0.6-0.7
	c0-0.4-0.3-0.7-0.6-0.7s-0.6,0.3-0.6,0.7C18.3,7.3,18.6,7.6,18.9,7.6z"/>
<linearGradient id="SVGID_00000152240707649283080690000003656043508810757263_" gradientUnits="userSpaceOnUse" x1="10.3089" y1="53.8848" x2="42.3089" y2="53.8848" gradientTransform="matrix(1 0 0 -1 -8.3622 60.8347)">
	<stop  offset="0" style="stop-color:#1F90FF;stop-opacity:0"/>
	<stop  offset="1" style="stop-color:#1F90FF"/>
</linearGradient>
<path style="fill:url(#SVGID_00000152240707649283080690000003656043508810757263_);" d="M21.3,7.7c0.4,0,0.7-0.3,0.7-0.7
	c0-0.4-0.3-0.7-0.7-0.7s-0.7,0.3-0.7,0.7C20.6,7.3,20.9,7.7,21.3,7.7z"/>
<linearGradient id="SVGID_00000111884001001647423170000003941207731944052663_" gradientUnits="userSpaceOnUse" x1="10.3089" y1="53.8848" x2="42.3089" y2="53.8848" gradientTransform="matrix(1 0 0 -1 -8.3622 60.8347)">
	<stop  offset="0" style="stop-color:#1F90FF;stop-opacity:0"/>
	<stop  offset="1" style="stop-color:#1F90FF"/>
</linearGradient>
<path style="fill:url(#SVGID_00000111884001001647423170000003941207731944052663_);" d="M23.7,7.7c0.4,0,0.7-0.3,0.7-0.7
	c0-0.4-0.3-0.7-0.7-0.7c-0.4,0-0.7,0.3-0.7,0.7C22.9,7.4,23.3,7.7,23.7,7.7z"/>
<linearGradient id="SVGID_00000073688603891285292280000016303419686978157972_" gradientUnits="userSpaceOnUse" x1="10.3089" y1="53.8848" x2="42.3089" y2="53.8848" gradientTransform="matrix(1 0 0 -1 -8.3622 60.8347)">
	<stop  offset="0" style="stop-color:#1F90FF;stop-opacity:0"/>
	<stop  offset="1" style="stop-color:#1F90FF"/>
</linearGradient>
<path style="fill:url(#SVGID_00000073688603891285292280000016303419686978157972_);" d="M26,7.7c0.4,0,0.7-0.3,0.7-0.8
	c0-0.4-0.3-0.8-0.7-0.8s-0.7,0.3-0.7,0.8C25.3,7.4,25.6,7.7,26,7.7z"/>
<linearGradient id="SVGID_00000120518691238480797630000003245093240675731122_" gradientUnits="userSpaceOnUse" x1="10.3089" y1="53.8848" x2="42.3089" y2="53.8848" gradientTransform="matrix(1 0 0 -1 -8.3622 60.8347)">
	<stop  offset="0" style="stop-color:#1F90FF;stop-opacity:0"/>
	<stop  offset="1" style="stop-color:#1F90FF"/>
</linearGradient>
<path style="fill:url(#SVGID_00000120518691238480797630000003245093240675731122_);" d="M28.4,7.8c0.4,0,0.8-0.4,0.8-0.8
	c0-0.4-0.4-0.8-0.8-0.8c-0.4,0-0.8,0.4-0.8,0.8C27.6,7.4,27.9,7.8,28.4,7.8z"/>
<linearGradient id="SVGID_00000025419050879834469930000003373890057498224310_" gradientUnits="userSpaceOnUse" x1="10.3089" y1="53.8848" x2="42.3089" y2="53.8848" gradientTransform="matrix(1 0 0 -1 -8.3622 60.8347)">
	<stop  offset="0" style="stop-color:#1F90FF;stop-opacity:0"/>
	<stop  offset="1" style="stop-color:#1F90FF"/>
</linearGradient>
<path style="fill:url(#SVGID_00000025419050879834469930000003373890057498224310_);" d="M30.7,7.8c0.5,0,0.8-0.4,0.8-0.9
	c0-0.5-0.4-0.9-0.8-0.9c-0.5,0-0.8,0.4-0.8,0.9C29.9,7.4,30.3,7.8,30.7,7.8z"/>
<linearGradient id="SVGID_00000107577701460204935480000011267714216576284089_" gradientUnits="userSpaceOnUse" x1="10.3089" y1="51.4437" x2="42.3089" y2="51.4437" gradientTransform="matrix(1 0 0 -1 -8.3622 60.8347)">
	<stop  offset="0" style="stop-color:#1F90FF;stop-opacity:0"/>
	<stop  offset="1" style="stop-color:#1F90FF"/>
</linearGradient>
<path style="fill:url(#SVGID_00000107577701460204935480000011267714216576284089_);" d="M7.1,9.9c0.3,0,0.5-0.2,0.5-0.5
	S7.4,8.9,7.1,8.9S6.7,9.1,6.7,9.4S6.9,9.9,7.1,9.9z"/>
<linearGradient id="SVGID_00000148653793908162588090000014039060372595995314_" gradientUnits="userSpaceOnUse" x1="10.3089" y1="51.4437" x2="42.3089" y2="51.4437" gradientTransform="matrix(1 0 0 -1 -8.3622 60.8347)">
	<stop  offset="0" style="stop-color:#1F90FF;stop-opacity:0"/>
	<stop  offset="1" style="stop-color:#1F90FF"/>
</linearGradient>
<path style="fill:url(#SVGID_00000148653793908162588090000014039060372595995314_);" d="M9.5,9.9c0.3,0,0.5-0.2,0.5-0.5
	c0-0.3-0.2-0.5-0.5-0.5C9.2,8.9,9,9.1,9,9.4C9,9.7,9.2,9.9,9.5,9.9z"/>
<linearGradient id="SVGID_00000183967075554182903030000008148602438120163489_" gradientUnits="userSpaceOnUse" x1="10.3089" y1="51.4437" x2="42.3089" y2="51.4437" gradientTransform="matrix(1 0 0 -1 -8.3622 60.8347)">
	<stop  offset="0" style="stop-color:#1F90FF;stop-opacity:0"/>
	<stop  offset="1" style="stop-color:#1F90FF"/>
</linearGradient>
<path style="fill:url(#SVGID_00000183967075554182903030000008148602438120163489_);" d="M11.9,9.9c0.3,0,0.5-0.3,0.5-0.6
	c0-0.3-0.2-0.6-0.5-0.6c-0.3,0-0.5,0.3-0.5,0.6C11.3,9.7,11.6,9.9,11.9,9.9z"/>
<linearGradient id="SVGID_00000103986347665980046560000009928605670579857588_" gradientUnits="userSpaceOnUse" x1="10.3089" y1="51.4437" x2="42.3089" y2="51.4437" gradientTransform="matrix(1 0 0 -1 -8.3622 60.8347)">
	<stop  offset="0" style="stop-color:#1F90FF;stop-opacity:0"/>
	<stop  offset="1" style="stop-color:#1F90FF"/>
</linearGradient>
<path style="fill:url(#SVGID_00000103986347665980046560000009928605670579857588_);" d="M14.2,10c0.3,0,0.6-0.3,0.6-0.6
	s-0.3-0.6-0.6-0.6c-0.3,0-0.6,0.3-0.6,0.6S13.9,10,14.2,10z"/>
<linearGradient id="SVGID_00000177485986565054120550000015949352816364064909_" gradientUnits="userSpaceOnUse" x1="10.3089" y1="51.4437" x2="42.3089" y2="51.4437" gradientTransform="matrix(1 0 0 -1 -8.3622 60.8347)">
	<stop  offset="0" style="stop-color:#1F90FF;stop-opacity:0"/>
	<stop  offset="1" style="stop-color:#1F90FF"/>
</linearGradient>
<path style="fill:url(#SVGID_00000177485986565054120550000015949352816364064909_);" d="M16.6,10c0.3,0,0.6-0.3,0.6-0.6
	c0-0.4-0.3-0.6-0.6-0.6C16.2,8.7,16,9,16,9.4C16,9.7,16.2,10,16.6,10z"/>
<linearGradient id="SVGID_00000025401353628808111370000013803847057549500060_" gradientUnits="userSpaceOnUse" x1="10.3089" y1="51.4437" x2="42.3089" y2="51.4437" gradientTransform="matrix(1 0 0 -1 -8.3622 60.8347)">
	<stop  offset="0" style="stop-color:#1F90FF;stop-opacity:0"/>
	<stop  offset="1" style="stop-color:#1F90FF"/>
</linearGradient>
<path style="fill:url(#SVGID_00000025401353628808111370000013803847057549500060_);" d="M18.9,10.1c0.4,0,0.7-0.3,0.7-0.7
	c0-0.4-0.3-0.7-0.7-0.7S18.3,9,18.3,9.4C18.3,9.8,18.6,10.1,18.9,10.1z"/>
<linearGradient id="SVGID_00000091016061513843677990000017353994224650854076_" gradientUnits="userSpaceOnUse" x1="10.3089" y1="51.4437" x2="42.3089" y2="51.4437" gradientTransform="matrix(1 0 0 -1 -8.3622 60.8347)">
	<stop  offset="0" style="stop-color:#1F90FF;stop-opacity:0"/>
	<stop  offset="1" style="stop-color:#1F90FF"/>
</linearGradient>
<path style="fill:url(#SVGID_00000091016061513843677990000017353994224650854076_);" d="M21.3,10.1c0.4,0,0.7-0.3,0.7-0.7
	c0-0.4-0.3-0.7-0.7-0.7S20.6,9,20.6,9.4C20.6,9.8,20.9,10.1,21.3,10.1z"/>
<linearGradient id="SVGID_00000137095055524958949070000009750954637276581540_" gradientUnits="userSpaceOnUse" x1="10.3089" y1="51.4437" x2="42.3089" y2="51.4437" gradientTransform="matrix(1 0 0 -1 -8.3622 60.8347)">
	<stop  offset="0" style="stop-color:#1F90FF;stop-opacity:0"/>
	<stop  offset="1" style="stop-color:#1F90FF"/>
</linearGradient>
<path style="fill:url(#SVGID_00000137095055524958949070000009750954637276581540_);" d="M23.7,10.1c0.4,0,0.7-0.3,0.7-0.7
	c0-0.4-0.3-0.7-0.7-0.7c-0.4,0-0.7,0.3-0.7,0.7C22.9,9.8,23.3,10.1,23.7,10.1z"/>
<linearGradient id="SVGID_00000109000559181487475330000002112308334148508051_" gradientUnits="userSpaceOnUse" x1="10.3089" y1="51.4437" x2="42.3089" y2="51.4437" gradientTransform="matrix(1 0 0 -1 -8.3622 60.8347)">
	<stop  offset="0" style="stop-color:#1F90FF;stop-opacity:0"/>
	<stop  offset="1" style="stop-color:#1F90FF"/>
</linearGradient>
<path style="fill:url(#SVGID_00000109000559181487475330000002112308334148508051_);" d="M26,10.2c0.4,0,0.8-0.4,0.8-0.8
	c0-0.4-0.3-0.8-0.8-0.8c-0.4,0-0.8,0.4-0.8,0.8C25.2,9.8,25.6,10.2,26,10.2z"/>
<linearGradient id="SVGID_00000065777087118270814010000015826528503266396559_" gradientUnits="userSpaceOnUse" x1="10.3089" y1="51.4437" x2="42.3089" y2="51.4437" gradientTransform="matrix(1 0 0 -1 -8.3622 60.8347)">
	<stop  offset="0" style="stop-color:#1F90FF;stop-opacity:0"/>
	<stop  offset="1" style="stop-color:#1F90FF"/>
</linearGradient>
<path style="fill:url(#SVGID_00000065777087118270814010000015826528503266396559_);" d="M28.4,10.2c0.4,0,0.8-0.4,0.8-0.8
	c0-0.4-0.4-0.8-0.8-0.8c-0.4,0-0.8,0.4-0.8,0.8C27.6,9.8,27.9,10.2,28.4,10.2z"/>
<linearGradient id="SVGID_00000055680576659332859690000016351378836771629469_" gradientUnits="userSpaceOnUse" x1="10.3089" y1="51.4437" x2="42.3089" y2="51.4437" gradientTransform="matrix(1 0 0 -1 -8.3622 60.8347)">
	<stop  offset="0" style="stop-color:#1F90FF;stop-opacity:0"/>
	<stop  offset="1" style="stop-color:#1F90FF"/>
</linearGradient>
<path style="fill:url(#SVGID_00000055680576659332859690000016351378836771629469_);" d="M30.7,10.2c0.5,0,0.8-0.4,0.8-0.9
	c0-0.5-0.4-0.9-0.8-0.9c-0.5,0-0.8,0.4-0.8,0.9C29.9,9.9,30.3,10.2,30.7,10.2z"/>
<linearGradient id="SVGID_00000158727586596978942340000010449861007408060089_" gradientUnits="userSpaceOnUse" x1="10.3089" y1="51.4437" x2="42.3089" y2="51.4437" gradientTransform="matrix(1 0 0 -1 -8.3622 60.8347)">
	<stop  offset="0" style="stop-color:#1F90FF;stop-opacity:0"/>
	<stop  offset="1" style="stop-color:#1F90FF"/>
</linearGradient>
<path style="fill:url(#SVGID_00000158727586596978942340000010449861007408060089_);" d="M33.1,10.3c0.5,0,0.9-0.4,0.9-0.9
	c0-0.5-0.4-0.9-0.9-0.9c-0.5,0-0.9,0.4-0.9,0.9C32.2,9.9,32.6,10.3,33.1,10.3z"/>
<path class="st52" d="M5.7,9.5L0.8,1.8h28.9c0.2,0,0.3,0.1,0.4,0.2L35,9.8H6.1C6,9.8,5.8,9.7,5.7,9.5z"/>
</svg>
