<?xml version="1.0" encoding="utf-8"?>
<!-- Generator: Adobe Illustrator 26.3.1, SVG Export Plug-In . SVG Version: 6.00 Build 0)  -->
<svg version="1.1" id="eDvLaQ5otTe1" text-rendering="geometricPrecision" shape-rendering="geometricPrecision"
	 xmlns="http://www.w3.org/2000/svg" xmlns:xlink="http://www.w3.org/1999/xlink" x="0px" y="0px" viewBox="0 0 36 36"
	 style="enable-background:new 0 0 36 36;" xml:space="preserve">
<style type="text/css">
	.st0{fill:url(#SVGID_1_);}
	.st1{fill:url(#SVGID_00000011744548366450321890000005164526510038467509_);}
	.st2{fill:url(#SVGID_00000085210871125412776830000006046968273527516301_);}
	.st3{fill:url(#SVGID_00000130643051987154991460000012509406373380717462_);}
	.st4{fill:url(#SVGID_00000069377572886726666030000009507465467575520688_);}
	.st5{fill:url(#SVGID_00000060013554509240599540000018201824585461219983_);}
	.st6{fill:url(#SVGID_00000046320851829492661190000009468928134164800653_);}
	.st7{fill:url(#SVGID_00000029763660449331872940000008049523482733200057_);}
	.st8{fill:url(#SVGID_00000021107096977276818310000016353964209516060802_);}
	.st9{fill:url(#SVGID_00000001651411871665739010000010015643028060326796_);}
	.st10{fill:url(#SVGID_00000149367190612597313170000014961455073109954190_);}
	.st11{fill:url(#SVGID_00000128458141135607971230000017898211013180632238_);}
	.st12{fill:url(#SVGID_00000047037264365014278000000008713068925831506340_);}
	.st13{fill:url(#SVGID_00000148621975901745702570000005613650162010804917_);}
	.st14{fill:url(#SVGID_00000088811542965798376700000005884689017631365795_);}
	.st15{fill:url(#SVGID_00000144323239010423444380000007062766223297855121_);}
	.st16{fill:url(#SVGID_00000183249589380080496150000002737236124804781218_);}
	.st17{fill:url(#SVGID_00000031206210862735229740000011358833864208612247_);}
	.st18{fill:url(#SVGID_00000164489292747870674630000006842355025889611919_);}
	.st19{fill:url(#SVGID_00000038403679106520295900000015210452064110457786_);}
	.st20{fill:url(#SVGID_00000024682102759978440970000015657925689918427578_);}
	.st21{fill:url(#SVGID_00000063614027073191204020000012963435552706046643_);}
	.st22{fill:url(#SVGID_00000140716357329106768220000011804911679532814728_);}
	.st23{fill:url(#SVGID_00000102503844496173565690000003929885841142723236_);}
	.st24{fill:url(#SVGID_00000075149262185507238390000015367898394642618286_);}
	.st25{fill:url(#SVGID_00000090259790520173705650000008944612089066877351_);}
	.st26{fill:url(#SVGID_00000060001769644693471150000007715476125996235148_);}
	.st27{fill:url(#SVGID_00000029020881916074083740000004881644312022844052_);}
	.st28{fill:url(#SVGID_00000103961642031667047330000015878360615446022315_);}
	.st29{fill:url(#SVGID_00000052823996997034703060000007626370411737160370_);}
	.st30{fill:url(#SVGID_00000117649170525291307270000007117105690149372035_);}
	.st31{fill:url(#SVGID_00000153701994510390345610000014173733650449625020_);}
	.st32{fill:url(#SVGID_00000131332873510411016860000002809170426280448657_);}
	.st33{fill:url(#SVGID_00000161608950609073194990000005241884084841524630_);}
	.st34{fill:url(#SVGID_00000141451022171123298310000002864606533667372928_);}
	.st35{fill:url(#SVGID_00000004542754815620338100000000671484776185600444_);}
	.st36{fill:url(#SVGID_00000119079373277924375950000005225547640358606232_);}
	.st37{fill:url(#SVGID_00000001624288973621898240000002730155262633101980_);}
	.st38{fill:url(#SVGID_00000083769859462603936290000007428507594733485990_);}
	.st39{fill:url(#SVGID_00000165193740405135344570000008550051462529828484_);}
	.st40{fill:url(#SVGID_00000077315109135787884760000013999059909838825900_);}
	.st41{fill:url(#SVGID_00000160908887870504684780000018042513314528887730_);}
	.st42{fill:url(#SVGID_00000014626155652955697820000007511510875093694899_);}
	.st43{fill:url(#SVGID_00000100343318042700194870000005526863921425381267_);}
	.st44{fill:url(#SVGID_00000125604684985973053130000017092770285282323355_);}
	.st45{fill:url(#SVGID_00000059305029192407317810000013424759339069658265_);}
	.st46{fill:url(#SVGID_00000001630092294649358380000011738219216033937829_);}
	.st47{fill:url(#SVGID_00000041288270695423723770000004463273788882448303_);}
	.st48{fill:url(#SVGID_00000065047648642677866070000018250407870301534110_);}
	.st49{fill:url(#SVGID_00000154420019620457746320000012130681625394968731_);}
	.st50{fill:url(#SVGID_00000042705295567543645570000017442502941961250200_);}
	.st51{fill:url(#SVGID_00000042725426689643917790000015602243740260337297_);}
	.st52{fill:url(#SVGID_00000037682725469690765070000005453114583965596341_);}
	.st53{fill:url(#SVGID_00000138553065504358757790000014955949756872369284_);}
	.st54{fill:url(#SVGID_00000023991135230354244510000014174038939048509850_);}
	.st55{fill:url(#SVGID_00000111898948118448651920000001521811726966395062_);}
	.st56{fill:url(#SVGID_00000049908010003514177600000011837769733991351186_);}
	.st57{fill:url(#SVGID_00000172398400464733046450000011655983240417833915_);}
	.st58{fill:url(#SVGID_00000050635286905569500910000001468059819625383077_);}
	.st59{fill:url(#SVGID_00000056387043501021232950000004266958124917601712_);}
	.st60{fill:url(#SVGID_00000030462691727618169740000005907019197968818306_);}
	.st61{fill:url(#SVGID_00000000207796249105836440000007498922895383659919_);}
	.st62{fill:url(#SVGID_00000159453632067541921460000016301725615767127485_);}
	.st63{fill:none;stroke:#1F90FF;}
</style>
<linearGradient id="SVGID_1_" gradientUnits="userSpaceOnUse" x1="22.0801" y1="34.0125" x2="22.9961" y2="59.8875" gradientTransform="matrix(1 0 0 -1 -8.3622 60.8347)">
	<stop  offset="0" style="stop-color:#1F90FF"/>
	<stop  offset="1" style="stop-color:#1F90FF;stop-opacity:0"/>
</linearGradient>
<path class="st0" d="M14.6,2.1c0.3,0,0.5-0.2,0.5-0.5s-0.2-0.5-0.5-0.5c-0.3,0-0.5,0.2-0.5,0.5S14.3,2.1,14.6,2.1z"/>
<linearGradient id="SVGID_00000075139706590731334810000000806072025510927789_" gradientUnits="userSpaceOnUse" x1="24.577" y1="33.9241" x2="25.493" y2="59.7991" gradientTransform="matrix(1 0 0 -1 -8.3622 60.8347)">
	<stop  offset="0" style="stop-color:#1F90FF"/>
	<stop  offset="1" style="stop-color:#1F90FF;stop-opacity:0"/>
</linearGradient>
<path style="fill:url(#SVGID_00000075139706590731334810000000806072025510927789_);" d="M17.1,2.1c0.3,0,0.5-0.2,0.5-0.5
	s-0.2-0.5-0.5-0.5c-0.3,0-0.5,0.2-0.5,0.5S16.8,2.1,17.1,2.1z"/>
<linearGradient id="SVGID_00000153671676947267359900000016313293352910101412_" gradientUnits="userSpaceOnUse" x1="27.0739" y1="33.8357" x2="27.9899" y2="59.7107" gradientTransform="matrix(1 0 0 -1 -8.3622 60.8347)">
	<stop  offset="0" style="stop-color:#1F90FF"/>
	<stop  offset="1" style="stop-color:#1F90FF;stop-opacity:0"/>
</linearGradient>
<path style="fill:url(#SVGID_00000153671676947267359900000016313293352910101412_);" d="M19.6,2.1c0.3,0,0.5-0.2,0.5-0.5
	s-0.2-0.5-0.5-0.5c-0.3,0-0.5,0.2-0.5,0.5S19.3,2.1,19.6,2.1z"/>
<linearGradient id="SVGID_00000129900143517459585870000014095973900547690409_" gradientUnits="userSpaceOnUse" x1="29.5708" y1="33.7473" x2="30.4868" y2="59.6223" gradientTransform="matrix(1 0 0 -1 -8.3622 60.8347)">
	<stop  offset="0" style="stop-color:#1F90FF"/>
	<stop  offset="1" style="stop-color:#1F90FF;stop-opacity:0"/>
</linearGradient>
<path style="fill:url(#SVGID_00000129900143517459585870000014095973900547690409_);" d="M22.1,2.1c0.3,0,0.5-0.2,0.5-0.5
	s-0.2-0.5-0.5-0.5c-0.3,0-0.5,0.2-0.5,0.5S21.8,2.1,22.1,2.1z"/>
<linearGradient id="SVGID_00000158712442104713918530000015169980562827878071_" gradientUnits="userSpaceOnUse" x1="32.0676" y1="33.6589" x2="32.9836" y2="59.5339" gradientTransform="matrix(1 0 0 -1 -8.3622 60.8347)">
	<stop  offset="0" style="stop-color:#1F90FF"/>
	<stop  offset="1" style="stop-color:#1F90FF;stop-opacity:0"/>
</linearGradient>
<path style="fill:url(#SVGID_00000158712442104713918530000015169980562827878071_);" d="M24.6,2.1c0.3,0,0.5-0.2,0.5-0.5
	s-0.2-0.5-0.5-0.5c-0.3,0-0.5,0.2-0.5,0.5S24.3,2.1,24.6,2.1z"/>
<linearGradient id="SVGID_00000026139569368438212550000000223279170132988812_" gradientUnits="userSpaceOnUse" x1="22.1685" y1="34.0093" x2="23.0845" y2="59.8843" gradientTransform="matrix(1 0 0 -1 -8.3622 60.8347)">
	<stop  offset="0" style="stop-color:#1F90FF"/>
	<stop  offset="1" style="stop-color:#1F90FF;stop-opacity:0"/>
</linearGradient>
<path style="fill:url(#SVGID_00000026139569368438212550000000223279170132988812_);" d="M14.6,4.6c0.3,0,0.5-0.2,0.5-0.5
	s-0.2-0.5-0.5-0.5c-0.3,0-0.5,0.2-0.5,0.5S14.3,4.6,14.6,4.6z"/>
<linearGradient id="SVGID_00000103240501140661905950000017679099442850338239_" gradientUnits="userSpaceOnUse" x1="24.6654" y1="33.9209" x2="25.5814" y2="59.7959" gradientTransform="matrix(1 0 0 -1 -8.3622 60.8347)">
	<stop  offset="0" style="stop-color:#1F90FF"/>
	<stop  offset="1" style="stop-color:#1F90FF;stop-opacity:0"/>
</linearGradient>
<path style="fill:url(#SVGID_00000103240501140661905950000017679099442850338239_);" d="M17.1,4.6c0.3,0,0.5-0.2,0.5-0.5
	s-0.2-0.5-0.5-0.5c-0.3,0-0.5,0.2-0.5,0.5S16.8,4.6,17.1,4.6z"/>
<linearGradient id="SVGID_00000111874381146705968510000011469213093822434994_" gradientUnits="userSpaceOnUse" x1="27.1623" y1="33.8325" x2="28.0783" y2="59.7075" gradientTransform="matrix(1 0 0 -1 -8.3622 60.8347)">
	<stop  offset="0" style="stop-color:#1F90FF"/>
	<stop  offset="1" style="stop-color:#1F90FF;stop-opacity:0"/>
</linearGradient>
<path style="fill:url(#SVGID_00000111874381146705968510000011469213093822434994_);" d="M19.6,4.6c0.3,0,0.5-0.2,0.5-0.5
	s-0.2-0.5-0.5-0.5c-0.3,0-0.5,0.2-0.5,0.5S19.3,4.6,19.6,4.6z"/>
<linearGradient id="SVGID_00000029010474470672021050000010964762543169696433_" gradientUnits="userSpaceOnUse" x1="29.6591" y1="33.7442" x2="30.5751" y2="59.6192" gradientTransform="matrix(1 0 0 -1 -8.3622 60.8347)">
	<stop  offset="0" style="stop-color:#1F90FF"/>
	<stop  offset="1" style="stop-color:#1F90FF;stop-opacity:0"/>
</linearGradient>
<path style="fill:url(#SVGID_00000029010474470672021050000010964762543169696433_);" d="M22.1,4.6c0.3,0,0.5-0.2,0.5-0.5
	s-0.2-0.5-0.5-0.5c-0.3,0-0.5,0.2-0.5,0.5S21.8,4.6,22.1,4.6z"/>
<linearGradient id="SVGID_00000127748703635184129950000016664234654701884033_" gradientUnits="userSpaceOnUse" x1="19.76" y1="34.0946" x2="20.676" y2="59.9696" gradientTransform="matrix(1 0 0 -1 -8.3622 60.8347)">
	<stop  offset="0" style="stop-color:#1F90FF"/>
	<stop  offset="1" style="stop-color:#1F90FF;stop-opacity:0"/>
</linearGradient>
<path style="fill:url(#SVGID_00000127748703635184129950000016664234654701884033_);" d="M12.1,7.1c0.3,0,0.5-0.2,0.5-0.5
	s-0.2-0.5-0.5-0.5c-0.3,0-0.5,0.2-0.5,0.5S11.8,7.1,12.1,7.1z"/>
<linearGradient id="SVGID_00000102542657867251642630000003604221658944501938_" gradientUnits="userSpaceOnUse" x1="22.2569" y1="34.0062" x2="23.1729" y2="59.8812" gradientTransform="matrix(1 0 0 -1 -8.3622 60.8347)">
	<stop  offset="0" style="stop-color:#1F90FF"/>
	<stop  offset="1" style="stop-color:#1F90FF;stop-opacity:0"/>
</linearGradient>
<path style="fill:url(#SVGID_00000102542657867251642630000003604221658944501938_);" d="M14.6,7.1c0.3,0,0.5-0.2,0.5-0.5
	s-0.2-0.5-0.5-0.5c-0.3,0-0.5,0.2-0.5,0.5S14.3,7.1,14.6,7.1z"/>
<linearGradient id="SVGID_00000042012318245799218010000009138561283127602092_" gradientUnits="userSpaceOnUse" x1="24.7538" y1="33.9178" x2="25.6698" y2="59.7928" gradientTransform="matrix(1 0 0 -1 -8.3622 60.8347)">
	<stop  offset="0" style="stop-color:#1F90FF"/>
	<stop  offset="1" style="stop-color:#1F90FF;stop-opacity:0"/>
</linearGradient>
<path style="fill:url(#SVGID_00000042012318245799218010000009138561283127602092_);" d="M17.1,7.1c0.3,0,0.5-0.2,0.5-0.5
	s-0.2-0.5-0.5-0.5c-0.3,0-0.5,0.2-0.5,0.5S16.8,7.1,17.1,7.1z"/>
<linearGradient id="SVGID_00000075877755492108155450000005733977645310300294_" gradientUnits="userSpaceOnUse" x1="27.2507" y1="33.8294" x2="28.1667" y2="59.7044" gradientTransform="matrix(1 0 0 -1 -8.3622 60.8347)">
	<stop  offset="0" style="stop-color:#1F90FF"/>
	<stop  offset="1" style="stop-color:#1F90FF;stop-opacity:0"/>
</linearGradient>
<path style="fill:url(#SVGID_00000075877755492108155450000005733977645310300294_);" d="M19.6,7.1c0.3,0,0.5-0.2,0.5-0.5
	s-0.2-0.5-0.5-0.5c-0.3,0-0.5,0.2-0.5,0.5S19.3,7.1,19.6,7.1z"/>
<linearGradient id="SVGID_00000130615928286122747870000003931272615842052275_" gradientUnits="userSpaceOnUse" x1="29.7475" y1="33.741" x2="30.6635" y2="59.616" gradientTransform="matrix(1 0 0 -1 -8.3622 60.8347)">
	<stop  offset="0" style="stop-color:#1F90FF"/>
	<stop  offset="1" style="stop-color:#1F90FF;stop-opacity:0"/>
</linearGradient>
<path style="fill:url(#SVGID_00000130615928286122747870000003931272615842052275_);" d="M22.1,7.1c0.3,0,0.5-0.2,0.5-0.5
	s-0.2-0.5-0.5-0.5c-0.3,0-0.5,0.2-0.5,0.5S21.8,7.1,22.1,7.1z"/>
<linearGradient id="SVGID_00000152239429446725513650000005250374924721509260_" gradientUnits="userSpaceOnUse" x1="19.8484" y1="34.0915" x2="20.7644" y2="59.9665" gradientTransform="matrix(1 0 0 -1 -8.3622 60.8347)">
	<stop  offset="0" style="stop-color:#1F90FF"/>
	<stop  offset="1" style="stop-color:#1F90FF;stop-opacity:0"/>
</linearGradient>
<path style="fill:url(#SVGID_00000152239429446725513650000005250374924721509260_);" d="M12.1,9.6c0.3,0,0.5-0.2,0.5-0.5
	s-0.2-0.5-0.5-0.5c-0.3,0-0.5,0.2-0.5,0.5S11.8,9.6,12.1,9.6z"/>
<linearGradient id="SVGID_00000133505027031493885500000016281607752417945514_" gradientUnits="userSpaceOnUse" x1="22.3453" y1="34.0031" x2="23.2613" y2="59.8781" gradientTransform="matrix(1 0 0 -1 -8.3622 60.8347)">
	<stop  offset="0" style="stop-color:#1F90FF"/>
	<stop  offset="1" style="stop-color:#1F90FF;stop-opacity:0"/>
</linearGradient>
<path style="fill:url(#SVGID_00000133505027031493885500000016281607752417945514_);" d="M14.6,9.6c0.3,0,0.5-0.2,0.5-0.5
	s-0.2-0.5-0.5-0.5c-0.3,0-0.5,0.2-0.5,0.5S14.3,9.6,14.6,9.6z"/>
<linearGradient id="SVGID_00000086661699623103153930000005965958672933983927_" gradientUnits="userSpaceOnUse" x1="24.8422" y1="33.9147" x2="25.7582" y2="59.7897" gradientTransform="matrix(1 0 0 -1 -8.3622 60.8347)">
	<stop  offset="0" style="stop-color:#1F90FF"/>
	<stop  offset="1" style="stop-color:#1F90FF;stop-opacity:0"/>
</linearGradient>
<path style="fill:url(#SVGID_00000086661699623103153930000005965958672933983927_);" d="M17.1,9.6c0.3,0,0.5-0.2,0.5-0.5
	s-0.2-0.5-0.5-0.5c-0.3,0-0.5,0.2-0.5,0.5S16.8,9.6,17.1,9.6z"/>
<linearGradient id="SVGID_00000175292524610515321110000017969388145756914347_" gradientUnits="userSpaceOnUse" x1="27.3391" y1="33.8263" x2="28.2551" y2="59.7013" gradientTransform="matrix(1 0 0 -1 -8.3622 60.8347)">
	<stop  offset="0" style="stop-color:#1F90FF"/>
	<stop  offset="1" style="stop-color:#1F90FF;stop-opacity:0"/>
</linearGradient>
<path style="fill:url(#SVGID_00000175292524610515321110000017969388145756914347_);" d="M19.6,9.6c0.3,0,0.5-0.2,0.5-0.5
	s-0.2-0.5-0.5-0.5c-0.3,0-0.5,0.2-0.5,0.5S19.3,9.6,19.6,9.6z"/>
<linearGradient id="SVGID_00000103959557271413670780000005697920793737892999_" gradientUnits="userSpaceOnUse" x1="17.4399" y1="34.1767" x2="18.3559" y2="60.0517" gradientTransform="matrix(1 0 0 -1 -8.3622 60.8347)">
	<stop  offset="0" style="stop-color:#1F90FF"/>
	<stop  offset="1" style="stop-color:#1F90FF;stop-opacity:0"/>
</linearGradient>
<path style="fill:url(#SVGID_00000103959557271413670780000005697920793737892999_);" d="M9.6,12.1c0.3,0,0.6-0.2,0.6-0.6
	S9.9,11,9.6,11c-0.3,0-0.6,0.2-0.6,0.6S9.3,12.1,9.6,12.1z"/>
<linearGradient id="SVGID_00000168116723925573480860000001402683092211547792_" gradientUnits="userSpaceOnUse" x1="19.9368" y1="34.0883" x2="20.8528" y2="59.9633" gradientTransform="matrix(1 0 0 -1 -8.3622 60.8347)">
	<stop  offset="0" style="stop-color:#1F90FF"/>
	<stop  offset="1" style="stop-color:#1F90FF;stop-opacity:0"/>
</linearGradient>
<path style="fill:url(#SVGID_00000168116723925573480860000001402683092211547792_);" d="M12.1,12.1c0.3,0,0.6-0.2,0.6-0.6
	S12.4,11,12.1,11c-0.3,0-0.6,0.2-0.6,0.6S11.8,12.1,12.1,12.1z"/>
<linearGradient id="SVGID_00000102527279682531142870000016413781052144997018_" gradientUnits="userSpaceOnUse" x1="22.4337" y1="33.9999" x2="23.3497" y2="59.8749" gradientTransform="matrix(1 0 0 -1 -8.3622 60.8347)">
	<stop  offset="0" style="stop-color:#1F90FF"/>
	<stop  offset="1" style="stop-color:#1F90FF;stop-opacity:0"/>
</linearGradient>
<path style="fill:url(#SVGID_00000102527279682531142870000016413781052144997018_);" d="M14.6,12.1c0.3,0,0.5-0.2,0.5-0.5
	S14.9,11,14.6,11c-0.3,0-0.5,0.2-0.5,0.5S14.3,12.1,14.6,12.1z"/>
<linearGradient id="SVGID_00000003081315368430992170000003226955543214667671_" gradientUnits="userSpaceOnUse" x1="24.9306" y1="33.9115" x2="25.8466" y2="59.7865" gradientTransform="matrix(1 0 0 -1 -8.3622 60.8347)">
	<stop  offset="0" style="stop-color:#1F90FF"/>
	<stop  offset="1" style="stop-color:#1F90FF;stop-opacity:0"/>
</linearGradient>
<path style="fill:url(#SVGID_00000003081315368430992170000003226955543214667671_);" d="M17.1,12.1c0.3,0,0.5-0.2,0.5-0.5
	S17.4,11,17.1,11s-0.5,0.2-0.5,0.5S16.8,12.1,17.1,12.1z"/>
<linearGradient id="SVGID_00000050627138477646639890000014264037303083225233_" gradientUnits="userSpaceOnUse" x1="27.4275" y1="33.8232" x2="28.3435" y2="59.6982" gradientTransform="matrix(1 0 0 -1 -8.3622 60.8347)">
	<stop  offset="0" style="stop-color:#1F90FF"/>
	<stop  offset="1" style="stop-color:#1F90FF;stop-opacity:0"/>
</linearGradient>
<path style="fill:url(#SVGID_00000050627138477646639890000014264037303083225233_);" d="M19.6,12.1c0.3,0,0.5-0.2,0.5-0.5
	S19.9,11,19.6,11s-0.5,0.2-0.5,0.5S19.3,12.1,19.6,12.1z"/>
<linearGradient id="SVGID_00000033353023730329529270000006255988817065021337_" gradientUnits="userSpaceOnUse" x1="29.9243" y1="33.7348" x2="30.8403" y2="59.6098" gradientTransform="matrix(1 0 0 -1 -8.3622 60.8347)">
	<stop  offset="0" style="stop-color:#1F90FF"/>
	<stop  offset="1" style="stop-color:#1F90FF;stop-opacity:0"/>
</linearGradient>
<path style="fill:url(#SVGID_00000033353023730329529270000006255988817065021337_);" d="M22.1,12.1c0.3,0,0.5-0.2,0.5-0.5
	S22.4,11,22.1,11c-0.3,0-0.5,0.2-0.5,0.5S21.8,12.1,22.1,12.1z"/>
<linearGradient id="SVGID_00000067918420906604024410000015251747000761022878_" gradientUnits="userSpaceOnUse" x1="32.4211" y1="33.6464" x2="33.3371" y2="59.5214" gradientTransform="matrix(1 0 0 -1 -8.3622 60.8347)">
	<stop  offset="0" style="stop-color:#1F90FF"/>
	<stop  offset="1" style="stop-color:#1F90FF;stop-opacity:0"/>
</linearGradient>
<path style="fill:url(#SVGID_00000067918420906604024410000015251747000761022878_);" d="M24.6,12.1c0.3,0,0.5-0.2,0.5-0.5
	S24.9,11,24.6,11c-0.3,0-0.5,0.2-0.5,0.5S24.3,12.1,24.6,12.1z"/>
<linearGradient id="SVGID_00000133499715289531812680000003057960134277932684_" gradientUnits="userSpaceOnUse" x1="34.918" y1="33.558" x2="35.834" y2="59.433" gradientTransform="matrix(1 0 0 -1 -8.3622 60.8347)">
	<stop  offset="0" style="stop-color:#1F90FF"/>
	<stop  offset="1" style="stop-color:#1F90FF;stop-opacity:0"/>
</linearGradient>
<path style="fill:url(#SVGID_00000133499715289531812680000003057960134277932684_);" d="M27.1,12.1c0.3,0,0.5-0.2,0.5-0.5
	S27.4,11,27.1,11c-0.3,0-0.5,0.2-0.5,0.5S26.8,12.1,27.1,12.1z"/>
<linearGradient id="SVGID_00000135660288312073432370000015030078207607632831_" gradientUnits="userSpaceOnUse" x1="37.4149" y1="33.4696" x2="38.3309" y2="59.3446" gradientTransform="matrix(1 0 0 -1 -8.3622 60.8347)">
	<stop  offset="0" style="stop-color:#1F90FF"/>
	<stop  offset="1" style="stop-color:#1F90FF;stop-opacity:0"/>
</linearGradient>
<path style="fill:url(#SVGID_00000135660288312073432370000015030078207607632831_);" d="M29.6,12.1c0.3,0,0.5-0.2,0.5-0.5
	s-0.2-0.5-0.5-0.5c-0.3,0-0.5,0.2-0.5,0.5S29.3,12.1,29.6,12.1z"/>
<linearGradient id="SVGID_00000082336409786689264770000002428247022188342177_" gradientUnits="userSpaceOnUse" x1="17.5283" y1="34.1736" x2="18.4443" y2="60.0486" gradientTransform="matrix(1 0 0 -1 -8.3622 60.8347)">
	<stop  offset="0" style="stop-color:#1F90FF"/>
	<stop  offset="1" style="stop-color:#1F90FF;stop-opacity:0"/>
</linearGradient>
<path style="fill:url(#SVGID_00000082336409786689264770000002428247022188342177_);" d="M9.6,14.7c0.3,0,0.6-0.3,0.6-0.6
	s-0.3-0.6-0.6-0.6c-0.3,0-0.6,0.3-0.6,0.6S9.3,14.7,9.6,14.7z"/>
<linearGradient id="SVGID_00000073699760661918086940000017210570601580088239_" gradientUnits="userSpaceOnUse" x1="20.0252" y1="34.0852" x2="20.9412" y2="59.9602" gradientTransform="matrix(1 0 0 -1 -8.3622 60.8347)">
	<stop  offset="0" style="stop-color:#1F90FF"/>
	<stop  offset="1" style="stop-color:#1F90FF;stop-opacity:0"/>
</linearGradient>
<path style="fill:url(#SVGID_00000073699760661918086940000017210570601580088239_);" d="M12.1,14.7c0.3,0,0.6-0.3,0.6-0.6
	s-0.3-0.6-0.6-0.6c-0.3,0-0.6,0.3-0.6,0.6S11.8,14.7,12.1,14.7z"/>
<linearGradient id="SVGID_00000137092933915051715550000006635064558387123389_" gradientUnits="userSpaceOnUse" x1="22.5221" y1="33.9968" x2="23.4381" y2="59.8718" gradientTransform="matrix(1 0 0 -1 -8.3622 60.8347)">
	<stop  offset="0" style="stop-color:#1F90FF"/>
	<stop  offset="1" style="stop-color:#1F90FF;stop-opacity:0"/>
</linearGradient>
<path style="fill:url(#SVGID_00000137092933915051715550000006635064558387123389_);" d="M14.6,14.7c0.3,0,0.6-0.3,0.6-0.6
	s-0.3-0.6-0.6-0.6c-0.3,0-0.6,0.3-0.6,0.6S14.3,14.7,14.6,14.7z"/>
<linearGradient id="SVGID_00000066504526930842129210000001575760994409799568_" gradientUnits="userSpaceOnUse" x1="25.0189" y1="33.9084" x2="25.9349" y2="59.7834" gradientTransform="matrix(1 0 0 -1 -8.3622 60.8347)">
	<stop  offset="0" style="stop-color:#1F90FF"/>
	<stop  offset="1" style="stop-color:#1F90FF;stop-opacity:0"/>
</linearGradient>
<path style="fill:url(#SVGID_00000066504526930842129210000001575760994409799568_);" d="M17.1,14.7c0.3,0,0.6-0.3,0.6-0.6
	s-0.3-0.6-0.6-0.6c-0.3,0-0.6,0.3-0.6,0.6S16.8,14.7,17.1,14.7z"/>
<linearGradient id="SVGID_00000054966461584415490840000004459669725090500760_" gradientUnits="userSpaceOnUse" x1="27.5158" y1="33.82" x2="28.4318" y2="59.695" gradientTransform="matrix(1 0 0 -1 -8.3622 60.8347)">
	<stop  offset="0" style="stop-color:#1F90FF"/>
	<stop  offset="1" style="stop-color:#1F90FF;stop-opacity:0"/>
</linearGradient>
<path style="fill:url(#SVGID_00000054966461584415490840000004459669725090500760_);" d="M19.6,14.7c0.3,0,0.6-0.3,0.6-0.6
	s-0.3-0.6-0.6-0.6c-0.3,0-0.6,0.3-0.6,0.6S19.3,14.7,19.6,14.7z"/>
<linearGradient id="SVGID_00000026884684012105890850000017488328037025700228_" gradientUnits="userSpaceOnUse" x1="30.0127" y1="33.7316" x2="30.9287" y2="59.6066" gradientTransform="matrix(1 0 0 -1 -8.3622 60.8347)">
	<stop  offset="0" style="stop-color:#1F90FF"/>
	<stop  offset="1" style="stop-color:#1F90FF;stop-opacity:0"/>
</linearGradient>
<path style="fill:url(#SVGID_00000026884684012105890850000017488328037025700228_);" d="M22.1,14.7c0.3,0,0.6-0.3,0.6-0.6
	s-0.3-0.6-0.6-0.6c-0.3,0-0.6,0.3-0.6,0.6S21.8,14.7,22.1,14.7z"/>
<linearGradient id="SVGID_00000027563124091871582250000008241031182791983504_" gradientUnits="userSpaceOnUse" x1="32.5096" y1="33.6432" x2="33.4256" y2="59.5182" gradientTransform="matrix(1 0 0 -1 -8.3622 60.8347)">
	<stop  offset="0" style="stop-color:#1F90FF"/>
	<stop  offset="1" style="stop-color:#1F90FF;stop-opacity:0"/>
</linearGradient>
<path style="fill:url(#SVGID_00000027563124091871582250000008241031182791983504_);" d="M24.6,14.7c0.3,0,0.6-0.3,0.6-0.6
	s-0.3-0.6-0.6-0.6c-0.3,0-0.6,0.3-0.6,0.6S24.3,14.7,24.6,14.7z"/>
<linearGradient id="SVGID_00000008862502856411940310000010267844331715283840_" gradientUnits="userSpaceOnUse" x1="35.0065" y1="33.5549" x2="35.9225" y2="59.4299" gradientTransform="matrix(1 0 0 -1 -8.3622 60.8347)">
	<stop  offset="0" style="stop-color:#1F90FF"/>
	<stop  offset="1" style="stop-color:#1F90FF;stop-opacity:0"/>
</linearGradient>
<path style="fill:url(#SVGID_00000008862502856411940310000010267844331715283840_);" d="M27.1,14.7c0.3,0,0.6-0.3,0.6-0.6
	s-0.3-0.6-0.6-0.6c-0.3,0-0.6,0.3-0.6,0.6S26.8,14.7,27.1,14.7z"/>
<linearGradient id="SVGID_00000144332818771496448250000017494575217563141249_" gradientUnits="userSpaceOnUse" x1="17.6167" y1="34.1705" x2="18.5327" y2="60.0455" gradientTransform="matrix(1 0 0 -1 -8.3622 60.8347)">
	<stop  offset="0" style="stop-color:#1F90FF"/>
	<stop  offset="1" style="stop-color:#1F90FF;stop-opacity:0"/>
</linearGradient>
<path style="fill:url(#SVGID_00000144332818771496448250000017494575217563141249_);" d="M9.6,17.2c0.3,0,0.6-0.3,0.6-0.6
	S10,16,9.6,16S9,16.2,9,16.6S9.3,17.2,9.6,17.2z"/>
<linearGradient id="SVGID_00000137127866008116106260000002055310414991327647_" gradientUnits="userSpaceOnUse" x1="20.1136" y1="34.0821" x2="21.0296" y2="59.9571" gradientTransform="matrix(1 0 0 -1 -8.3622 60.8347)">
	<stop  offset="0" style="stop-color:#1F90FF"/>
	<stop  offset="1" style="stop-color:#1F90FF;stop-opacity:0"/>
</linearGradient>
<path style="fill:url(#SVGID_00000137127866008116106260000002055310414991327647_);" d="M12.1,17.2c0.3,0,0.6-0.3,0.6-0.6
	S12.5,16,12.1,16s-0.6,0.3-0.6,0.6S11.8,17.2,12.1,17.2z"/>
<linearGradient id="SVGID_00000136377934651363633450000000096011462373003702_" gradientUnits="userSpaceOnUse" x1="22.6105" y1="33.9937" x2="23.5265" y2="59.8687" gradientTransform="matrix(1 0 0 -1 -8.3622 60.8347)">
	<stop  offset="0" style="stop-color:#1F90FF"/>
	<stop  offset="1" style="stop-color:#1F90FF;stop-opacity:0"/>
</linearGradient>
<path style="fill:url(#SVGID_00000136377934651363633450000000096011462373003702_);" d="M14.6,17.2c0.3,0,0.6-0.3,0.6-0.6
	S15,16,14.6,16c-0.3,0-0.6,0.3-0.6,0.6S14.3,17.2,14.6,17.2z"/>
<linearGradient id="SVGID_00000153706872089193541170000018181801706271009974_" gradientUnits="userSpaceOnUse" x1="25.1073" y1="33.9053" x2="26.0233" y2="59.7803" gradientTransform="matrix(1 0 0 -1 -8.3622 60.8347)">
	<stop  offset="0" style="stop-color:#1F90FF"/>
	<stop  offset="1" style="stop-color:#1F90FF;stop-opacity:0"/>
</linearGradient>
<path style="fill:url(#SVGID_00000153706872089193541170000018181801706271009974_);" d="M17.1,17.2c0.3,0,0.6-0.3,0.6-0.6
	S17.5,16,17.1,16s-0.6,0.3-0.6,0.6S16.8,17.2,17.1,17.2z"/>
<linearGradient id="SVGID_00000142157567274711449840000016648701390741545858_" gradientUnits="userSpaceOnUse" x1="27.6042" y1="33.8169" x2="28.5202" y2="59.6919" gradientTransform="matrix(1 0 0 -1 -8.3622 60.8347)">
	<stop  offset="0" style="stop-color:#1F90FF"/>
	<stop  offset="1" style="stop-color:#1F90FF;stop-opacity:0"/>
</linearGradient>
<path style="fill:url(#SVGID_00000142157567274711449840000016648701390741545858_);" d="M19.6,17.2c0.3,0,0.6-0.3,0.6-0.6
	S20,16,19.6,16c-0.3,0-0.6,0.3-0.6,0.6S19.3,17.2,19.6,17.2z"/>
<linearGradient id="SVGID_00000039094951943800222880000015489057198814111381_" gradientUnits="userSpaceOnUse" x1="30.1011" y1="33.7285" x2="31.0171" y2="59.6035" gradientTransform="matrix(1 0 0 -1 -8.3622 60.8347)">
	<stop  offset="0" style="stop-color:#1F90FF"/>
	<stop  offset="1" style="stop-color:#1F90FF;stop-opacity:0"/>
</linearGradient>
<path style="fill:url(#SVGID_00000039094951943800222880000015489057198814111381_);" d="M22.1,17.2c0.3,0,0.6-0.3,0.6-0.6
	S22.5,16,22.1,16c-0.3,0-0.6,0.3-0.6,0.6S21.8,17.2,22.1,17.2z"/>
<linearGradient id="SVGID_00000090268426263485183420000017229821582559856269_" gradientUnits="userSpaceOnUse" x1="32.5979" y1="33.6401" x2="33.5139" y2="59.5151" gradientTransform="matrix(1 0 0 -1 -8.3622 60.8347)">
	<stop  offset="0" style="stop-color:#1F90FF"/>
	<stop  offset="1" style="stop-color:#1F90FF;stop-opacity:0"/>
</linearGradient>
<path style="fill:url(#SVGID_00000090268426263485183420000017229821582559856269_);" d="M24.6,17.2c0.3,0,0.6-0.3,0.6-0.6
	S25,16,24.6,16c-0.3,0-0.6,0.3-0.6,0.6S24.3,17.2,24.6,17.2z"/>
<linearGradient id="SVGID_00000067231539215245557980000004362028444243982512_" gradientUnits="userSpaceOnUse" x1="35.0948" y1="33.5517" x2="36.0108" y2="59.4267" gradientTransform="matrix(1 0 0 -1 -8.3622 60.8347)">
	<stop  offset="0" style="stop-color:#1F90FF"/>
	<stop  offset="1" style="stop-color:#1F90FF;stop-opacity:0"/>
</linearGradient>
<path style="fill:url(#SVGID_00000067231539215245557980000004362028444243982512_);" d="M27.1,17.1c0.3,0,0.5-0.2,0.5-0.5
	s-0.2-0.5-0.5-0.5c-0.3,0-0.5,0.2-0.5,0.5S26.8,17.1,27.1,17.1z"/>
<linearGradient id="SVGID_00000134241082742754616640000005906050813372100028_" gradientUnits="userSpaceOnUse" x1="15.2083" y1="34.2557" x2="16.1243" y2="60.1307" gradientTransform="matrix(1 0 0 -1 -8.3622 60.8347)">
	<stop  offset="0" style="stop-color:#1F90FF"/>
	<stop  offset="1" style="stop-color:#1F90FF;stop-opacity:0"/>
</linearGradient>
<path style="fill:url(#SVGID_00000134241082742754616640000005906050813372100028_);" d="M7.1,19.6c0.3,0,0.5-0.2,0.5-0.5
	s-0.2-0.5-0.5-0.5c-0.3,0-0.5,0.2-0.5,0.5S6.8,19.6,7.1,19.6z"/>
<linearGradient id="SVGID_00000083076929408576448320000017840547054975696319_" gradientUnits="userSpaceOnUse" x1="17.7051" y1="34.1673" x2="18.6211" y2="60.0423" gradientTransform="matrix(1 0 0 -1 -8.3622 60.8347)">
	<stop  offset="0" style="stop-color:#1F90FF"/>
	<stop  offset="1" style="stop-color:#1F90FF;stop-opacity:0"/>
</linearGradient>
<path style="fill:url(#SVGID_00000083076929408576448320000017840547054975696319_);" d="M9.6,19.7c0.4,0,0.7-0.3,0.7-0.7
	s-0.3-0.7-0.7-0.7c-0.4,0-0.7,0.3-0.7,0.7S9.3,19.7,9.6,19.7z"/>
<linearGradient id="SVGID_00000122694239059685734940000006237070979460089735_" gradientUnits="userSpaceOnUse" x1="20.202" y1="34.0789" x2="21.118" y2="59.9539" gradientTransform="matrix(1 0 0 -1 -8.3622 60.8347)">
	<stop  offset="0" style="stop-color:#1F90FF"/>
	<stop  offset="1" style="stop-color:#1F90FF;stop-opacity:0"/>
</linearGradient>
<path style="fill:url(#SVGID_00000122694239059685734940000006237070979460089735_);" d="M12.1,19.7c0.4,0,0.7-0.3,0.7-0.7
	s-0.3-0.7-0.7-0.7c-0.4,0-0.7,0.3-0.7,0.7S11.8,19.7,12.1,19.7z"/>
<linearGradient id="SVGID_00000130616931363455899480000005205114821696992673_" gradientUnits="userSpaceOnUse" x1="22.6989" y1="33.9906" x2="23.6149" y2="59.8656" gradientTransform="matrix(1 0 0 -1 -8.3622 60.8347)">
	<stop  offset="0" style="stop-color:#1F90FF"/>
	<stop  offset="1" style="stop-color:#1F90FF;stop-opacity:0"/>
</linearGradient>
<path style="fill:url(#SVGID_00000130616931363455899480000005205114821696992673_);" d="M14.6,19.7c0.4,0,0.7-0.3,0.7-0.7
	s-0.3-0.7-0.7-0.7c-0.4,0-0.7,0.3-0.7,0.7S14.3,19.7,14.6,19.7z"/>
<linearGradient id="SVGID_00000034767927362146056300000001671666505606087837_" gradientUnits="userSpaceOnUse" x1="25.1957" y1="33.9022" x2="26.1117" y2="59.7772" gradientTransform="matrix(1 0 0 -1 -8.3622 60.8347)">
	<stop  offset="0" style="stop-color:#1F90FF"/>
	<stop  offset="1" style="stop-color:#1F90FF;stop-opacity:0"/>
</linearGradient>
<path style="fill:url(#SVGID_00000034767927362146056300000001671666505606087837_);" d="M17.1,19.7c0.4,0,0.7-0.3,0.7-0.7
	s-0.3-0.7-0.7-0.7c-0.4,0-0.7,0.3-0.7,0.7S16.8,19.7,17.1,19.7z"/>
<linearGradient id="SVGID_00000006696314836218586860000000626538905871141556_" gradientUnits="userSpaceOnUse" x1="27.6926" y1="33.8138" x2="28.6086" y2="59.6888" gradientTransform="matrix(1 0 0 -1 -8.3622 60.8347)">
	<stop  offset="0" style="stop-color:#1F90FF"/>
	<stop  offset="1" style="stop-color:#1F90FF;stop-opacity:0"/>
</linearGradient>
<path style="fill:url(#SVGID_00000006696314836218586860000000626538905871141556_);" d="M19.6,19.7c0.4,0,0.7-0.3,0.7-0.7
	s-0.3-0.7-0.7-0.7c-0.4,0-0.7,0.3-0.7,0.7S19.3,19.7,19.6,19.7z"/>
<linearGradient id="SVGID_00000031194781776279236510000009445828250560393609_" gradientUnits="userSpaceOnUse" x1="30.1894" y1="33.7254" x2="31.1055" y2="59.6004" gradientTransform="matrix(1 0 0 -1 -8.3622 60.8347)">
	<stop  offset="0" style="stop-color:#1F90FF"/>
	<stop  offset="1" style="stop-color:#1F90FF;stop-opacity:0"/>
</linearGradient>
<path style="fill:url(#SVGID_00000031194781776279236510000009445828250560393609_);" d="M22.1,19.7c0.4,0,0.7-0.3,0.7-0.7
	s-0.3-0.7-0.7-0.7c-0.4,0-0.7,0.3-0.7,0.7S21.8,19.7,22.1,19.7z"/>
<linearGradient id="SVGID_00000003075792551441961120000015014833347476239550_" gradientUnits="userSpaceOnUse" x1="32.6863" y1="33.637" x2="33.6023" y2="59.512" gradientTransform="matrix(1 0 0 -1 -8.3622 60.8347)">
	<stop  offset="0" style="stop-color:#1F90FF"/>
	<stop  offset="1" style="stop-color:#1F90FF;stop-opacity:0"/>
</linearGradient>
<path style="fill:url(#SVGID_00000003075792551441961120000015014833347476239550_);" d="M24.6,19.7c0.4,0,0.7-0.3,0.7-0.7
	s-0.3-0.7-0.7-0.7c-0.4,0-0.7,0.3-0.7,0.7S24.3,19.7,24.6,19.7z"/>
<linearGradient id="SVGID_00000180345220567809766670000016515461874967598209_" gradientUnits="userSpaceOnUse" x1="25.2842" y1="33.899" x2="26.2002" y2="59.774" gradientTransform="matrix(1 0 0 -1 -8.3622 60.8347)">
	<stop  offset="0" style="stop-color:#1F90FF"/>
	<stop  offset="1" style="stop-color:#1F90FF;stop-opacity:0"/>
</linearGradient>
<path style="fill:url(#SVGID_00000180345220567809766670000016515461874967598209_);" d="M17.1,22.1c0.3,0,0.5-0.2,0.5-0.5
	s-0.2-0.5-0.5-0.5c-0.3,0-0.5,0.2-0.5,0.5S16.8,22.1,17.1,22.1z"/>
<linearGradient id="SVGID_00000105423427976874212050000004599034324421553544_" gradientUnits="userSpaceOnUse" x1="27.781" y1="33.8106" x2="28.697" y2="59.6856" gradientTransform="matrix(1 0 0 -1 -8.3622 60.8347)">
	<stop  offset="0" style="stop-color:#1F90FF"/>
	<stop  offset="1" style="stop-color:#1F90FF;stop-opacity:0"/>
</linearGradient>
<path style="fill:url(#SVGID_00000105423427976874212050000004599034324421553544_);" d="M19.6,22.3c0.4,0,0.7-0.3,0.7-0.7
	s-0.3-0.7-0.7-0.7s-0.7,0.3-0.7,0.7S19.2,22.3,19.6,22.3z"/>
<linearGradient id="SVGID_00000164479915776954651550000008141205536635614600_" gradientUnits="userSpaceOnUse" x1="30.2778" y1="33.7223" x2="31.1938" y2="59.5973" gradientTransform="matrix(1 0 0 -1 -8.3622 60.8347)">
	<stop  offset="0" style="stop-color:#1F90FF"/>
	<stop  offset="1" style="stop-color:#1F90FF;stop-opacity:0"/>
</linearGradient>
<path style="fill:url(#SVGID_00000164479915776954651550000008141205536635614600_);" d="M22.1,22.3c0.4,0,0.7-0.3,0.7-0.7
	s-0.3-0.7-0.7-0.7c-0.4,0-0.7,0.3-0.7,0.7S21.7,22.3,22.1,22.3z"/>
<linearGradient id="SVGID_00000129207549264511904550000016561148398083785090_" gradientUnits="userSpaceOnUse" x1="25.3725" y1="33.8959" x2="26.2885" y2="59.7709" gradientTransform="matrix(1 0 0 -1 -8.3622 60.8347)">
	<stop  offset="0" style="stop-color:#1F90FF"/>
	<stop  offset="1" style="stop-color:#1F90FF;stop-opacity:0"/>
</linearGradient>
<path style="fill:url(#SVGID_00000129207549264511904550000016561148398083785090_);" d="M17.1,24.8c0.4,0,0.7-0.3,0.7-0.7
	s-0.3-0.7-0.7-0.7s-0.7,0.3-0.7,0.7S16.7,24.8,17.1,24.8z"/>
<linearGradient id="SVGID_00000003818167793398524880000001337123372136751267_" gradientUnits="userSpaceOnUse" x1="27.8694" y1="33.8075" x2="28.7854" y2="59.6825" gradientTransform="matrix(1 0 0 -1 -8.3622 60.8347)">
	<stop  offset="0" style="stop-color:#1F90FF"/>
	<stop  offset="1" style="stop-color:#1F90FF;stop-opacity:0"/>
</linearGradient>
<path style="fill:url(#SVGID_00000003818167793398524880000001337123372136751267_);" d="M19.6,24.8c0.4,0,0.7-0.3,0.7-0.7
	s-0.3-0.7-0.7-0.7s-0.7,0.3-0.7,0.7S19.2,24.8,19.6,24.8z"/>
<linearGradient id="SVGID_00000001637529210202412460000005363155265780061100_" gradientUnits="userSpaceOnUse" x1="30.3663" y1="33.7191" x2="31.2823" y2="59.5941" gradientTransform="matrix(1 0 0 -1 -8.3622 60.8347)">
	<stop  offset="0" style="stop-color:#1F90FF"/>
	<stop  offset="1" style="stop-color:#1F90FF;stop-opacity:0"/>
</linearGradient>
<path style="fill:url(#SVGID_00000001637529210202412460000005363155265780061100_);" d="M22.1,24.8c0.4,0,0.7-0.3,0.7-0.7
	s-0.3-0.7-0.7-0.7c-0.4,0-0.7,0.3-0.7,0.7S21.7,24.8,22.1,24.8z"/>
<linearGradient id="SVGID_00000055690513690141306690000001021042869888912546_" gradientUnits="userSpaceOnUse" x1="25.4609" y1="33.8928" x2="26.3769" y2="59.7678" gradientTransform="matrix(1 0 0 -1 -8.3622 60.8347)">
	<stop  offset="0" style="stop-color:#1F90FF"/>
	<stop  offset="1" style="stop-color:#1F90FF;stop-opacity:0"/>
</linearGradient>
<path style="fill:url(#SVGID_00000055690513690141306690000001021042869888912546_);" d="M17.1,27.4c0.4,0,0.8-0.3,0.8-0.8
	s-0.3-0.8-0.8-0.8s-0.8,0.3-0.8,0.8S16.7,27.4,17.1,27.4z"/>
<linearGradient id="SVGID_00000153677744853286136110000016813640712626715322_" gradientUnits="userSpaceOnUse" x1="27.9578" y1="33.8044" x2="28.8738" y2="59.6794" gradientTransform="matrix(1 0 0 -1 -8.3622 60.8347)">
	<stop  offset="0" style="stop-color:#1F90FF"/>
	<stop  offset="1" style="stop-color:#1F90FF;stop-opacity:0"/>
</linearGradient>
<path style="fill:url(#SVGID_00000153677744853286136110000016813640712626715322_);" d="M19.6,27.4c0.4,0,0.8-0.3,0.8-0.8
	s-0.3-0.8-0.8-0.8s-0.8,0.3-0.8,0.8S19.2,27.4,19.6,27.4z"/>
<linearGradient id="SVGID_00000112627783386624926510000014711954623893698456_" gradientUnits="userSpaceOnUse" x1="25.5493" y1="33.8896" x2="26.4653" y2="59.7646" gradientTransform="matrix(1 0 0 -1 -8.3622 60.8347)">
	<stop  offset="0" style="stop-color:#1F90FF"/>
	<stop  offset="1" style="stop-color:#1F90FF;stop-opacity:0"/>
</linearGradient>
<path style="fill:url(#SVGID_00000112627783386624926510000014711954623893698456_);" d="M17.1,29.9c0.4,0,0.8-0.4,0.8-0.8
	s-0.4-0.8-0.8-0.8s-0.8,0.4-0.8,0.8S16.7,29.9,17.1,29.9z"/>
<linearGradient id="SVGID_00000139270875149655630980000009697425154222294192_" gradientUnits="userSpaceOnUse" x1="23.4742" y1="33.9631" x2="24.3902" y2="59.8381" gradientTransform="matrix(1 0 0 -1 -8.3622 60.8347)">
	<stop  offset="0" style="stop-color:#1F90FF"/>
	<stop  offset="1" style="stop-color:#1F90FF;stop-opacity:0"/>
</linearGradient>
<path style="fill:url(#SVGID_00000139270875149655630980000009697425154222294192_);" d="M14.6,32.4c0.5,0,0.8-0.4,0.8-0.8
	c0-0.5,0.1-0.5-0.3-0.5c-0.5,0-0.5,0-0.5,0.5C14.6,32,14.1,32.4,14.6,32.4z"/>
<linearGradient id="SVGID_00000183960455661681224710000015398616801556097451_" gradientUnits="userSpaceOnUse" x1="25.6377" y1="33.8865" x2="26.5537" y2="59.7615" gradientTransform="matrix(1 0 0 -1 -8.3622 60.8347)">
	<stop  offset="0" style="stop-color:#1F90FF"/>
	<stop  offset="1" style="stop-color:#1F90FF;stop-opacity:0"/>
</linearGradient>
<path style="fill:url(#SVGID_00000183960455661681224710000015398616801556097451_);" d="M17.1,32.4c0.5,0,0.8-0.4,0.8-0.8
	s-0.4-0.8-0.8-0.8s-0.8,0.4-0.8,0.8S16.6,32.4,17.1,32.4z"/>
<linearGradient id="SVGID_00000150818424059435612050000016695274796844486794_" gradientUnits="userSpaceOnUse" x1="23.2292" y1="33.9718" x2="24.1452" y2="59.8468" gradientTransform="matrix(1 0 0 -1 -8.3622 60.8347)">
	<stop  offset="0" style="stop-color:#1F90FF"/>
	<stop  offset="1" style="stop-color:#1F90FF;stop-opacity:0"/>
</linearGradient>
<path style="fill:url(#SVGID_00000150818424059435612050000016695274796844486794_);" d="M14.6,35c0.5,0,0.9-0.4,0.9-0.9
	s-0.4-0.9-0.9-0.9c-0.5,0-0.9,0.4-0.9,0.9S14.1,35,14.6,35z"/>
<path class="st63" d="M14.3,0.6h10.1c0.5,0,0.8,0.5,0.6,0.9l-4.1,8.8c-0.2,0.5,0.1,1,0.7,1h7.6c0.5,0,0.8,0.6,0.6,1L15.1,35.3
	c-0.4,0.6-1.4,0.2-1.2-0.5l3.7-14c0.1-0.5-0.2-0.9-0.7-0.9l-9.5-0.2c-0.5,0-0.8-0.5-0.6-0.9L13.7,1C13.8,0.7,14,0.6,14.3,0.6z"/>
</svg>
