<?xml version="1.0" encoding="utf-8"?>
<!-- Generator: Adobe Illustrator 26.3.1, SVG Export Plug-In . SVG Version: 6.00 Build 0)  -->
<svg version="1.1" id="Layer_1" xmlns="http://www.w3.org/2000/svg" xmlns:xlink="http://www.w3.org/1999/xlink" x="0px" y="0px"
	 viewBox="0 0 16 16" style="enable-background:new 0 0 16 16;" xml:space="preserve">
<style type="text/css">
	.st0{fill-rule:evenodd;clip-rule:evenodd;fill:#E0E0ED;}
	.st1{fill:#E0E0ED;}
</style>
<g>
	<path class="st0" d="M9.8,0L1,0.7C0.2,0.8,0,1.2,0,1.8v9.7c0,0.4,0.2,0.8,0.5,1.3l2.1,2.7C3,15.9,3.3,16,3.9,16l10.3-0.6
		c0.9-0.1,1.1-0.5,1.1-1.2V3.3c0-0.4-0.1-0.5-0.6-0.8l-2.9-2C11.2,0,10.9-0.1,9.8,0z M4.2,3.1c-0.8,0.1-1,0.1-1.5-0.3l-1.2-1
		C1.3,1.7,1.4,1.6,1.7,1.5l8.5-0.6c0.7-0.1,1.1,0.2,1.4,0.4L13,2.4c0.1,0,0.2,0.2,0,0.2L4.3,3.1L4.2,3.1z M3.2,14.1V4.9
		c0-0.4,0.1-0.6,0.5-0.6l10.1-0.6c0.3,0,0.5,0.2,0.5,0.6v9.2c0,0.4-0.1,0.7-0.6,0.8L4,14.8C3.4,14.8,3.2,14.6,3.2,14.1z"/>
	<path class="st1" d="M12.4,5.9c0.3,0,0.3-0.3,0.3-0.6l-2.1,0.1c-0.3,0-0.6,0.3-0.5,0.6l0.8,0.1v4.3L7.7,5.6L5.4,5.8
		C5,5.8,4.8,6.2,4.9,6.5l0.8,0.1v6.1l-0.6,0.2c-0.2,0.1-0.3,0.4-0.2,0.5L7,13.2c0.8,0,0.8-0.6,0.8-0.6l-1-0.2V7.8l3.1,4.8l0,0
		c0.4,0.5,0.5,0.6,1,0.6c0.3,0,0.7-0.1,1.1-0.3V6L12.4,5.9z"/>
</g>
</svg>
