<?xml version="1.0" encoding="utf-8"?>
<!-- Generator: Adobe Illustrator 26.3.1, SVG Export Plug-In . SVG Version: 6.00 Build 0)  -->
<svg version="1.1" id="Layer_1" xmlns="http://www.w3.org/2000/svg" xmlns:xlink="http://www.w3.org/1999/xlink" x="0px" y="0px"
	 viewBox="0 0 16 16" style="enable-background:new 0 0 16 16;" xml:space="preserve">
<style type="text/css">
	.st0{fill:#FF5722;}
</style>
<path class="st0" d="M9.5,16l-7.8-2.6c-0.2-0.1-0.3-0.2-0.2-0.4c0.1-0.1,0.2-0.2,0.4-0.2l8.2,1.2V2.7L3.9,4.2v7.1
	c0,0.1-0.1,0.2-0.2,0.3l-2.1,1c-0.1,0-0.2,0-0.3,0c-0.1-0.1-0.2-0.2-0.2-0.3V3.7c0-0.2,0.1-0.3,0.3-0.4l8-3.3c0.1,0,0.2,0,0.3,0
	l4.7,1.3c0.2,0.1,0.3,0.2,0.3,0.4v12.6c0,0.2-0.1,0.4-0.3,0.4L9.8,16C9.7,16,9.6,16,9.5,16z"/>
</svg>
