<?xml version="1.0" encoding="utf-8"?>
<!-- Generator: Adobe Illustrator 26.3.1, SVG Export Plug-In . SVG Version: 6.00 Build 0)  -->
<svg version="1.1" id="Layer_1" xmlns="http://www.w3.org/2000/svg" xmlns:xlink="http://www.w3.org/1999/xlink" x="0px" y="0px"
	 viewBox="0 0 16 16" style="enable-background:new 0 0 16 16;" xml:space="preserve">
<style type="text/css">
	.st0{fill:#31A8FF;}
</style>
<g>
	<path class="st0" d="M0,13.6V2.2c0-0.1,0-0.1,0.1-0.1c0.2,0,0.4,0,0.6,0C1,2,1.3,2,1.6,2c0.3,0,0.6,0,1,0c0.3,0,0.7,0,1,0
		c0.9,0,1.7,0.1,2.3,0.3c0.6,0.2,1.1,0.5,1.5,0.9C7.7,3.6,7.9,4,8.1,4.5C8.3,5,8.4,5.5,8.4,6c0,1-0.2,1.7-0.7,2.4
		C7.3,9,6.6,9.4,5.9,9.7c-0.8,0.3-1.6,0.4-2.5,0.4c-0.3,0-0.4,0-0.6,0c-0.1,0-0.3,0-0.5,0v3.6c0,0.1,0,0.1-0.1,0.2H0.1
		C0,13.8,0,13.7,0,13.6z M2.4,4.2v3.7c0.2,0,0.3,0,0.4,0h0.6c0.4,0,0.9-0.1,1.3-0.2c0.4-0.1,0.7-0.3,0.9-0.6C5.9,6.9,6,6.5,6,6
		c0-0.3-0.1-0.7-0.3-1C5.5,4.8,5.3,4.5,4.9,4.4C4.5,4.2,4.1,4.2,3.6,4.2c-0.3,0-0.5,0-0.8,0C2.6,4.2,2.5,4.2,2.4,4.2z"/>
	<path class="st0" d="M15.3,7.3C15,7.1,14.6,7,14.2,6.9c-0.4-0.1-0.8-0.1-1.2-0.1c-0.2,0-0.5,0-0.7,0.1c-0.1,0-0.3,0.1-0.3,0.2
		c-0.1,0.1-0.1,0.2-0.1,0.3c0,0.1,0,0.2,0.1,0.3c0.1,0.1,0.2,0.2,0.4,0.3c0.3,0.1,0.5,0.3,0.8,0.4c0.6,0.2,1.2,0.5,1.7,0.8
		c0.4,0.2,0.7,0.5,0.9,0.9c0.2,0.4,0.3,0.7,0.3,1.1c0,0.5-0.1,1-0.4,1.5c-0.3,0.4-0.7,0.8-1.2,1c-0.5,0.2-1.2,0.4-2,0.4
		c-0.5,0-1,0-1.5-0.1c-0.4-0.1-0.8-0.2-1.1-0.4c-0.1,0-0.1-0.1-0.1-0.2v-1.9c0,0,0-0.1,0-0.1c0,0,0.1,0,0.1,0
		c0.4,0.3,0.9,0.4,1.4,0.5c0.4,0.1,0.9,0.2,1.3,0.2c0.4,0,0.7-0.1,0.9-0.2c0.2-0.1,0.3-0.3,0.3-0.5c0-0.2-0.1-0.3-0.3-0.4
		c-0.2-0.1-0.5-0.3-1.1-0.5c-0.6-0.2-1.1-0.5-1.6-0.8C10.3,9.3,10,9,9.8,8.6C9.7,8.3,9.6,7.9,9.6,7.5C9.6,7,9.7,6.6,10,6.2
		c0.3-0.4,0.7-0.8,1.2-1c0.5-0.3,1.2-0.4,2-0.4c0.5,0,0.9,0,1.4,0.1c0.3,0,0.7,0.1,1,0.3c0,0,0.1,0.1,0.1,0.1c0,0,0,0.1,0,0.1v1.8
		c0,0,0,0.1-0.1,0.1C15.4,7.3,15.3,7.3,15.3,7.3z"/>
</g>
</svg>
