<?xml version="1.0" encoding="utf-8"?>
<!-- Generator: Adobe Illustrator 26.3.1, SVG Export Plug-In . SVG Version: 6.00 Build 0)  -->
<svg version="1.1" id="Layer_1" xmlns="http://www.w3.org/2000/svg" xmlns:xlink="http://www.w3.org/1999/xlink" x="0px" y="0px"
	 viewBox="0 0 16 16" style="enable-background:new 0 0 16 16;" xml:space="preserve">
<style type="text/css">
	.st0{clip-path:url(#SVGID_00000119078210568353880610000017703566822395075244_);}
	.st1{fill:#DCF5FF;}
	.st2{fill:#3EFFFA;}
</style>
<g>
	<defs>
		<rect id="SVGID_1_" x="0" y="1.8" width="15.9" height="12.5"/>
	</defs>
	<clipPath id="SVGID_00000148651523710928434790000010729875767750357679_">
		<use xlink:href="#SVGID_1_"  style="overflow:visible;"/>
	</clipPath>
	<g style="clip-path:url(#SVGID_00000148651523710928434790000010729875767750357679_);">
		<path class="st1" d="M10,3c0.4,0,0.8,0,1.2,0c0.2,0,0.3,0,0.5,0c0.2,0,0.4,0,0.6,0c0.2,0,0.4,0,0.5,0.1c0.1,0,0.1,0,0.2,0
			c0.1,0,0.3,0,0.4,0.1c0.1,0,0.2,0,0.3,0.1c0.1,0,0.2,0,0.3,0.1c0.1,0,0.1,0,0.2,0.1c0.1,0,0.2,0.1,0.3,0.1c0.1,0,0.2,0.1,0.2,0.1
			c0.1,0,0.2,0.1,0.3,0.1c0.2,0.1,0.4,0.2,0.5,0.4c0.1,0.1,0.1,0.2,0.2,0.4C16,4.9,16,5.2,16,5.5c0,0.2,0,0.3-0.1,0.5
			c0,0.1,0,0.1,0,0.2c0,0.1-0.1,0.2-0.1,0.4c0,0.1,0,0.1-0.1,0.2c0,0.2-0.1,0.3-0.2,0.5c0,0.1-0.1,0.2-0.1,0.3
			c0,0.1-0.1,0.2-0.1,0.2c0,0.1-0.1,0.2-0.1,0.3c-0.1,0.2-0.2,0.4-0.3,0.6c-0.1,0.2-0.2,0.4-0.3,0.6c-0.1,0.1-0.2,0.2-0.2,0.4
			c-0.1,0.1-0.2,0.2-0.2,0.4C14,10,14,10.2,13.9,10.3c-0.1,0.1-0.2,0.2-0.3,0.4c-0.1,0.1-0.2,0.2-0.3,0.4c-0.1,0.1-0.2,0.2-0.3,0.3
			c-0.2,0.2-0.4,0.4-0.6,0.6c-0.1,0.1-0.2,0.1-0.2,0.2c0,0-0.1,0-0.1,0c-0.1-0.1-0.2-0.2-0.2-0.3c0-0.1-0.1-0.2-0.1-0.3
			c0-0.2-0.1-0.3,0-0.5c0-0.1,0-0.1,0-0.2c0-0.1,0.1-0.2,0.1-0.3c0.1-0.2,0.2-0.3,0.4-0.5c0.1-0.1,0.3-0.2,0.4-0.2
			c0.2-0.1,0.4-0.1,0.7-0.1c0.1,0,0.1,0,0.2,0c0.1,0,0.2-0.1,0.2-0.2c0-0.1,0-0.3,0.1-0.4c0-0.2,0-0.3,0-0.5c0-0.1,0-0.3,0-0.4
			c0,0,0-0.1,0-0.1c0-0.1,0-0.2-0.2-0.3c0,0,0,0,0,0c-0.1,0-0.2,0-0.3,0c0,0-0.1,0-0.1,0c0,0-0.1,0-0.1,0c-0.1,0-0.2,0-0.4-0.1
			c-0.2-0.1-0.4-0.2-0.5-0.3C12.2,7.3,12.1,7.2,12,7c-0.1-0.2-0.1-0.5-0.1-0.7c0-0.1,0-0.2,0-0.3c0-0.1,0.1-0.2,0.1-0.3
			c0.1-0.1,0.1-0.2,0.2-0.3c0,0,0.1-0.1,0.1-0.2c0-0.1,0-0.1-0.1-0.2c-0.2-0.2-0.4-0.3-0.6-0.4c-0.1-0.1-0.2-0.1-0.3-0.2
			c-0.1-0.1-0.2-0.1-0.3-0.1c-0.1,0-0.1-0.1-0.2-0.1c-0.1,0-0.2,0-0.2,0.1c-0.1,0-0.1,0.1-0.1,0.2c-0.1,0.1-0.1,0.2-0.2,0.3
			C10.3,4.9,10.1,5,9.9,5.1C9.9,5.2,9.7,5.2,9.6,5.3C9.4,5.4,9.2,5.4,8.9,5.3c-0.1,0-0.3-0.1-0.4-0.1C8.4,5.2,8.2,5.1,8.1,5
			C8,4.8,7.9,4.7,7.8,4.6c0-0.1,0-0.1-0.1-0.2c0-0.1,0-0.1-0.1-0.2c0-0.1,0-0.1-0.1-0.2c0-0.1,0-0.1-0.1-0.2c0-0.1-0.1-0.2-0.1-0.3
			c0-0.1-0.1-0.1-0.1-0.2c0,0,0,0,0-0.1c0.2,0,0.3-0.1,0.5-0.1c0.1,0,0.2,0,0.4,0c0.1,0,0.3,0,0.4,0c0.3,0,0.5,0,0.8,0
			C9.7,3,9.9,3,10,3L10,3z"/>
		<path class="st2" d="M2.5,2.6c0-0.1,0-0.2,0-0.3c0-0.1,0-0.3,0.1-0.3c0.1-0.1,0.1-0.1,0.2-0.1c0.1,0,0.1,0,0.2,0
			c0.2,0,0.3,0,0.5,0c0.1,0,0.2,0.1,0.3,0.1C4,2,4,2.1,4,2.3c0,0.2,0,0.4,0,0.6c0,0.2,0.1,0.3,0.2,0.4c0.1,0.1,0.2,0.1,0.3,0.2
			c0.1,0.1,0.2,0.1,0.4,0.1c0.1,0,0.1,0,0.2-0.1c0.1-0.1,0.3-0.2,0.4-0.3c0.1-0.1,0.2-0.1,0.3-0.1c0.2,0,0.3,0.1,0.4,0.3
			c0.1,0.1,0.1,0.2,0.2,0.4C6.5,3.8,6.6,4,6.6,4.1c0,0.1-0.1,0.2-0.2,0.3C6.2,4.5,6.1,4.6,6,4.6C5.9,4.7,5.8,4.8,5.7,4.8
			C5.6,4.9,5.6,5,5.6,5c0,0.2,0,0.3,0,0.5c0,0.2,0.1,0.3,0.3,0.4C6,6,6.1,6.1,6.3,6.2c0.1,0.1,0.2,0.1,0.2,0.2
			c0.1,0.2,0.1,0.3,0,0.5C6.4,7,6.3,7.2,6.2,7.4C6.2,7.5,6.1,7.5,6,7.6c0,0-0.1,0-0.2,0c-0.1,0-0.2,0-0.3-0.1C5.3,7.4,5.2,7.3,5,7.2
			c-0.2-0.1-0.3-0.1-0.5,0C4.4,7.3,4.3,7.3,4.2,7.4C4.1,7.5,4,7.6,4,7.8C4,8,4,8.2,4,8.4C4,8.5,4,8.6,3.8,8.7
			C3.7,8.8,3.6,8.8,3.5,8.8c-0.2,0-0.3,0-0.5,0c-0.1,0-0.2,0-0.3-0.1C2.6,8.6,2.6,8.6,2.6,8.5c0-0.1,0-0.2,0-0.3c0-0.1,0-0.2,0-0.4
			c0-0.2-0.1-0.4-0.3-0.5C2.2,7.3,2.1,7.2,2,7.2c-0.1-0.1-0.2-0.1-0.4,0C1.5,7.2,1.4,7.3,1.3,7.4C1.1,7.5,1,7.5,0.9,7.6
			c-0.1,0-0.2,0-0.3,0c-0.1,0-0.2-0.1-0.2-0.2C0.3,7.3,0.3,7.2,0.2,7.2C0.2,7.1,0.2,7,0.1,7C0.1,6.8,0,6.7,0,6.6
			c0-0.1,0.1-0.2,0.2-0.3C0.4,6.1,0.7,6,0.9,5.9C0.9,5.8,1,5.7,1,5.6c0-0.2,0-0.3,0-0.5C1,5,0.9,4.8,0.8,4.8
			C0.6,4.7,0.5,4.6,0.4,4.5C0.3,4.5,0.2,4.4,0.1,4.3C0,4.2,0,4,0.1,3.9c0-0.1,0.1-0.2,0.2-0.3c0-0.1,0.1-0.2,0.1-0.2
			c0.1-0.1,0.1-0.2,0.2-0.2c0.1,0,0.1,0,0.2,0c0.1,0,0.2,0,0.3,0.1c0.1,0.1,0.2,0.1,0.3,0.2c0.1,0,0.1,0.1,0.2,0.1
			c0.1,0.1,0.2,0.1,0.3,0.1c0.1,0,0.2-0.1,0.3-0.1c0.1,0,0.1-0.1,0.2-0.1c0.1-0.1,0.2-0.1,0.2-0.3C2.6,2.9,2.5,2.7,2.5,2.6z
			 M2.3,5.3c0,0.6,0.5,1.1,1.1,1c0.6,0,1-0.5,1-1c0-0.6-0.4-1-1.1-1C2.7,4.3,2.2,4.7,2.3,5.3z"/>
		<path class="st1" d="M1.9,9.7c0.1,0,0.1,0,0.2,0c0.1,0,0.2,0,0.2,0.1c0.2,0,0.4,0.1,0.6,0.1c0.3,0,0.5,0,0.8,0
			c0.1,0,0.3,0,0.4-0.1c0.1,0,0.1,0,0.2,0c0,0,0.1,0,0.1,0c0.1,0,0.2-0.1,0.3-0.1c0.1,0,0.2-0.1,0.2-0.1c0.1,0,0.1,0,0.2,0
			c0.1,0,0.1,0,0.2,0.1C5.5,9.8,5.7,9.9,5.8,10c0.1,0.1,0.3,0.3,0.3,0.5c0.1,0.1,0.1,0.2,0.1,0.4c0,0.2,0.1,0.3,0,0.5
			c0,0.1,0,0.1,0,0.2c0,0.1,0,0.2-0.1,0.3C6.1,11.8,6.1,11.9,6,12c0,0-0.1,0.1-0.1,0.1c-0.1,0.1-0.1,0.3,0,0.3
			c0.2,0.1,0.3,0.3,0.5,0.4C6.6,12.9,6.8,13,7,13.1c0.1,0.1,0.2,0.1,0.3,0.1c0.1,0.1,0.3,0,0.3-0.1c0.1-0.1,0.1-0.2,0.2-0.3
			c0.1-0.1,0.2-0.2,0.3-0.3c0.1-0.1,0.2-0.1,0.3-0.2c0.1,0,0.2-0.1,0.3-0.1c0,0,0.1,0,0.1,0c0.1,0,0.2,0,0.3,0c0.1,0,0.1,0,0.2,0
			c0.1,0,0.1,0,0.2,0.1c0.2,0.1,0.3,0.1,0.4,0.3c0.1,0.1,0.2,0.2,0.3,0.4c0,0.1,0.1,0.2,0.1,0.3c0,0.1,0,0.1-0.1,0.1
			c-0.1,0-0.2,0.1-0.3,0.1c-0.1,0-0.2,0.1-0.3,0.1c-0.1,0.1-0.2,0.1-0.4,0.2c-0.1,0-0.2,0.1-0.3,0.1c0,0-0.1,0-0.1,0.1
			c-0.1,0-0.2,0.1-0.4,0.1c-0.2,0.1-0.3,0.1-0.5,0.2c-0.1,0-0.1,0-0.2,0c-0.1,0-0.2,0-0.3,0.1c0,0,0,0,0,0c-0.2,0-0.4,0-0.6,0
			c-0.1,0-0.3,0-0.4,0c-0.1,0-0.2,0-0.3-0.1c-0.1,0-0.2-0.1-0.3-0.1C6,14,5.9,14,5.8,14c-0.1-0.1-0.2-0.1-0.3-0.2
			c-0.1-0.1-0.2-0.2-0.4-0.2c-0.1-0.1-0.2-0.1-0.3-0.2c-0.1-0.1-0.2-0.1-0.3-0.2c-0.1-0.1-0.2-0.2-0.3-0.3c-0.2-0.2-0.3-0.3-0.5-0.5
			c-0.1-0.1-0.3-0.3-0.4-0.5c-0.1-0.1-0.1-0.2-0.2-0.2c-0.1-0.1-0.2-0.2-0.3-0.4c-0.1-0.1-0.1-0.2-0.2-0.2c-0.1-0.1-0.2-0.2-0.3-0.4
			c-0.1-0.1-0.1-0.2-0.1-0.2c-0.1-0.1-0.1-0.3-0.2-0.4C2,10,2,9.9,1.9,9.7C1.9,9.8,1.9,9.8,1.9,9.7z"/>
		<path class="st1" d="M9.1,10.1c-0.1,0-0.2,0-0.3,0c-0.1,0-0.3-0.1-0.4-0.2C8.3,9.9,8.2,9.8,8.1,9.7C8,9.7,8,9.6,7.9,9.5
			c0-0.1-0.1-0.1-0.1-0.2c0-0.1-0.1-0.1-0.1-0.2c0-0.1-0.1-0.2,0-0.4c0-0.1,0-0.3,0.1-0.4c0-0.1,0.1-0.2,0.1-0.3
			C8,7.9,8.1,7.8,8.2,7.7c0.1-0.1,0.3-0.2,0.4-0.2C8.8,7.3,9,7.3,9.3,7.4c0.1,0,0.2,0.1,0.2,0.1c0.1,0,0.2,0.1,0.3,0.1
			c0.1,0.1,0.3,0.2,0.4,0.4c0,0.1,0.1,0.1,0.1,0.2c0,0.1,0.1,0.2,0.1,0.2c0,0.1,0.1,0.2,0.1,0.3c0,0.1,0,0.2,0,0.3c0,0,0,0.1,0,0.1
			c0,0.1,0,0.1,0,0.2c0,0.1-0.1,0.2-0.1,0.3C10.2,9.7,10,9.9,9.7,10C9.5,10.1,9.3,10.1,9.1,10.1z"/>
	</g>
</g>
</svg>
