<?xml version="1.0" encoding="utf-8"?>
<!-- Generator: Adobe Illustrator 26.3.1, SVG Export Plug-In . SVG Version: 6.00 Build 0)  -->
<svg version="1.1" id="Layer_1" xmlns="http://www.w3.org/2000/svg" xmlns:xlink="http://www.w3.org/1999/xlink" x="0px" y="0px"
	 viewBox="0 0 16 16" style="enable-background:new 0 0 16 16;" xml:space="preserve">
<style type="text/css">
	.st0{clip-path:url(#SVGID_00000176036420574765899820000000340398532729149100_);}
	.st1{fill:#E01E5A;}
	.st2{fill:#36C5F0;}
	.st3{fill:#2EB67D;}
	.st4{fill:#ECB22E;}
</style>
<g>
	<defs>
		<rect id="SVGID_1_" width="16" height="16"/>
	</defs>
	<clipPath id="SVGID_00000170968823019944766790000001980832054212078251_">
		<use xlink:href="#SVGID_1_"  style="overflow:visible;"/>
	</clipPath>
	<g style="clip-path:url(#SVGID_00000170968823019944766790000001980832054212078251_);">
		<path class="st1" d="M3.4,10.1c0,0.9-0.8,1.7-1.7,1.7C0.8,11.8,0,11,0,10.1c0-0.9,0.8-1.7,1.7-1.7h1.7V10.1z M4.2,10.1
			c0-0.9,0.8-1.7,1.7-1.7c0.9,0,1.7,0.8,1.7,1.7v4.2c0,0.9-0.8,1.7-1.7,1.7c-0.9,0-1.7-0.8-1.7-1.7V10.1z"/>
		<path class="st2" d="M5.9,3.4C5,3.4,4.2,2.6,4.2,1.7C4.2,0.8,5,0,5.9,0c0.9,0,1.7,0.8,1.7,1.7v1.7H5.9z M5.9,4.2
			c0.9,0,1.7,0.8,1.7,1.7S6.8,7.6,5.9,7.6H1.7C0.8,7.6,0,6.8,0,5.9s0.8-1.7,1.7-1.7H5.9z"/>
		<path class="st3" d="M12.6,5.9c0-0.9,0.8-1.7,1.7-1.7S16,5,16,5.9s-0.8,1.7-1.7,1.7h-1.7V5.9z M11.8,5.9c0,0.9-0.8,1.7-1.7,1.7
			c-0.9,0-1.7-0.8-1.7-1.7V1.7C8.4,0.8,9.2,0,10.1,0c0.9,0,1.7,0.8,1.7,1.7V5.9z"/>
		<path class="st4" d="M10.1,12.6c0.9,0,1.7,0.8,1.7,1.7c0,0.9-0.8,1.7-1.7,1.7c-0.9,0-1.7-0.8-1.7-1.7v-1.7H10.1z M10.1,11.8
			c-0.9,0-1.7-0.8-1.7-1.7c0-0.9,0.8-1.7,1.7-1.7h4.2c0.9,0,1.7,0.8,1.7,1.7c0,0.9-0.8,1.7-1.7,1.7H10.1z"/>
	</g>
</g>
</svg>
