<?xml version="1.0" encoding="utf-8"?>
<!-- Generator: Adobe Illustrator 26.3.1, SVG Export Plug-In . SVG Version: 6.00 Build 0)  -->
<svg version="1.1" id="Layer_1" xmlns="http://www.w3.org/2000/svg" xmlns:xlink="http://www.w3.org/1999/xlink" x="0px" y="0px"
	 viewBox="0 0 16 16" style="enable-background:new 0 0 16 16;" xml:space="preserve">
<style type="text/css">
	.st0{fill:#FFFFFF;}
</style>
<g>
	<path class="st0" d="M0,1.6C0,1,0.6,0.5,1.2,0.5h4.2c0.6,0,1.1,0.5,1.1,1.2v12.8c0,0.6-0.5,1.2-1.1,1.2H1.2C0.6,15.5,0,15,0,14.4
		V1.6z"/>
	<path class="st0" d="M9.4,1.6c0-0.6,0.5-1.2,1.1-1.2h4.2C15.4,0.5,16,1,16,1.6V9c0,0.6-0.5,1.2-1.1,1.2h-4.2
		c-0.6,0-1.1-0.5-1.1-1.2V1.6z"/>
</g>
</svg>
