<?xml version="1.0" encoding="utf-8"?>
<!-- Generator: Adobe Illustrator 26.3.1, SVG Export Plug-In . SVG Version: 6.00 Build 0)  -->
<svg version="1.1" id="Layer_1" xmlns="http://www.w3.org/2000/svg" xmlns:xlink="http://www.w3.org/1999/xlink" x="0px" y="0px"
	 viewBox="0 0 16 16" style="enable-background:new 0 0 16 16;" xml:space="preserve">
<style type="text/css">
	.st0{clip-path:url(#SVGID_00000002373779255679911180000017283946506074931868_);}
	.st1{fill:#2489CA;}
	.st2{fill:#1070B3;}
	.st3{fill:#0877B9;}
	.st4{fill:#3C99D4;}
</style>
<g>
	<defs>
		<rect id="SVGID_1_" y="0.1" width="16" height="15.7"/>
	</defs>
	<clipPath id="SVGID_00000038412879904225915710000015909964700489078454_">
		<use xlink:href="#SVGID_1_"  style="overflow:visible;"/>
	</clipPath>
	<g style="clip-path:url(#SVGID_00000038412879904225915710000015909964700489078454_);">
		<path class="st1" d="M0.2,5.6c0,0-0.4-0.3,0.1-0.7l1.1-1c0,0,0.3-0.3,0.6,0L12,11.5v3.6c0,0,0,0.6-0.7,0.5L0.2,5.6z"/>
		<path class="st2" d="M2.7,8l-2.6,2.3c0,0-0.3,0.2,0,0.5l1.2,1.1c0,0,0.3,0.3,0.7,0l2.7-2.1L2.7,8z"/>
		<path class="st3" d="M7.3,8L12,4.4l0-3.6c0,0-0.2-0.8-0.9-0.4L4.8,6.1L7.3,8z"/>
		<path class="st4" d="M11.3,15.7c0.3,0.3,0.6,0.2,0.6,0.2l3.7-1.8c0.5-0.3,0.4-0.7,0.4-0.7V2.5c0-0.5-0.5-0.6-0.5-0.6l-3.2-1.5
			c-0.7-0.4-1.2,0.1-1.2,0.1S11.7,0,12,0.8v14.3c0,0.1,0,0.2-0.1,0.3C11.9,15.5,11.7,15.7,11.3,15.7L11.3,15.7z"/>
	</g>
</g>
</svg>
