<?xml version="1.0" encoding="utf-8"?>
<!-- Generator: Adobe Illustrator 26.3.1, SVG Export Plug-In . SVG Version: 6.00 Build 0)  -->
<svg version="1.1" id="Layer_1" xmlns="http://www.w3.org/2000/svg" xmlns:xlink="http://www.w3.org/1999/xlink" x="0px" y="0px"
	 viewBox="0 0 16 16" style="enable-background:new 0 0 16 16;" xml:space="preserve">
<style type="text/css">
	.st0{fill:#FF61F6;}
</style>
<g>
	<path class="st0" d="M8.3,3.9L5.6,8.4l2.9,4.8c0,0,0,0.1,0,0.1c0,0,0,0-0.1,0H6.3c-0.1,0-0.2,0-0.3-0.1c-0.2-0.4-0.4-0.8-0.6-1.1
		c-0.2-0.4-0.4-0.8-0.6-1.2c-0.2-0.4-0.4-0.8-0.7-1.2h0c-0.2,0.4-0.4,0.8-0.6,1.2c-0.2,0.4-0.4,0.8-0.6,1.2
		c-0.2,0.4-0.4,0.8-0.6,1.2c0,0.1-0.1,0.1-0.2,0.1h-2c0,0-0.1,0-0.1,0c0,0,0-0.1,0-0.1l2.8-4.7L0.1,3.9c0,0,0-0.1,0-0.1c0,0,0,0,0,0
		c0,0,0,0,0,0h2.1c0,0,0.1,0,0.1,0c0,0,0.1,0,0.1,0.1C2.6,4.2,2.8,4.6,3,5c0.2,0.4,0.4,0.8,0.7,1.2c0.2,0.4,0.4,0.8,0.6,1.2h0
		c0.2-0.4,0.4-0.8,0.6-1.2C5.1,5.8,5.3,5.4,5.5,5C5.7,4.6,6,4.2,6.1,3.9c0,0,0-0.1,0.1-0.1c0,0,0.1,0,0.1,0h1.9c0,0,0,0,0.1,0
		c0,0,0,0,0,0C8.3,3.8,8.4,3.8,8.3,3.9C8.3,3.9,8.3,3.9,8.3,3.9L8.3,3.9z"/>
	<path class="st0" d="M13,13.3c-0.7,0-1.4-0.1-2-0.4c-0.6-0.3-1.1-0.7-1.4-1.3c-0.3-0.6-0.5-1.3-0.5-2.1c0-0.7,0.2-1.3,0.5-1.9
		c0.3-0.6,0.9-1.1,1.5-1.4c0.6-0.4,1.4-0.5,2.3-0.5c0,0,0.1,0,0.2,0c0.1,0,0.2,0,0.3,0V2.8c0-0.1,0-0.1,0.1-0.1h1.9c0,0,0,0,0.1,0
		c0,0,0,0,0,0.1c0,0,0,0,0,0v8.8c0,0.2,0,0.4,0,0.5c0,0.2,0,0.4,0,0.5c0,0,0,0.1,0,0.1c0,0,0,0-0.1,0.1c-0.5,0.2-1,0.4-1.5,0.4
		C13.9,13.3,13.4,13.3,13,13.3z M13.9,11.5v-4c-0.1,0-0.2,0-0.2,0c-0.1,0-0.2,0-0.3,0c-0.4,0-0.7,0.1-1,0.2C12,7.8,11.7,8,11.5,8.3
		c-0.2,0.3-0.3,0.7-0.3,1.2c0,0.3,0,0.6,0.2,0.9c0.1,0.2,0.2,0.5,0.4,0.7c0.2,0.2,0.4,0.3,0.6,0.4c0.2,0.1,0.5,0.1,0.8,0.1
		c0.1,0,0.3,0,0.4,0C13.7,11.5,13.8,11.5,13.9,11.5L13.9,11.5z"/>
</g>
</svg>
