<svg xmlns="http://www.w3.org/2000/svg" xmlns:xlink="http://www.w3.org/1999/xlink" width="34.1" height="34.15" viewBox="0 0 34.1 34.15">
  <defs>
    <linearGradient id="linear-gradient" x1="1.122" y1="1.718" x2="0.387" y2="0.821" gradientUnits="objectBoundingBox">
      <stop offset="0" stop-color="#17345e"/>
      <stop offset="1" stop-color="#000e23"/>
    </linearGradient>
    <radialGradient id="radial-gradient" cx="0.721" cy="0.265" r="0.313" gradientTransform="matrix(-0.753, 0.659, 0.659, 0.753, -23.66, 8.89)" gradientUnits="objectBoundingBox">
      <stop offset="0" stop-color="#31cbfd"/>
      <stop offset="0.965" stop-color="#000e23" stop-opacity="0"/>
    </radialGradient>
  </defs>
  <g id="logo" transform="translate(-1.45 -1.5)">
    <path id="Path_3" data-name="Path 3" d="M1.5,9.5a8.024,8.024,0,0,1,8-8h18a8.024,8.024,0,0,1,8,8v18a8.024,8.024,0,0,1-8,8H9.5a8.024,8.024,0,0,1-8-8Z" fill="url(#linear-gradient)"/>
    <path id="Path_4" data-name="Path 4" d="M1.5,9.5a8.024,8.024,0,0,1,8-8h18a8.024,8.024,0,0,1,8,8v18a8.024,8.024,0,0,1-8,8H9.5a8.024,8.024,0,0,1-8-8Z" fill="url(#radial-gradient)"/>
    <path id="Path_5" data-name="Path 5" d="M9.5,1.8h18a7.81,7.81,0,0,1,7.8,7.8v18a7.81,7.81,0,0,1-7.8,7.8H9.5a7.81,7.81,0,0,1-7.8-7.8V9.6A7.81,7.81,0,0,1,9.5,1.8Z" fill="none" stroke="rgba(255,255,255,0.5)" stroke-width="0.5"/>
    <g id="Group_2" data-name="Group 2" transform="translate(7.5 6.5)">
      <path id="Path_2" data-name="Path 2" d="M14.708,6.091A6.078,6.078,0,0,1,16.3,12.033c-.395,1.413-1.356,2.321-1.95,3.606-.3.654-.674,2.429-1.711,1.978-.741-.322-.423-1.37-.217-1.945.856-2.4,3.089-3.769,2.069-6.66a4.357,4.357,0,0,0-8.449,1.877c.1,1.287.9,2.166,1.494,3.226a11.25,11.25,0,0,1,1.139,3c.189.806.034,1.491,1.087,1.564.72.05,1.462-.035,2.178-.04,1.38-.009,2.763-.012,4.142,0,.523,0,1.068.08,1.6.039a.726.726,0,0,0,.743-.71c.1-.989-.224-3.168.261-3.951a2.079,2.079,0,0,1,.2-.242c.571-.517,1.3-.234.907-1.353-.112-.323-.274-.636-.38-.963-.379-1.162-.453-2.39-.8-3.557A8.593,8.593,0,0,0,3.4,5.34a8.758,8.758,0,0,0-.594,9.222c1.172,2.4,1.935,4.132,1.563,6.924-.088.657-.306,1.919-1.207,1.834-1.106-.1-.536-1.908-.495-2.593a8.913,8.913,0,0,0-.636-3.756c-.393-.966-.994-1.836-1.361-2.814A10.484,10.484,0,0,1,8.505.171,10.308,10.308,0,0,1,20,6.515c.822,2.025.682,4.047,1.829,6.014.4.682,1.548,1.84.461,2.482-.8.475-1.948-.277-2.054,1.141-.074.984.077,2.067,0,3.051a1.177,1.177,0,0,1-.935,1.208c-3.724.076-7.477.076-11.2,0a1.16,1.16,0,0,1-.968-1.029c-.044-.245-.012-.522-.04-.759a9.359,9.359,0,0,0-1.07-3.541c-.883-1.637-1.627-2.258-1.725-4.3A6.1,6.1,0,0,1,14.708,6.091" transform="translate(0 0)" fill="#c3cdce"/>
      <rect id="Rectangle_4" data-name="Rectangle 4" width="7.262" height="1.816" rx="0.908" transform="translate(7.032 21.527)" fill="#0190fe"/>
    </g>
  </g>
</svg>
